<?xml version="1.0" encoding="utf-8"?>
<!-- Generator: Adobe Illustrator 15.0.1, SVG Export Plug-In . SVG Version: 6.00 Build 0)  -->
<!DOCTYPE svg PUBLIC "-//W3C//DTD SVG 1.1//EN" "http://www.w3.org/Graphics/SVG/1.1/DTD/svg11.dtd">
<svg version="1.1" id="Untitled-Page_x25_201" xmlns="http://www.w3.org/2000/svg" xmlns:xlink="http://www.w3.org/1999/xlink"
	 x="0px" y="0px" width="32px" height="32px" viewBox="0 0 32 32" enable-background="new 0 0 32 32" xml:space="preserve">
<path fill="none" d="z"/>
<g>
	<g>
		<g>
			<rect x="2" y="4" fill="#333333" width="3" height="25"/>
			<rect x="2" y="26" fill="#333333" width="25" height="3"/>
		</g>
		<path id="Polygon" fill="#333333" d="M3.5,1L0,6h7L3.5,1z"/>
		<path id="Polygon2" fill="#333333" d="M32,27.5L27,24v7L32,27.5z"/>
	</g>
	<rect x="10" y="8" fill="#333333" width="2" height="2"/>
	<rect x="6" y="8" fill="#333333" width="2" height="2"/>
	<rect x="18" y="8" fill="#333333" width="2" height="2"/>
	<rect x="14" y="8" fill="#333333" width="2" height="2"/>
	<rect x="22" y="12" fill="#333333" width="2" height="2"/>
	<rect x="22" y="8" fill="#333333" width="2" height="2"/>
	<rect x="22" y="16" fill="#333333" width="2" height="2"/>
	<rect x="22" y="20" fill="#333333" width="2" height="2"/>
	<rect x="22" y="24" fill="#333333" width="2" height="2"/>
</g>
<path fill="none" d="z"/>
</svg>
