<?xml version="1.0" standalone="no"?>
<!-- Generator: Adobe Fireworks 10, Export SVG Extension by Aaron Beall (http://fireworks.abeall.com) . Version: 0.6.1  -->
<!DOCTYPE svg PUBLIC "-//W3C//DTD SVG 1.1//EN" "http://www.w3.org/Graphics/SVG/1.1/DTD/svg11.dtd">
<svg id="Untitled-Page%201" viewBox="0 0 32 32" style="background-color:#ffffff00" version="1.1"
	xmlns="http://www.w3.org/2000/svg" xmlns:xlink="http://www.w3.org/1999/xlink" xml:space="preserve"
	x="0px" y="0px" width="32px" height="32px"
>
	<g>
		<g>
			<g>
				<rect x="2" y="4" width="3" height="25" fill="#f5f5f5"/>
				<rect x="2" y="26" width="25" height="3" fill="#f5f5f5"/>
			</g>
			<path id="Polygon" d="M 3.5 1 L 0 6 L 7 6 L 3.5 1 Z" fill="#f5f5f5"/>
			<path id="Polygon2" d="M 32 27.5 L 27 24 L 27 31 L 32 27.5 Z" fill="#f5f5f5"/>
		</g>
		<rect x="10" y="8" width="2" height="2" stroke="#f5f5f5" stroke-width="1" fill="none"/>
		<rect x="6" y="8" width="2" height="2" stroke="#f5f5f5" stroke-width="1" fill="none"/>
		<rect x="18" y="8" width="2" height="2" stroke="#f5f5f5" stroke-width="1" fill="none"/>
		<rect x="14" y="8" width="2" height="2" stroke="#f5f5f5" stroke-width="1" fill="none"/>
		<rect x="22" y="12" width="2" height="2" stroke="#f5f5f5" stroke-width="1" fill="none"/>
		<rect x="22" y="8" width="2" height="2" stroke="#f5f5f5" stroke-width="1" fill="none"/>
		<rect x="22" y="16" width="2" height="2" stroke="#f5f5f5" stroke-width="1" fill="none"/>
		<rect x="22" y="20" width="2" height="2" stroke="#f5f5f5" stroke-width="1" fill="none"/>
		<rect x="22" y="24" width="2" height="2" stroke="#f5f5f5" stroke-width="1" fill="none"/>
	</g>
</svg>