<?xml version="1.0" standalone="no"?>
<!-- Generator: Adobe Fireworks 10, Export SVG Extension by Aaron Beall (http://fireworks.abeall.com) . Version: 0.6.1  -->
<!DOCTYPE svg PUBLIC "-//W3C//DTD SVG 1.1//EN" "http://www.w3.org/Graphics/SVG/1.1/DTD/svg11.dtd">
<svg id="Untitled-Page%201" viewBox="0 0 13 12" style="background-color:#ffffff00" version="1.1"
	xmlns="http://www.w3.org/2000/svg" xmlns:xlink="http://www.w3.org/1999/xlink" xml:space="preserve"
	x="0px" y="0px" width="13px" height="12px"
>
	<g id="Layer%201">
		<path d="M 10.6555 3.7052 C 11.6411 4.3931 12.4502 5.3188 13 6.4 C 11.7924 8.7745 9.3351 10.4 6.5 10.4 C 5.7057 10.4 4.9411 10.2724 4.2253 10.0365 L 5.2149 9.062 C 5.6347 9.1533 6.0652 9.2 6.5 9.2 C 7.637 9.2 8.7452 8.8814 9.7049 8.2787 C 10.4687 7.799 11.1159 7.1565 11.602 6.4 C 11.1317 5.6679 10.5101 5.0431 9.7783 4.5688 L 10.6555 3.7052 L 10.6555 3.7052 ZM 6.5 8.725 C 6.2115 8.725 5.9319 8.6878 5.6656 8.6183 L 9.6416 4.7035 C 9.7122 4.9657 9.75 5.2409 9.75 5.525 C 9.75 7.2923 8.2949 8.725 6.5 8.725 ZM 12.1875 0 L 11.5053 0 L 8.7173 2.7451 C 8.018 2.5211 7.2731 2.4 6.5 2.4 C 3.6649 2.4 1.2076 4.0255 0 6.4 C 0.5416 7.4649 1.3347 8.3788 2.3003 9.0634 L 0 11.3283 L 0 12 L 0.6822 12 L 12.1875 0.6717 L 12.1875 0 L 12.1875 0 ZM 5.2813 3.925 C 5.8912 3.925 6.3965 4.3661 6.486 4.9421 L 5.0955 6.3112 C 4.5106 6.2231 4.0625 5.7256 4.0625 5.125 C 4.0625 4.4622 4.6082 3.925 5.2813 3.925 ZM 1.398 6.4 C 1.8841 5.6435 2.5313 5.0009 3.2951 4.5213 C 3.3448 4.4901 3.3951 4.4598 3.4456 4.43 C 3.3192 4.7717 3.25 5.1403 3.25 5.525 C 3.25 6.2565 3.4995 6.9306 3.919 7.4695 L 3.1757 8.2014 C 2.4639 7.7309 1.8585 7.1168 1.398 6.4 Z" fill="#333333"/>
	</g>
</svg>