<?xml version="1.0" standalone="no"?>
<!-- Generator: Adobe Fireworks 10, Export SVG Extension by Aaron Beall (http://fireworks.abeall.com) . Version: 0.6.1  -->
<!DOCTYPE svg PUBLIC "-//W3C//DTD SVG 1.1//EN" "http://www.w3.org/Graphics/SVG/1.1/DTD/svg11.dtd">
<svg id="Untitled-Page%201" viewBox="0 0 32 32" style="background-color:#ffffff00" version="1.1"
	xmlns="http://www.w3.org/2000/svg" xmlns:xlink="http://www.w3.org/1999/xlink" xml:space="preserve"
	x="0px" y="0px" width="32px" height="32px"
>
	<g id="Layer%201">
		<path d="M 30.071 22.9266 L 30 3 L 2 3 L 2 23 L 14 23 L 14 26 L 8.0327 26 L 8 29 L 23 29 L 23 26 L 17 26 L 17 23 L 30.071 22.9266 ZM 5 6 L 27 6 L 27 20 L 5 20 L 5 6 Z" fill="#f5f5f5"/>
		<g visibility="hidden">
			<path d="M 1 25.286 L 1 5.7139 C 1 4.2213 2.1864 3 3.6364 3 L 27.3636 3 C 28.8137 3 30 4.2213 30 5.7139 L 30 25.286 C 30 26.7787 28.8137 28 27.3636 28 L 3.6364 28 C 2.1864 28 1 26.7787 1 25.286 ZM 29 17 L 29 14 L 26 14 L 26 17 L 29 17 ZM 25 25 L 25 6 L 4 6 L 4 25 L 25 25 Z" fill="#f5f5f5"/>
		</g>
		<path visibility="hidden" d="M 30 31 L 30 32 L 30 31 Z" fill="#f5f5f5"/>
		<g visibility="hidden">
			<g>
				<g>
					<rect x="2" y="4" width="3" height="25" fill="#f5f5f5"/>
					<rect x="2" y="26" width="25" height="3" fill="#f5f5f5"/>
				</g>
				<path id="Polygon" d="M 3.5 1 L 0 6 L 7 6 L 3.5 1 Z" fill="#f5f5f5"/>
				<path id="Polygon2" d="M 32 27.5 L 27 24 L 27 31 L 32 27.5 Z" fill="#f5f5f5"/>
			</g>
			<rect x="10" y="8" width="2" height="2" stroke="#f5f5f5" stroke-width="1" fill="none"/>
			<rect x="6" y="8" width="2" height="2" stroke="#f5f5f5" stroke-width="1" fill="none"/>
			<rect x="18" y="8" width="2" height="2" stroke="#f5f5f5" stroke-width="1" fill="none"/>
			<rect x="14" y="8" width="2" height="2" stroke="#f5f5f5" stroke-width="1" fill="none"/>
			<rect x="22" y="12" width="2" height="2" stroke="#f5f5f5" stroke-width="1" fill="none"/>
			<rect x="22" y="8" width="2" height="2" stroke="#f5f5f5" stroke-width="1" fill="none"/>
			<rect x="22" y="16" width="2" height="2" stroke="#f5f5f5" stroke-width="1" fill="none"/>
			<rect x="22" y="20" width="2" height="2" stroke="#f5f5f5" stroke-width="1" fill="none"/>
			<rect x="22" y="24" width="2" height="2" stroke="#f5f5f5" stroke-width="1" fill="none"/>
		</g>
	</g>
</svg>