<?xml version="1.0" encoding="utf-8"?>
<!-- Generator: Adobe Illustrator 15.0.1, SVG Export Plug-In . SVG Version: 6.00 Build 0)  -->
<!DOCTYPE svg PUBLIC "-//W3C//DTD SVG 1.1//EN" "http://www.w3.org/Graphics/SVG/1.1/DTD/svg11.dtd">
<svg version="1.1" id="Untitled-Page_x25_201" xmlns="http://www.w3.org/2000/svg" xmlns:xlink="http://www.w3.org/1999/xlink"
	 x="0px" y="0px" width="32px" height="32px" viewBox="0 0 32 32" enable-background="new 0 0 32 32" xml:space="preserve">
<path fill="none" d="z"/>
<g id="Layer_x25_201">
	<path fill="#333333" d="M30.07,22.927L30,3H2v20h12v3H8.033L8,29h15v-3h-6v-3L30.07,22.927z M5,6h22v14H5V6z"/>
	<g>
		<path display="none" fill="#333333" d="M1,25.286V5.714C1,4.221,2.187,3,3.636,3h23.727C28.813,3,30,4.221,30,5.714v19.572
			C30,26.779,28.813,28,27.363,28H3.636C2.187,28,1,26.779,1,25.286z M29,17v-3h-3v3H29z M25,25V6H4v19H25z"/>
	</g>
	<path display="none" fill="#333333" d="M30,31v1V31z"/>
	<g>
		<g>
			<g>
				<rect x="2" y="4" display="none" fill="#333333" width="3" height="25"/>
				<rect x="2" y="26" display="none" fill="#333333" width="25" height="3"/>
			</g>
			<path id="Polygon" display="none" fill="#333333" d="M3.5,1L0,6h7L3.5,1z"/>
			<path id="Polygon2" display="none" fill="#333333" d="M32,27.5L27,24v7L32,27.5z"/>
		</g>
		<rect x="10" y="8" display="none" fill="#333333" width="2" height="2"/>
		<rect x="6" y="8" display="none" fill="#333333" width="2" height="2"/>
		<rect x="18" y="8" display="none" fill="#333333" width="2" height="2"/>
		<rect x="14" y="8" display="none" fill="#333333" width="2" height="2"/>
		<rect x="22" y="12" display="none" fill="#333333" width="2" height="2"/>
		<rect x="22" y="8" display="none" fill="#333333" width="2" height="2"/>
		<rect x="22" y="16" display="none" fill="#333333" width="2" height="2"/>
		<rect x="22" y="20" display="none" fill="#333333" width="2" height="2"/>
		<rect x="22" y="24" display="none" fill="#333333" width="2" height="2"/>
	</g>
</g>
<path fill="none" d="z"/>
</svg>
