<?xml version="1.0" encoding="utf-8"?>
<!-- Generator: Adobe Illustrator 15.0.0, SVG Export Plug-In . SVG Version: 6.00 Build 0)  -->
<!DOCTYPE svg PUBLIC "-//W3C//DTD SVG 1.0//EN" "http://www.w3.org/TR/2001/REC-SVG-20010904/DTD/svg10.dtd">
<svg version="1.0" id="Layer_1" xmlns="http://www.w3.org/2000/svg" xmlns:xlink="http://www.w3.org/1999/xlink" x="0px" y="0px"
	 width="24px" height="23px" viewBox="0 0 24 23" enable-background="new 0 0 24 23" xml:space="preserve">
<path fill-rule="evenodd" clip-rule="evenodd" fill="#5F8AAC" d="M14.91,16.844c0.506-0.152,0.93-0.568,1.311-0.863
	c0.887-0.701,1.525-1.687,1.897-2.906c0.123-0.426,0.093-0.843,0.175-1.341c0.072-0.437,0-0.975-0.082-1.351
	c-0.104-0.437-0.217-0.843-0.371-1.219c-0.434-0.996-1.176-1.849-2.012-2.438L15.18,6.309c-0.113-0.051-0.27-0.274-0.352-0.172
	c-0.371-0.285-0.268-0.193-0.268-0.193s0.525-1.046,0.701-1.402c1.732,0.752,3.197,2.296,3.939,4.023
	c0.216,0.508,0.35,1.067,0.474,1.676c0.083,0.376,0.155,1.056,0.083,1.483l-0.021,0.538c-0.062,0.387-0.082,0.752-0.175,1.098
	c-0.413,1.615-1.278,2.967-2.423,3.871c-0.402,0.324-0.795,0.629-1.258,0.914c-0.125,0.07-0.383,0.283-0.537,0.264
	c-0.164-0.355-0.701-1.432-0.701-1.432S14.633,17.037,14.91,16.844z M0,15.584v-8.32h4.795c1.773-1.707,4.599-2.997,6.383-4.704
	v17.89c-1.774-1.707-4.599-3.159-6.373-4.866H0z M16.592,0c0.34,0.061,0.691,0.335,0.959,0.498c0.773,0.478,1.424,0.996,2.113,1.544
	c0.434,0.345,0.846,0.762,1.196,1.188c0.341,0.426,0.702,0.833,1.021,1.28c0.897,1.259,1.475,2.753,1.876,4.51
	c0.341,1.524,0.32,3.749-0.051,5.222c-0.784,3.099-2.279,5.404-4.465,7.101c-0.629,0.479-1.248,0.914-1.959,1.321L16.643,23
	l-0.67-1.402c0.258-0.081,0.484-0.243,0.701-0.365c0.732-0.438,1.33-0.914,1.96-1.422c0.401-0.314,0.783-0.701,1.103-1.107
	c0.856-1.066,1.64-2.164,2.114-3.617c0.165-0.488,0.258-0.975,0.372-1.523c0.175-0.803,0.299-2.266,0.133-3.18
	c-0.082-0.508-0.113-1.005-0.227-1.483c-0.68-2.642-2.072-4.663-3.97-6.105c-0.608-0.458-1.444-1.138-2.228-1.392L16.592,0z"/>
</svg>
