<?xml version="1.0" standalone="no"?>
<!DOCTYPE svg PUBLIC "-//W3C//DTD SVG 1.1//EN" "http://www.w3.org/Graphics/SVG/1.1/DTD/svg11.dtd" >
<svg xmlns="http://www.w3.org/2000/svg">
<metadata></metadata>
<defs>
<font id="daatbold" horiz-adv-x="40" >
<font-face units-per-em="2048" ascent="1638" descent="-410" />
<missing-glyph horiz-adv-x="516" />
<glyph unicode="&#xfb01;" horiz-adv-x="1298" d="M1051 1161q-77 0 -128 45.5t-51 116.5t51 116.5t128 45.5q78 0 129 -45t51 -117t-51 -117t-129 -45zM1208 1018v-1018h-313v772h-373v-772h-313v772h-135v234l135 10v45q0 84 20.5 153t64 124.5t119 86.5t177.5 31q109 0 207 -35l-56 -231q-58 20 -106 20 q-113 0 -113 -139v-53h686z" />
<glyph unicode="&#xfb02;" horiz-adv-x="1361" d="M190 1061q0 84 20.5 153t64 124.5t119 86.5t177.5 31q109 0 207 -35l-57 -231q-55 20 -105 20q-56 0 -84 -32.5t-28 -106.5v-53h180v-246h-180v-772h-314v772h-135v234l135 10v45zM1155 1432v-1117q0 -56 27 -73q23 -21 65 -11l37 -229q-62 -27 -156 -27 q-155 0 -220.5 90t-65.5 263v1104h313z" />
<glyph horiz-adv-x="2048" />
<glyph horiz-adv-x="2048" />
<glyph unicode="&#xd;" horiz-adv-x="2048" />
<glyph unicode=" "  horiz-adv-x="516" />
<glyph unicode="&#x09;" horiz-adv-x="516" />
<glyph unicode="&#xa0;" horiz-adv-x="516" />
<glyph unicode="!" horiz-adv-x="548" d="M94 1202l324 -22v-291q0 -33 -18.5 -198t-32.5 -263l-215 23q-2 29 -29.5 238.5t-28.5 254.5v258zM150 324l256 -31l4 -33q9 -110 -21 -266l-33 -6l-250 24l-6 29q12 151 9 274z" />
<glyph unicode="&#x22;" horiz-adv-x="806" d="M197 1309l202 -66v-47q-35 -118 -112.5 -254t-165.5 -205l-70 39l105 533h41zM551 1309l203 -66v-47q-35 -118 -113 -254t-166 -205l-69 39l104 533h41z" />
<glyph unicode="#" horiz-adv-x="1251" d="M834 1067h215l-56 -274h168v-144l-200 -12l-37 -184h170v-142l-201 -12l-57 -274h-213l53 272h-203l-53 -272h-215l53 272h-168v156h203l35 182h-172v158h204l54 274h217l-56 -274h203zM715 446l41 195h-221l-37 -195h217z" />
<glyph unicode="$" horiz-adv-x="1062" d="M582 1171v-71q150 -11 237.5 -73.5t116.5 -186.5l-240 -37q-10 36 -45.5 76.5t-68.5 54.5v-262q80 -21 135.5 -41t105.5 -49t80 -63.5t47 -82.5t17 -110q0 -82 -32.5 -148t-88 -107.5t-123 -64t-141.5 -24.5v-140h-95v140q-165 14 -263.5 87.5t-129.5 233.5l260 31 q12 -77 40.5 -115.5t92.5 -66.5v309q-68 19 -114 35.5t-95.5 43t-78.5 59t-47.5 80.5t-18.5 109q0 143 95 223t259 89v71h95zM487 936q-52 -14 -81 -44.5t-29 -74.5q0 -93 110 -123v242zM582 150q68 10 106.5 48.5t38.5 94.5q0 51 -36 84t-109 57v-284z" />
<glyph unicode="%" horiz-adv-x="1495" d="M344 1268q139 0 217 -93.5t78 -248.5q0 -164 -83 -251t-224 -87q-130 0 -209.5 88.5t-79.5 249.5q0 169 84.5 255.5t216.5 86.5zM848 1237l186 -86l-411 -1151l-197 53zM340 1153q-49 0 -74.5 -58.5t-25.5 -168.5q0 -114 26.5 -171t73.5 -57q102 0 102 228q0 109 -27 168 t-75 59zM1141 653q139 0 217 -94.5t78 -249.5q0 -165 -82.5 -250.5t-223.5 -85.5q-129 0 -209.5 87t-80.5 249q0 167 84.5 255.5t216.5 88.5zM1137 539q-46 0 -73.5 -61.5t-27.5 -168.5q0 -225 101 -225q102 0 102 225q0 108 -27.5 169t-74.5 61z" />
<glyph unicode="&#x26;" horiz-adv-x="1546" d="M1278 -18q-43 24 -108 70t-103 69q-98 -70 -207.5 -105.5t-257.5 -35.5q-234 0 -362.5 106t-128.5 264q0 246 325 379q-77 92 -106 156.5t-29 132.5q0 135 105 221t294 86q191 0 293.5 -80.5t102.5 -202.5q0 -47 -14 -88.5t-35 -73t-58 -64t-70.5 -55.5t-84.5 -54 q107 -124 217 -222q30 56 49 140l250 -58q-38 -127 -105 -245q57 -39 87 -62t34 -27.5t7.5 -8.5t18 -13.5t56.5 -34.5zM711 1153q-57 0 -96.5 -35t-39.5 -86q0 -33 25.5 -74.5t83.5 -105.5q164 87 164 184q0 51 -38 84t-99 33zM571 575q-85 -56 -117 -102t-32 -100 q0 -74 60.5 -132.5t156.5 -58.5q105 0 242 103q-121 104 -310 290z" />
<glyph unicode="'" horiz-adv-x="442" d="M188 1309l205 -66v-47q-37 -119 -115 -254.5t-165 -204.5l-68 39l105 533h38z" />
<glyph unicode="(" horiz-adv-x="731" d="M674 1415q-113 -107 -205 -362.5t-92 -495.5q0 -238 87 -486.5t204 -365.5q-1 -1 -54.5 -56.5t-54.5 -58.5q-97 76 -178 170.5t-148 214.5t-105 269.5t-38 312.5q0 156 38 304t104.5 269.5t149 220t179.5 173.5z" />
<glyph unicode=")" horiz-adv-x="761" d="M201 1524q97 -75 179.5 -173.5t149 -220t104.5 -269.5t38 -304q0 -163 -38 -312.5t-105 -269.5t-147.5 -214.5t-176.5 -170.5q-2 3 -56 58t-55 57q118 117 205.5 365.5t87.5 486.5q0 239 -92.5 495t-204.5 363z" />
<glyph unicode="*" horiz-adv-x="659" d="M373 1423q-1 -33 -13 -117.5t-14 -103.5q132 65 209 90l39 -121q-84 -28 -223 -43q89 -83 157 -165l-102 -74q-15 20 -34 52t-46 79.5t-37 64.5q-71 -142 -110 -196l-103 74q80 97 154 165q-20 4 -65.5 12t-85.5 15.5t-70 15.5l41 121q127 -47 202 -92q-4 44 -13.5 124.5 t-10.5 98.5h125z" />
<glyph unicode="+" horiz-adv-x="1085" d="M641 993v-346h356v-194h-356v-344h-195v344h-356l47 194h309v346h195z" />
<glyph unicode="," horiz-adv-x="475" d="M186 297l203 -64v-47q-35 -119 -112.5 -254.5t-165.5 -203.5l-70 36l104 533h41z" />
<glyph unicode="-" horiz-adv-x="827" d="M123 678l129 -21h477v-206h-528l-121 22z" />
<glyph unicode="." horiz-adv-x="462" d="M133 301l234 -29l6 -28q3 -102 -17 -250l-32 -6l-228 24l-6 29q8 117 8 252z" />
<glyph unicode="/" horiz-adv-x="907" d="M670 1450l207 -117l-625 -1695l-221 81z" />
<glyph unicode="0" horiz-adv-x="1204" d="M600 1176q504 0 504 -592q0 -611 -522 -611q-246 0 -378 160t-132 451q12 308 146.5 450t381.5 142zM594 1026q-88 0 -136 -112.5t-48 -329.5q0 -455 184 -455q87 0 139.5 113t52.5 342q0 214 -52.5 328t-139.5 114z" />
<glyph unicode="1" horiz-adv-x="819" d="M485 1176l109 -13l4 -993q6 -1 20 -3.5t17 -2.5q12 0 16 -2h17l37 -6q4 -2 12 -2q2 0 6 -1t6 -1q20 -5 31 -5q-2 -6 -2 -24q0 -2 -1 -5.5t-1 -4.5v-9q-4 -24 -4 -36v-9q0 -1 -1 -4t-1 -6l-7 -49l-663 6q0 1 -1 5.5t-1 6.5v15q0 18 -2 24q-4 32 -4 72l207 41v780h-213 q-3 27 -3 56q0 27 -2 41q0 1 -1 6t-1 8q2 0 7 1t6 1q17 3 26 8q109 30 115 31q1 0 3.5 1t4.5 1q6 0 10 2q7 0 11 2q2 0 10 4q12 3 53.5 14t65.5 17q32 7 84 22q8 4 14 4z" />
<glyph unicode="2" horiz-adv-x="1001" d="M283 813h-203v199q41 35 71.5 57.5t81.5 50.5t112 42t132 14q115 0 200.5 -26.5t135 -73t73 -102.5t23.5 -122q0 -95 -49.5 -180.5t-144.5 -194.5l-31 -28l-16 -17l-74 -78l-43 -43q-81 -89 -98 -118h454v-193h-815q0 13 -6 25v-2q-4 4 -4 12l-10 20q44 108 120 220.5 t158 195.5q36 63 70 90l6 2q0 4 6 10q8 8 14 17l7 8l6 10q139 147 139 213q0 71 -39.5 113.5t-103.5 42.5q-36 0 -64.5 -13t-68.5 -40q-3 -3 -15 -9q-11 -33 -12 -38q-2 -4 -2 -15q0 -1 -1 -3t-1 -3t-1 -4t-1 -6q-1 -3 -2 -10t-2 -11q0 -2 -1 -6t-1 -6z" />
<glyph unicode="3" horiz-adv-x="933" d="M858 1155l14 -164l-307 -336q50 -6 99.5 -28t93 -57.5t71 -90t27.5 -117.5q0 -90 -36.5 -162t-98.5 -122.5t-156.5 -89.5t-197.5 -63t-234 -42q-15 45 -27 72q-4 9 -12 39q-3 24 -10 35q211 41 338 125t127 208q0 181 -313 195v115l299 272h-306q-21 -7 -39 -10 q-12 -2 -28 -6q-4 -2 -10 -2q-2 0 -6 -1t-5 -1q-12 -4 -18 -4q-12 -5 -45 -9l-15 111l-6 61q-4 8 -4 23q-2 6 -2 24l60 13q36 6 61 12h686z" />
<glyph unicode="4" horiz-adv-x="1128" d="M63 227l-8 162q117 156 259 371.5t245 394.5h383v-747h135q-3 -59 -10 -82q0 -1 -1 -3.5t-1 -3.5q-4 -29 -4 -65v-12v-15h-119v-166l6 -30q1 -3 2 -9.5t2 -9.5q4 -8 4 -10q0 -8 2 -10v-12l3 -7q0 -4 2 -6l2 -14l2 -12q-2 0 -8 -1t-9 -1l-63 -7q-6 -2 -19 -2q-3 0 -9.5 -1 t-8.5 -1q-16 -4 -37 -4q-6 -2 -18 -2q-3 0 -10 -1t-9 -1q-20 -4 -35 -4q-64 -4 -86 -8l-1 4q-1 5 -1 10v8q0 13 -4 19q0 14 -4 26q-2 4 -2 21q0 1 -1 3.5t-1 4.5v223h-578zM641 408v446q-6 -6 -6 -8q-2 -2 -3.5 -4.5t-2.5 -3.5q-11 -18 -19 -29q-171 -280 -284 -401h315z " />
<glyph unicode="5" horiz-adv-x="909" d="M805 1178l33 -213q-14 -7 -19 -7q-1 0 -6 -1t-10 -1q-25 -5 -29 -6q-10 0 -22 -4q-4 -2 -15 -2l-5 -1q-4 -1 -9 -1h-358q-5 -19 -9 -63q0 -1 -1 -5t-1 -8q0 -10 -2 -14q-4 -16 -4 -27q-2 -6 -2 -20v-12q0 -2 -1 -7t-1 -8q-4 -20 -8 -28q-9 -39 -12 -78q44 8 106 8 q64 0 122 -10.5t111 -35t91.5 -60.5t61 -90.5t22.5 -121.5q0 -73 -26.5 -134.5t-77 -109t-117 -85t-153 -66t-177 -49t-197.5 -35.5q-3 32 -10 54v-3q-2 2 -2 15q0 1 -1 3t-1 3q-6 21 -10 53q-3 9 -3 21q135 27 235.5 70t163 111t62.5 152q0 45 -22 78.5t-59.5 54 t-96.5 33.5t-123.5 17.5t-150.5 5.5q2 16 2 53q0 9 1 27t1 26v25q0 6 1 15t1 12q0 31 4 71q2 12 2 39q0 6 1 18.5t1 18.5q1 10 2 33t2 35q0 8 1 30t1 29q0 9 1 37t1 45q1 15 2 46.5t2 43.5h559q0 -1 7.5 0.5t13.5 3.5q2 0 7 1t7 1q13 0 25 2l6 2h10q11 0 17 2q8 0 16 4 q6 0 16 5h9q10 0 14 2z" />
<glyph unicode="6" horiz-adv-x="1034" d="M51 481q0 79 17.5 155.5t61 160.5t111 158.5t174 146.5t242.5 127l76 -127q-136 -75 -231 -178t-113 -207q73 51 207 51q184 0 283.5 -112t99.5 -287q0 -182 -126 -296t-339 -114q-210 0 -336.5 144t-126.5 378zM528 598q-69 0 -114 -70t-45 -161q0 -109 45 -183.5 t116 -74.5q73 0 115.5 74t42.5 182q0 96 -44 164.5t-116 68.5z" />
<glyph unicode="7" horiz-adv-x="985" d="M920 1155l18 -164q-136 -156 -262 -447t-164 -544h-289q6 101 36.5 231t78 262.5t117 255t145.5 195.5h-385q-2 -1 -7.5 -2t-8.5 -2q-12 -4 -17 -4q-5 -1 -16 -4t-16 -4q-26 -4 -48 -10l-36 -7l-11 111q-8 34 -16 108l59 13q9 0 21 4q2 0 6 1t6 1q8 0 16 2q1 0 3.5 1 t3.5 1q8 0 12 2h754z" />
<glyph unicode="8" horiz-adv-x="1071" d="M539 1190q92 0 167.5 -20.5t134.5 -61.5t91.5 -110t32.5 -160q0 -57 -51.5 -128t-114.5 -106q74 -43 133 -124t59 -183q0 -165 -114.5 -250.5t-339.5 -85.5q-118 0 -210 27t-147.5 73t-83.5 102.5t-28 119.5q0 97 55 175.5t133 125.5q-60 41 -110 107.5t-50 137.5 q0 171 121.5 266t321.5 95zM539 1024q-76 0 -116 -46.5t-40 -111.5q0 -29 28.5 -60t62.5 -53t92 -55q12 -7 18 -10q0 -1 14 -10q6 0 10 -2q64 74 64 160q0 77 -34.5 132.5t-98.5 55.5zM686 272q0 133 -231 236q-80 -97 -80 -205q0 -79 50.5 -126.5t117.5 -47.5 q66 0 104.5 38.5t38.5 104.5z" />
<glyph unicode="9" horiz-adv-x="1034" d="M303 33v12q150 99 237 193t103 196q-89 -47 -211 -47q-182 0 -281.5 112.5t-99.5 282.5q0 178 122 290t341 112q207 0 336 -146t129 -379q0 -69 -21 -145.5t-68 -161.5t-114.5 -162.5t-169 -149.5t-223.5 -120q5 -10 4 -10q-4 1 -18 24q-1 2 -11 17q-4 12 -12 20l-12 17 q0 1 -1 3t-1 3q-4 4 -6 10v-2q-12 20 -23 31zM494 1020q-69 0 -115 -66.5t-49 -165.5q3 -98 48.5 -162.5t115.5 -64.5q76 0 120.5 63t44.5 160q0 100 -43.5 168t-121.5 68z" />
<glyph unicode=":" horiz-adv-x="530" d="M166 965l233 -27l7 -29q5 -87 -17 -250l-33 -8l-227 25l-6 29q10 150 10 251zM166 301l233 -29l7 -28q5 -88 -17 -248l-33 -8l-227 24l-6 29q10 147 10 252z" />
<glyph unicode=";" horiz-adv-x="503" d="M168 967l233 -29l7 -29q5 -87 -17 -247l-33 -9l-227 23l-6 31q11 128 8 251zM176 297l203 -64v-47q-35 -117 -113.5 -253.5t-165.5 -204.5l-69 36l106 533h39z" />
<glyph unicode="&#x3c;" horiz-adv-x="1103" d="M1010 1098v-234l-604 -237l604 -236v-235l-916 379v184z" />
<glyph unicode="=" horiz-adv-x="1046" d="M963 866v-192h-879l49 192h830zM963 457v-195h-879l49 195h830z" />
<glyph unicode="&#x3e;" horiz-adv-x="1103" d="M94 1098l916 -379v-184l-916 -379v235l604 236l-604 237v234z" />
<glyph unicode="?" horiz-adv-x="1013" d="M94 1063q64 64 166.5 102.5t218.5 38.5q216 0 328.5 -86t112.5 -225q0 -52 -16 -94.5t-42.5 -72t-59 -55t-68.5 -49.5t-68 -49.5t-59.5 -61.5t-41.5 -79l-129 17q-11 99 19.5 165t93.5 134q40 47 59.5 79t20.5 64q0 58 -36.5 94.5t-111.5 36.5q-77 0 -145 -64l-23 -98 h-219v203zM397 324l250 -31l8 -33q3 -123 -18 -266l-33 -6l-250 24l-8 29q13 160 10 274z" />
<glyph unicode="@" horiz-adv-x="1710" d="M1620 74q-84 -100 -176.5 -169.5t-220.5 -113.5q-148 -49 -320 -49q-219 0 -393 90t-279 260q-137 214 -137 467q0 234 103.5 437t281.5 313q181 112 426 112q208 0 370 -91t249.5 -250.5t87.5 -358.5q0 -195 -96.5 -354t-251.5 -224q-104 -59 -195 -45q-89 6 -125 115 q-63 -66 -120 -97.5t-124 -31.5q-135 0 -222 113t-87 297q0 156 56.5 296t154.5 226t211 86q147 0 240 -152l20 121h176l-125 -721q-8 -40 -3.5 -64t23 -31.5t43.5 -3.5t58 19q97 52 162.5 173.5t65.5 277.5q0 260 -157.5 410.5t-412.5 150.5q-191 0 -346 -91.5t-240 -260.5 q-84 -166 -84 -369q0 -212 87.5 -370t237.5 -239t341 -81q298 0 537 203h184zM842 961q-64 0 -116 -47.5t-83 -123.5t-47 -162t-16 -171q0 -106 42.5 -172t108.5 -66q79 0 141 68q48 59 87.5 202.5t39.5 262.5q0 94 -47 151.5t-110 57.5z" />
<glyph unicode="A" horiz-adv-x="1454" d="M940 328h-434q-4 -13 -19 -78q-3 -12 -8 -34t-8 -34q-8 -36 -25.5 -104.5t-19.5 -77.5h-324q15 45 42.5 134.5t37.5 119.5q225 718 353 1137h383q15 -46 206 -666q19 -62 61.5 -197.5t63.5 -203.5q26 -80 45 -146q9 -28 29 -89t29 -89h-326zM883 569l-35 127 q-30 119 -31 121q-24 97 -29 123q-5 27 -22 92q-2 8 -7 26t-7 29l-7 21q-11 46 -12 47h-26q-1 -3 -2.5 -11t-2.5 -11q-4 -16 -4 -21q-3 -12 -8 -39.5t-8 -40.5q-1 -6 -4 -19.5t-4 -19.5q-5 -20 -43 -188q-16 -62 -17 -66t-3 -11t-3 -11t-2 -12t-2 -11l-35 -125h314z" />
<glyph unicode="B" horiz-adv-x="1298" d="M145 0v1391h476q509 0 509 -344q0 -64 -22.5 -120.5t-76.5 -104t-132 -68.5v-29q305 -57 305 -317q0 -102 -42.5 -181.5t-118 -128.5t-173 -73.5t-211.5 -24.5h-514zM455 823h153q221 0 221 178q0 77 -54.5 112.5t-164.5 35.5h-155v-326zM455 236h180q133 0 196.5 47.5 t63.5 148.5q0 95 -62 136.5t-198 41.5h-180v-374z" />
<glyph unicode="C" horiz-adv-x="1296" d="M772 240q68 0 137 35.5t125 89.5q36 -47 107 -125q11 -12 33.5 -38t25.5 -30q-90 -95 -202 -146t-232 -51q-108 0 -206 28.5t-181 86.5t-143.5 141.5t-95 199.5t-34.5 253q0 168 54.5 308t147 231.5t213.5 141.5t257 50q106 0 213.5 -51.5t184.5 -124.5 q-17 -18 -45.5 -51.5t-32.5 -38.5t-13.5 -15.5t-13.5 -15.5q-10 -12 -29.5 -37t-29.5 -37q-123 99 -230 99q-154 0 -253 -120.5t-99 -328.5q0 -212 92.5 -333t249.5 -121z" />
<glyph unicode="D" horiz-adv-x="1351" d="M145 1391h385q163 0 291 -40.5t222 -123.5t144 -216.5t50 -312.5q0 -176 -50 -310.5t-141 -218.5t-214.5 -126.5t-276.5 -42.5h-410v1391zM510 246q403 0 403 452q0 125 -28.5 212.5t-84 136t-125.5 69.5t-165 21h-55v-891h55z" />
<glyph unicode="E" horiz-adv-x="1148" d="M147 1391h869v-265h-561v-284h475v-256h-475v-328h581v-258h-889v1391z" />
<glyph unicode="F" horiz-adv-x="1093" d="M147 1391h875v-265h-567v-327h481v-258h-481v-541h-308v1391z" />
<glyph unicode="G" horiz-adv-x="1390" d="M1266 782v-641q-78 -75 -200.5 -120.5t-260.5 -45.5q-143 0 -266 45.5t-217 132.5t-147.5 223.5t-53.5 307.5q0 169 55 308t150 231t220.5 142t268.5 50q214 0 424 -176q-33 -38 -86 -94q-19 -19 -63 -74q-3 -3 -10.5 -12t-10.5 -12q-111 96 -250 96 q-166 0 -269.5 -119.5t-103.5 -329.5q0 -217 101.5 -335.5t298.5 -118.5q86 0 147 39v247h-227v256h500z" />
<glyph unicode="H" horiz-adv-x="1388" d="M145 1391h310v-543h485v543h315v-1391h-315v584h-485v-584h-310v1391z" />
<glyph unicode="I" horiz-adv-x="602" d="M147 1391h310v-1391h-310v1391z" />
<glyph unicode="J" horiz-adv-x="1148" d="M569 -25q-293 0 -448 242q6 4 17.5 13.5t17.5 13.5q109 82 170 133q85 -137 194 -137q94 0 138 54t44 195v902h316v-928q0 -101 -27.5 -188t-81.5 -154.5t-141 -106.5t-199 -39zM334 381l-15 20q0 -9 3.5 -14t7.5 -5z" />
<glyph unicode="K" horiz-adv-x="1351" d="M145 1391h310v-566h22q28 40 96 135t105 148q201 280 203 283h342l-420 -560q19 -31 244 -405v2l24 -45q110 -193 227 -383h-344l-333 592l-166 -219v-373h-310v1391z" />
<glyph unicode="L" horiz-adv-x="1081" d="M147 1391h308v-1133h553v-258h-861v1391z" />
<glyph unicode="M" horiz-adv-x="1579" d="M145 1391h326q7 -16 17.5 -46t17.5 -45q29 -77 62 -166t71.5 -194.5t60.5 -163.5l91 -246h24q24 80 35 107q10 24 35 106q3 5 5 16.5t5 16.5q94 250 141 391q7 17 17.5 51t17.5 50q7 20 21.5 61.5t21.5 61.5h336v-1391h-295v481q0 113 37 416v12q0 3 1 8.5t1 8.5 q0 4 1 12t1 12q0 21 2 27h-24q-35 -98 -113 -334q-13 -33 -37 -92.5t-44 -110t-38 -96.5q-9 -27 -39 -94q-31 -71 -53 -127h-121q-7 16 -19.5 51t-19.5 51q-105 265 -170 418l-106 334h-25q2 -4 2 -27q0 -4 1 -12.5t1 -11.5t1 -8.5t1 -8.5v-12q33 -309 33 -416v-481h-283 v1391z" />
<glyph unicode="N" horiz-adv-x="1368" d="M145 1391h318q10 -20 30.5 -57.5t28.5 -53.5q136 -262 170 -332q2 -4 21.5 -37.5t27.5 -50.5q55 -103 78 -149l135 -312h27q-5 65 -12 99q-31 258 -31 420v473h299v-1391h-328q-108 215 -131 260q-45 82 -125 239.5t-90 176.5l-139 317h-25q0 -3 3 -23.5t4 -31.5 q4 -26 8 -82q0 -7 1 -16t1 -11q0 -14 2 -20q1 -5 2 -17.5t2 -17.5q18 -180 18 -307v-467h-295v1391z" />
<glyph unicode="O" horiz-adv-x="1474" d="M735 -25q-137 0 -253 49.5t-199.5 141t-130 228t-46.5 304.5q0 336 174 526.5t455 190.5q289 0 463 -190.5t174 -526.5q0 -337 -174.5 -530t-462.5 -193zM735 240q146 0 232 124t86 334q0 212 -85 328.5t-233 116.5q-141 0 -223 -117t-82 -328q0 -209 83 -333.5 t222 -124.5z" />
<glyph unicode="P" horiz-adv-x="1312" d="M145 1391h508q91 0 170 -14.5t149.5 -48.5t120 -85t78.5 -129t29 -176q0 -116 -44.5 -207.5t-121 -148t-173.5 -86t-208 -29.5h-198v-467h-310v1391zM455 711h180q256 0 256 227q0 112 -61.5 157.5t-194.5 45.5h-180v-430z" />
<glyph unicode="Q" horiz-adv-x="1509" d="M1245 -143q85 0 150 24q11 -53 26 -112q7 -32 29 -115q-99 -45 -242 -45q-218 0 -375.5 104.5t-232.5 278.5q-229 43 -361.5 229t-132.5 477q0 336 174 526.5t455 190.5q289 0 463 -190.5t174 -526.5q0 -275 -120 -460t-332 -242q113 -139 325 -139zM735 1143 q-141 0 -223 -117t-82 -328q0 -221 82 -347t223 -126q147 0 232.5 126t85.5 347q0 212 -85 328.5t-233 116.5z" />
<glyph unicode="R" horiz-adv-x="1329" d="M895 0l-262 494h-178v-494h-310v1391h500q115 0 209 -22.5t170.5 -71.5t119 -135.5t42.5 -205.5q0 -144 -67.5 -245t-186.5 -154q74 -124 151 -268q33 -62 123 -219q7 -12 19.5 -35t19.5 -35h-350zM455 745h166q256 0 256 211q0 101 -61.5 143t-194.5 42h-166v-396z" />
<glyph unicode="S" horiz-adv-x="1208" d="M602 -25q-131 0 -268 51t-244 142q82 98 123 149q9 12 26.5 33.5t26.5 32.5q78 -63 169.5 -103t174.5 -40q199 0 199 141q0 50 -34.5 78t-119.5 65l-18 11q-4 0 -6 2q-2 1 -9.5 3t-9.5 3l-12 6l-180 76q-119 46 -196 140.5t-77 233.5q0 174 140.5 295t351.5 121 q118 0 235.5 -46.5t206.5 -129.5q-1 -1 -1 -2t-1 -2q-4 -9 -8 -12v2q-22 -29 -41 -51q-19 -24 -53 -68.5t-49 -63.5q-135 101 -289 101q-87 0 -134.5 -32t-47.5 -93q0 -24 10.5 -44.5t25 -34.5t42 -29t49 -24.5t59.5 -23.5q1 -1 9 -3.5t12 -4.5q12 -4 16 -6q16 -8 88 -35 q15 -7 55 -20q3 -1 10.5 -4t13 -5t9.5 -4q268 -131 268 -372q0 -87 -35.5 -165t-101 -138t-165.5 -95t-220 -35zM270 395l-6 2v-4l6 -2v4z" />
<glyph unicode="T" horiz-adv-x="1236" d="M461 1126h-381v265h1075v-265h-373v-1126h-321v1126z" />
<glyph unicode="U" horiz-adv-x="1380" d="M145 1391h308v-775q0 -203 58.5 -289.5t184.5 -86.5q128 0 189 87t61 289v775h303v-742q0 -348 -136.5 -511t-416.5 -163q-277 0 -414 163t-137 511v742z" />
<glyph unicode="V" horiz-adv-x="1316" d="M53 1391h332l164 -637q32 -124 59 -254q21 -88 25 -105q2 -9 5 -27t5 -26q10 -45 12 -53h25q2 7 7 27.5t7 31.5q3 20 17 66q7 34 22 90q17 82 66 250q72 304 75 317q4 20 23 94q9 38 28 115t27 111h322q-16 -57 -70 -226q-52 -175 -84 -280q-18 -59 -58.5 -195.5 t-62.5 -208.5q-28 -95 -82 -273t-63 -208h-383q-21 72 -85 285t-99 331q-49 159 -117 388q-17 54 -56.5 186.5t-60.5 200.5z" />
<glyph unicode="W" horiz-adv-x="1794" d="M57 1391h328q2 -17 7 -52t7 -53q6 -38 15.5 -112.5t13.5 -102.5t13.5 -89t13.5 -93q3 -18 9 -65.5t9 -69.5q2 -24 7 -66.5t7 -60.5q1 -6 2.5 -20.5t2.5 -20.5l6 -56q3 -30 6 -57q1 -8 3 -28.5t3 -28.5q1 -7 4 -30.5t4 -37.5q0 -5 2.5 -25.5t3.5 -29.5h29q13 69 82 461 q20 88 45.5 197t56.5 241.5t47 198.5h265q2 -8 5 -24t5 -24q2 -7 6 -23.5t6 -23.5q82 -374 123 -542q20 -105 43 -234q11 -62 25 -131q1 -8 3.5 -26.5t2.5 -22.5q1 -9 4 -25t4 -22h24q6 48 7 57t2 27t2 26q18 169 41 351q7 54 24.5 161t24.5 156q24 167 49 320h297 q-80 -470 -131 -750q-102 -567 -117 -641h-397l-129 612q-30 117 -58 330h-24q-1 -5 -2 -16t-2 -15q-4 -20 -4 -26l-6 -43q-1 -3 -3.5 -14.5t-3.5 -18.5q-1 -5 -2 -15.5t-2 -15.5q-18 -116 -28 -166l-39 -178q-29 -156 -90 -434h-394q-182 995 -258 1391z" />
<glyph unicode="X" horiz-adv-x="1277" d="M444 711l-360 680h348l117 -256q15 -26 76 -168q3 -6 8 -21.5t8 -21.5q0 -4 3 -13.5t5 -11.5h23q68 180 94 236q24 65 51 129q24 59 25 63q5 17 26 64h330l-358 -697q49 -84 143 -260q9 -17 34 -64t38 -69q16 -29 127 -231q6 -13 20 -38.5t17 -31.5h-349q-18 36 -24 51 q-16 28 -25 53q-7 15 -23.5 50t-30.5 64t-26 50l-102 238h-25q-59 -154 -98 -238q-34 -71 -65 -147q-3 -7 -9.5 -20.5t-9.5 -20.5q-3 -6 -18 -41q-7 -14 -17 -39h-331z" />
<glyph unicode="Y" horiz-adv-x="1255" d="M471 487l-418 904h336q0 -11 8 -19q12 -31 49 -135t58 -158q18 -56 35 -94q4 -10 13.5 -36t12.5 -34q2 -6 6.5 -19t6.5 -19t7 -18.5t7 -18.5q1 -2 2 -7.5t2 -7.5q10 -40 22 -63h25q3 8 10 28t9 25q3 8 9 25.5t9 25.5q1 3 6 12.5t6 12.5q2 6 7.5 20.5t7.5 20.5 q35 95 57 147q6 15 12 33q10 30 12 35q10 29 34 89t32 83q20 46 29 72h327l-419 -904v-487h-320v487z" />
<glyph unicode="Z" horiz-adv-x="1210" d="M100 190l613 930h-549v271h940v-189l-612 -938h616v-264h-1008v190z" />
<glyph unicode="[" horiz-adv-x="651" d="M606 1464v-114l-241 -39v-1508l241 -41v-112h-485q-31 0 -31 37v1730q0 47 45 47h471z" />
<glyph unicode="\" horiz-adv-x="1024" d="M297 1450l637 -1731l-219 -81l-625 1695z" />
<glyph unicode="]" horiz-adv-x="694" d="M561 1464q24 0 34.5 -11t10.5 -36v-1730q0 -37 -31 -37h-485v112l242 41v1508l-242 39v114h4h467z" />
<glyph unicode="^" horiz-adv-x="923" d="M518 1333l322 -721h-205l-172 457l-170 -457h-209l315 721h119z" />
<glyph unicode="_" horiz-adv-x="1062" d="M117 -8h854v-201h-912z" />
<glyph unicode="`" horiz-adv-x="794" d="M412 1497l172 -309h-234l-260 309h322z" />
<glyph unicode="a" horiz-adv-x="1134" d="M709 102q-148 -127 -303 -127q-138 0 -226 92.5t-88 223.5q0 165 144 258.5t460 126.5q-6 83 -47.5 123.5t-132.5 40.5q-105 0 -274 -97l-17 35q-23 40 -26 51q-15 22 -21 41q-23 38 -45 80q243 133 457 133q204 0 313 -120t109 -361v-602h-258l-23 102h-22zM696 485 l-4 9q-160 -21 -229.5 -63.5t-69.5 -106.5q0 -113 123 -113q57 0 96.5 22t83.5 70v182z" />
<glyph unicode="b" horiz-adv-x="1228" d="M143 1497h308v-360l-9 -176q64 57 142 89.5t147 32.5q192 0 303 -144.5t111 -387.5q0 -133 -37.5 -244t-100.5 -182.5t-141.5 -110.5t-163.5 -39q-68 0 -140.5 36.5t-131.5 105.5h-22q-2 -8 -5.5 -25t-5.5 -24q-2 -12 -7.5 -35.5t-6.5 -26.5q0 -1 -1 -2t-1 -2 q-31 0 -119.5 -1t-118.5 -1v1497zM451 299l6 -12q68 -62 170 -62q87 0 142.5 81.5t55.5 240.5q0 287 -186 287q-107 0 -188 -99v-436z" />
<glyph unicode="c" horiz-adv-x="1054" d="M670 221q85 0 186 72q2 -4 6.5 -11.5t7.5 -13t4 -6.5q12 -20 32.5 -54t37.5 -62t33 -52q-76 -54 -172.5 -86.5t-171.5 -32.5q-232 0 -381.5 148.5t-149.5 404.5q0 128 46.5 234.5t124.5 175.5t178.5 107t210.5 38q84 0 163 -30t138 -76q-7 -7 -31 -43q-5 -5 -17 -23 q-26 -37 -43 -59q-8 -12 -24.5 -33t-24.5 -33q-75 52 -141 52q-120 0 -187 -84.5t-67 -225.5q0 -137 67 -222t175 -85zM987 90l6 8l-4 2l-6 -6z" />
<glyph unicode="d" horiz-adv-x="1245" d="M821 98l-8 -4q-133 -119 -281 -119q-195 0 -311.5 148.5t-116.5 404.5q0 125 37 231.5t98 176t138.5 108.5t159.5 39q83 0 145 -28.5t131 -87.5q-1 7 -2 30.5t-2 32.5q0 5 -1 14.5t-1 14.5q-4 54 -4 80v358h311v-1497h-254l-22 98h-17zM803 760l-6 14q-80 60 -174 60 q-88 0 -142.5 -76t-54.5 -223q0 -155 51.5 -232.5t149.5 -77.5q53 0 94 22.5t82 80.5v432z" />
<glyph unicode="e" horiz-adv-x="1124" d="M664 209q112 0 223 65q16 -29 50.5 -93t53.5 -97q-87 -50 -187 -79.5t-183 -29.5q-154 0 -276.5 64.5t-194.5 191.5t-72 297q0 125 42.5 231t113.5 176t162 109t190 39q144 0 247 -67.5t152 -180t49 -257.5q0 -54 -12 -129h-637q44 -240 279 -240zM1001 78l7 8l-4 2 l-7 -6zM760 631l8 4q0 101 -43 159t-133 58q-86 0 -141.5 -54t-69.5 -167h379z" />
<glyph unicode="f" horiz-adv-x="829" d="M813 1493l-61 -233q-63 18 -99 18q-64 0 -98.5 -36.5t-34.5 -121.5v-61h191v-240h-191v-819h-311v819h-146v228l146 10v53q0 88 20.5 159.5t65 129.5t123 90.5t186.5 32.5q124 0 209 -29zM754 1255l14 -6q-3 8 -12 11z" />
<glyph unicode="g" horiz-adv-x="1189" d="M723 190q200 0 302.5 -63t102.5 -199q0 -168 -165 -275.5t-439 -107.5q-93 0 -170.5 15.5t-138 46.5t-95 83t-34.5 120q0 123 154 210v17q-41 28 -68 74.5t-27 101.5q0 53 32.5 108t82.5 91v20q-60 42 -103.5 115t-43.5 153q0 94 36.5 169t99 120.5t141 69.5t167.5 24 q93 0 166 -24h389v-221h-182q47 -76 47 -148q0 -116 -57.5 -195.5t-150 -115t-212.5 -35.5q-65 0 -135 18q-20 -18 -28.5 -37t-8.5 -51q0 -45 37.5 -64.5t128.5 -19.5h172zM557 524q68 0 106.5 45t38.5 131q0 90 -38.5 134.5t-106.5 44.5t-107.5 -45t-39.5 -134 q0 -86 39.5 -131t107.5 -45zM557 -43q-113 0 -156 14q-55 -49 -55 -112q0 -59 63.5 -91t178.5 -32q105 0 174 37t69 94q0 55 -39.5 72.5t-129.5 17.5h-105z" />
<glyph unicode="h" horiz-adv-x="1230" d="M143 1497h310v-360l-17 -209q163 155 344 155q165 0 244.5 -111t79.5 -315v-657h-311v614q0 119 -33.5 164t-106.5 45q-60 0 -104.5 -25.5t-95.5 -84.5v-713h-310v1497z" />
<glyph unicode="i" horiz-adv-x="626" d="M311 1229q-75 0 -125.5 47t-50.5 117q0 69 50 113t126 44q80 0 132.5 -44t52.5 -113q0 -70 -52.5 -117t-132.5 -47zM162 1059h311v-1059h-311v1059z" />
<glyph unicode="j" horiz-adv-x="622" d="M307 1229q-76 0 -129 47t-53 117q0 68 53 112.5t129 44.5q83 0 134 -44t51 -113q0 -71 -51.5 -117.5t-133.5 -46.5zM158 1059h311v-1049q0 -71 -11.5 -132t-39 -117.5t-70.5 -96t-111 -63t-155 -23.5q-113 0 -184 25q6 25 18 71q2 7 7 25t7 25q27 101 29 108 q45 -10 74 -10q65 0 95 42t30 136v1059z" />
<glyph unicode="k" horiz-adv-x="1218" d="M143 1497h299v-854h23q10 15 14 19q52 60 76 92q24 33 55 69q67 86 193 236h325l-366 -436q19 -30 66 -102t71 -111l105 -168q31 -49 87.5 -135.5t69.5 -106.5h-336l-237 420l-146 -160v-260h-299v1497z" />
<glyph unicode="l" horiz-adv-x="657" d="M145 1497h312v-1167q0 -59 19 -84t44 -25h8q19 0 29 2q14 -93 39 -227q-56 -21 -162 -21q-155 0 -222 95t-67 272v1155z" />
<glyph unicode="m" horiz-adv-x="1835" d="M139 1059h254l23 -148q82 82 162 127t178 45q109 0 180.5 -45t114.5 -141q161 186 335 186q165 0 247.5 -111.5t82.5 -314.5v-657h-311v614q0 118 -32.5 163.5t-102.5 45.5q-98 0 -189 -110v-713h-311v614q0 118 -32.5 163.5t-102.5 45.5q-88 0 -184 -110v-713h-312v1059 z" />
<glyph unicode="n" horiz-adv-x="1230" d="M143 1059h250l23 -146q174 170 364 170q165 0 244.5 -111t79.5 -315v-657h-311v614q0 119 -34 164t-106 45q-59 0 -103.5 -25.5t-96.5 -84.5v-713h-310v1059z" />
<glyph unicode="o" horiz-adv-x="1202" d="M86 528q0 128 43 234.5t115.5 175.5t167 107t198.5 38q99 0 191 -38t164 -107t115.5 -175.5t43.5 -234.5q0 -127 -43.5 -233.5t-115.5 -175t-164 -106.5t-191 -38q-104 0 -198.5 38t-167 107t-115.5 175t-43 233zM410 528q0 -143 49.5 -225t150.5 -82q93 0 144 83.5 t51 223.5q0 141 -51 225.5t-144 84.5q-101 0 -150.5 -83t-49.5 -227z" />
<glyph unicode="p" horiz-adv-x="1228" d="M451 -88v-309h-308v1456h250l29 -109q72 61 154.5 97t156.5 36q192 0 302 -144.5t110 -389.5q0 -132 -37.5 -243t-100.5 -182t-142 -110t-163 -39q-63 0 -133 31.5t-129 85.5q0 -38 4 -96q0 -33 2 -43q0 -16 5 -41zM451 299l6 -12q68 -62 170 -62q87 0 142.5 81.5 t55.5 240.5q0 287 -186 287q-107 0 -188 -99v-436z" />
<glyph unicode="q" horiz-adv-x="1226" d="M797 80l-15 2q-57 -48 -127 -77.5t-139 -29.5q-195 0 -311.5 148.5t-116.5 404.5q0 125 37 231.5t98 176t138 108.5t159 39q89 0 156 -29.5t133 -97.5h18l9 41q0 7 4 15q1 4 2 11.5t2 10.5l6 25h248v-1456h-314v321zM784 760l-6 14q-77 60 -172 60q-88 0 -142 -75.5 t-54 -223.5q0 -310 200 -310q54 0 95 23t79 80v432z" />
<glyph unicode="r" horiz-adv-x="878" d="M119 0v1059h260l24 -205q65 112 150.5 170.5t167.5 58.5q77 0 123 -18q-2 -11 -7.5 -33t-7.5 -33l-12 -67l-18 -92q-1 -8 -4 -21t-4 -18q-3 0 -5 2h-10q-2 0 -4.5 1t-3.5 1q-45 10 -88 10q-42 0 -85 -18.5t-87.5 -66.5t-71.5 -120v-610h-317z" />
<glyph unicode="s" horiz-adv-x="1001" d="M483 -25q-89 0 -199.5 40.5t-197.5 101.5q48 66 104 151q5 8 15.5 22.5t15.5 22.5q133 -112 271 -112q76 0 108.5 23.5t32.5 70.5q0 46 -44 75t-136 60q-17 6 -41 16q-54 19 -99 45t-85.5 63t-63.5 89t-23 113q0 148 108 237.5t292 89.5q195 0 368 -127q-9 -12 -26.5 -36 t-26.5 -37q-18 -24 -33 -45q-26 -31 -35 -47q-1 -1 -4 -6.5t-4 -6.5q-129 80 -225 80q-127 0 -127 -84q0 -21 9 -38.5t22 -29t38.5 -24t47.5 -20t59 -19.5q25 -7 41 -14q57 -20 101.5 -43.5t87 -60t65.5 -89t23 -117.5q0 -152 -113.5 -248t-325.5 -96zM225 326l-6 2v-4l6 -2 v4z" />
<glyph unicode="t" horiz-adv-x="894" d="M225 819h-147v228l166 12q6 47 12 96q1 8 3 23.5t3 23.5t4 28.5t4 31.5q2 11 5.5 38t5.5 41h256v-282h260v-240h-260v-424q0 -93 39.5 -136.5t107.5 -43.5q36 0 98 16q12 -36 17 -73l6 -37q2 -8 5 -24.5t5 -24.5q2 -13 7.5 -36t6.5 -30q-107 -31 -231 -31 q-195 0 -284 110t-89 304v430z" />
<glyph unicode="u" horiz-adv-x="1222" d="M139 1059h312v-615q0 -119 31 -163.5t108 -44.5q60 0 101.5 27t88.5 93v703h314v-1059h-254l-23 150h-22q-75 -88 -152.5 -131.5t-181.5 -43.5q-165 0 -243.5 112t-78.5 316v656z" />
<glyph unicode="v" horiz-adv-x="1173" d="M57 1059h316q48 -187 76 -281q5 -18 38 -153q3 -12 15 -54q14 -72 47 -176q3 -12 11 -40t11 -40q1 -9 11 -43q2 -7 5 -23t5 -22h24q11 57 54 244l6 31q1 5 4 15t4 15l6 19q0 1 1 3.5t1 4.5q0 6 2 10q8 31 25.5 91t21.5 75l19 70q8 28 27.5 97t29.5 106q4 16 14 51h295 l-174 -531l-43 -135q-37 -112 -125 -393h-368q-25 71 -74 215q-13 38 -38 112t-36 109l-78 234q-77 230 -133 389z" />
<glyph unicode="w" horiz-adv-x="1710" d="M74 1059h317q20 -113 45 -236q12 -71 47 -241q1 -6 6 -41q1 -6 2.5 -19.5t2.5 -19.5q3 -18 6 -39q1 -6 3 -23t3 -24q10 -88 22 -168h29q1 6 3 18.5t3 18.5q5 35 6 41q4 27 9 45q2 12 10 45q6 34 35 166q7 35 16 75t20 89t17 77q7 31 27 112t30 124h275q19 -77 55 -238.5 t55 -238.5l19 -80q0 -3 1 -9t1 -8l24 -110q13 -51 17 -74q4 -38 8 -53h29q13 93 22 172q0 10 4 26q1 4 2 14t2 15q5 41 17 107q10 58 45 241q2 13 47 236h293q-152 -621 -254 -1059h-371q-16 78 -57 238q-2 13 -8 33t-7 26q-1 4 -26 113l-13 67l-12 80q-2 11 -5 33.5 t-5 32.5q-14 76 -17 104h-24q-1 -4 -2 -14.5t-2 -14.5q-4 -16 -4 -24q-4 -43 -8 -56q-21 -110 -23 -120q-7 -54 -14 -88q-18 -88 -39 -177q-1 -5 -4 -16t-4 -16q-19 -76 -39 -176l-6 -25h-361q-15 61 -94 375q-12 47 -78.5 301t-97.5 383z" />
<glyph unicode="x" horiz-adv-x="1150" d="M393 555l-309 504h332q29 -48 86 -164l6 -12l29 -58q31 -41 61 -123h25q20 73 34 107q3 3 9 20q16 46 24 66q4 9 11.5 28.5t11.5 28.5q28 73 43 107h323l-301 -553l43 -68q15 -25 43 -67q19 -29 58.5 -94.5t58.5 -94.5q62 -100 117 -182h-334q-2 6 -12.5 23t-12.5 22 q-14 23 -73 123v-2q-28 52 -95 194h-32q-13 -34 -23 -57v2q-1 -1 -1 -3t-1 -3q-6 -18 -12 -33q-7 -21 -23 -53q-2 -5 -7 -15.5t-7 -15.5q-4 -12 -6 -16t-6.5 -13.5t-6.5 -13.5t-5 -12t-5 -12q-14 -34 -49 -107l-4 -8h-317z" />
<glyph unicode="y" horiz-adv-x="1136" d="M121 -403l65 239q30 -10 60 -10q80 0 124 36.5t66 104.5l17 56q-50 122 -207 520q-4 11 -24.5 61.5t-31.5 77.5q-74 194 -153 377h319q4 -13 29.5 -96t40.5 -125q44 -147 72 -224q3 -14 10 -32q10 -30 10 -31q2 -6 7 -22.5t7 -22.5q40 -114 60 -205h20q4 8 4 12 q0 2 1 6.5t1 6.5q2 10 7 30q0 1 1 5.5t1 5.5l6 24q1 4 3 13.5t3 13.5q2 8 5 24.5t5 24.5q18 86 35 147q8 28 37 136q2 8 7.5 27.5t8.5 29.5q6 23 19.5 67.5t17.5 59.5q33 116 35 125h299q-99 -286 -238 -680q-106 -312 -133 -389q-175 -408 -467 -408q-90 0 -149 15z" />
<glyph unicode="z" horiz-adv-x="1073" d="M113 164l454 655h-397v240h780v-164l-450 -655h467v-240h-854v164z" />
<glyph unicode="{" horiz-adv-x="743" d="M252 1176q0 172 111.5 242.5t349.5 70.5v-143q-60 -12 -110.5 -36t-71.5 -42l-21 -17v-440q0 -50 -21.5 -94t-50 -71.5t-62.5 -48.5t-54 -29.5t-29 -10.5q9 -2 29 -11t54 -30.5t62.5 -48.5t50 -70.5t21.5 -91.5v-446q8 -7 23.5 -18.5t68.5 -36t111 -35.5v-142 q-239 0 -350 69.5t-111 242.5v428q0 28 -32 62.5t-64.5 56t-63.5 38.5q-2 6 -2 23v31q0 8 2 12q160 87 160 149v437z" />
<glyph unicode="|" horiz-adv-x="413" d="M90 1534l234 -39v-1937h-234v1976z" />
<glyph unicode="}" horiz-adv-x="802" d="M90 1489q238 0 349.5 -70.5t111.5 -242.5v-437q0 -62 160 -149q0 -2 1 -6t1 -6v-31l-2 -23q-31 -17 -63.5 -38.5t-64.5 -56t-32 -62.5v-428q0 -173 -111 -242.5t-350 -69.5v142q58 11 108.5 33.5t71.5 39.5l21 17v446q0 48 21.5 91.5t50.5 70.5t63 48.5t54.5 30.5 t29.5 11q-9 2 -29 10.5t-54.5 29.5t-63.5 48.5t-50.5 71.5t-21.5 94v440q-3 3 -8 7.5t-24 18t-40 25t-56 24t-73 20.5v143z" />
<glyph unicode="~" horiz-adv-x="1198" d="M86 971q78 71 150 102t157 31q52 0 116.5 -21.5t115.5 -48t112.5 -48t108.5 -21.5q124 0 266 139v-215q-93 -76 -157 -104.5t-136 -28.5q-52 0 -118 22t-117.5 48.5t-112.5 48.5t-104 22q-131 0 -281 -141v215z" />
<glyph unicode="&#xa1;" horiz-adv-x="512" d="M362 1106l31 -6q24 -155 19 -250l-6 -29l-236 -26l-35 8q3 123 -8 252l6 28zM371 700q13 -83 30 -238t17 -190v-270l-293 -18v241q0 32 10.5 129t23.5 202t15 122z" />
<glyph unicode="&#xa2;" horiz-adv-x="1054" d="M709 1092l94 -33l-88 -262q95 -33 148 -88t89 -162l-245 -31q-7 32 -20 52t-38 42l-149 -450q71 -18 135 22t82 125l250 -28q-18 -91 -66.5 -154.5t-120.5 -96.5t-156.5 -43.5t-183.5 -0.5l-94 -281l-96 33l92 272q-119 39 -185.5 145t-66.5 244q0 193 114.5 308.5 t303.5 115.5q30 0 106 -6zM553 641q-79 1 -132.5 -49.5t-69.5 -120.5t-1 -144.5t60 -119.5z" />
<glyph unicode="&#xa3;" horiz-adv-x="1079" d="M203 629q-39 128 -39 186q0 307 389 307q165 0 261 -63.5t126 -214.5l-246 -39q-38 145 -139 145q-55 0 -89 -36t-34 -93q13 -103 43 -192h232v-160h-207q7 -149 -99 -242q88 21 174 2q85 -15 142 -18q65 -7 94 -2q22 2 90 29l88 -197q-120 -57 -233 -57q-34 0 -73 6 t-65 12.5t-72.5 19.5t-70.5 19q-49 10 -88 10q-95 0 -217 -67l-82 190q162 117 162 246q0 26 -4 49h-158v160h115z" />
<glyph unicode="&#xa5;" horiz-adv-x="1337" d="M1163 1116l-258 -491h225v-154h-323v-100h323v-154h-323v-215h-270v215h-328v154h328v100h-328v154h231l-266 491h301l193 -409l192 409h303z" />
<glyph unicode="&#xa8;" horiz-adv-x="1245" d="M385 1165q-64 0 -105.5 42.5t-41.5 105.5t41.5 105t105.5 42t105.5 -42t41.5 -105t-41.5 -105.5t-105.5 -42.5zM795 1165q-64 0 -105 42t-41 106q0 63 41 105t105 42q65 0 106 -41.5t41 -105.5t-41 -106t-106 -42z" />
<glyph unicode="&#xa9;" horiz-adv-x="1699" d="M850 1358q185 0 346.5 -94t255.5 -254q92 -164 92 -346q0 -188 -93.5 -349t-252.5 -254q-168 -94 -348 -94q-186 0 -347 93.5t-255 254.5q-92 160 -92 349q0 183 93.5 345.5t252.5 254.5q163 94 348 94zM850 1223q-152 0 -281 -74.5t-204.5 -203.5t-75.5 -281 q0 -153 75.5 -282.5t204.5 -204.5t281 -75t280.5 75t203.5 204.5t75 282.5q0 114 -44 217.5t-119 178.5t-178.5 119t-217.5 44zM1198 532q-80 -262 -344 -262q-168 0 -273.5 109t-105.5 285q0 168 108 278.5t271 110.5q131 0 222 -69t114 -183l-178 -29q-34 148 -166 148 q-74 0 -120 -63.5t-46 -186.5q0 -267 166 -267q60 0 103 43t63 132z" />
<glyph unicode="&#xae;" horiz-adv-x="1230" d="M614 1448q96 0 181.5 -38.5t144.5 -102t93 -145.5t34 -167q0 -118 -60.5 -226t-164.5 -165q-106 -59 -228 -59q-118 0 -225 60.5t-166 166.5q-59 104 -59 223q0 120 61.5 227.5t167.5 166.5t221 59zM614 1360q-161 0 -262.5 -107t-101.5 -258q0 -106 54.5 -191.5 t137.5 -130t172 -44.5q106 0 192 53.5t131.5 136.5t45.5 176q0 109 -55 194t-138 128t-176 43zM586 1235q108 0 159.5 -39t51.5 -96q0 -49 -32.5 -88t-86.5 -54q9 -8 17 -15.5t14.5 -13.5t15 -17.5t14 -18.5t18 -26t20.5 -31t27.5 -41t33.5 -50h-113l-45 78q-48 89 -80 111 q-17 12 -94 12v-201h-90v490h170zM594 1022q60 0 84 18t24 52q0 67 -114 67h-82v-137h88z" />
<glyph unicode="&#xb4;" horiz-adv-x="1245" d="M647 1378h-227l180 312h303z" />
<glyph unicode="&#xb8;" horiz-adv-x="1245" d="M510 8h182l-41 -94q119 -42 119 -154q0 -68 -52.5 -116t-132.5 -71t-184 -28l-22 125q168 18 168 88q0 28 -26.5 49t-92.5 37z" />
<glyph unicode="&#xbf;" horiz-adv-x="929" d="M379 1092l227 -25l4 -29q-8 -180 -6 -252l-35 -8l-233 29l-6 27q-3 107 16 249zM844 98q-59 -60 -153 -96.5t-204 -36.5q-198 0 -301.5 79.5t-103.5 207.5q0 67 28 116.5t70.5 81.5t87 61t84.5 71.5t56 95.5l122 -14q6 -47 -0.5 -88.5t-25.5 -77t-35.5 -58.5t-44.5 -55 q-68 -79 -68 -133q0 -51 32.5 -84t98.5 -33q78 0 136 58l22 88h199v-183z" />
<glyph unicode="&#x2c6;" horiz-adv-x="1245" d="M465 1485h250l196 -309h-211l-106 157h-8l-107 -157h-209z" />
<glyph unicode="&#x2da;" horiz-adv-x="1245" d="M590 1122q-105 0 -169.5 58.5t-64.5 154.5q0 95 64.5 153t169.5 58t170 -58t65 -153q0 -96 -65 -154.5t-170 -58.5zM590 1239q34 0 58 27t24 69q0 41 -24 68t-58 27t-58 -27t-24 -68q0 -42 24 -69t58 -27z" />
<glyph unicode="&#x2dc;" horiz-adv-x="1245" d="M246 1178q15 138 72.5 210t142.5 72q48 0 96 -22.5t86.5 -45t61.5 -22.5q27 0 43 20t28 70h158q-14 -140 -72 -211t-143 -71q-47 0 -95.5 22.5t-87 45t-61.5 22.5q-27 0 -43 -20.5t-26 -69.5h-160z" />
<glyph unicode="&#x5b0;" d="M322 -270q0 -25 -23 -50.5t-53 -25.5q-27 0 -51.5 21.5t-24.5 54.5q0 24 24 48.5t52 24.5t52 -21.5t24 -51.5zM322 -502q0 -26 -22.5 -49.5t-53.5 -23.5q-26 0 -51 22t-25 51q0 28 23.5 53t52.5 25q27 0 51.5 -24t24.5 -54z" />
<glyph unicode="&#x5b1;" d="M322 -270q0 -25 -24 -50.5t-54 -25.5q-27 0 -50.5 21.5t-23.5 54.5q0 25 23 49t51 24q27 0 52.5 -22t25.5 -51zM543 -270q0 -26 -21 -51t-51 -25t-54 21.5t-24 54.5q0 26 22.5 49.5t55.5 23.5q24 0 48 -22t24 -51zM784 -270q0 -25 -22.5 -50.5t-50.5 -25.5 q-29 0 -53.5 21.5t-24.5 54.5q0 25 23.5 49t54.5 24q26 0 49.5 -22t23.5 -51zM432 -498q0 -26 -21.5 -49.5t-52.5 -23.5q-28 0 -51.5 21t-23.5 52q0 29 22.5 52.5t52.5 23.5q25 0 49.5 -23t24.5 -53zM784 -502q0 -26 -22.5 -49.5t-50.5 -23.5t-53 22t-25 51t23.5 53.5 t54.5 24.5q26 0 49.5 -24t23.5 -54z" />
<glyph unicode="&#x5b2;" d="M711 -270q0 -25 -24.5 -50.5t-53.5 -25.5q-25 0 -50.5 22t-25.5 54q0 25 23.5 49t52.5 24q28 0 53 -22t25 -51zM492 -225v-82h-322v82h322zM711 -502q0 -26 -24 -49.5t-54 -23.5q-24 0 -50 22t-26 51t23 53.5t53 24.5q27 0 52.5 -24t25.5 -54z" />
<glyph unicode="&#x5b3;" d="M756 -270q0 -25 -22.5 -50.5t-51.5 -25.5q-28 0 -53 21.5t-25 54.5q0 25 23.5 49t54.5 24q26 0 50 -22t24 -51zM530 -225v-82h-159q37 -129 37 -164l-2 -61h-113l-2 61q0 16 8.5 57t17.5 74l9 33h-156v82h360zM756 -502q0 -26 -22 -49.5t-52 -23.5q-27 0 -52.5 22 t-25.5 51t23.5 53.5t54.5 24.5q26 0 50 -24t24 -54z" />
<glyph unicode="&#x5b4;" d="M322 -270q0 -25 -23 -50.5t-53 -25.5q-27 0 -51.5 21.5t-24.5 54.5q0 24 24 48.5t52 24.5t52 -21.5t24 -51.5z" />
<glyph unicode="&#x5b5;" d="M322 -270q0 -25 -24 -50.5t-54 -25.5q-27 0 -50.5 21.5t-23.5 54.5q0 25 23 49t51 24q27 0 52.5 -22t25.5 -51zM543 -270q0 -26 -21 -51t-51 -25t-54 21.5t-24 54.5q0 26 22.5 49.5t55.5 23.5q24 0 48 -22t24 -51z" />
<glyph unicode="&#x5b6;" d="M322 -270q0 -25 -24 -50.5t-54 -25.5q-27 0 -50.5 21.5t-23.5 54.5q0 25 23 49t51 24q27 0 52.5 -22t25.5 -51zM543 -270q0 -26 -21 -51t-51 -25t-54 21.5t-24 54.5q0 26 22.5 49.5t55.5 23.5q24 0 48 -22t24 -51zM432 -498q0 -26 -21.5 -49.5t-52.5 -23.5 q-28 0 -51.5 21t-23.5 52q0 29 22.5 52.5t52.5 23.5q25 0 49.5 -23t24.5 -53z" />
<glyph unicode="&#x5b7;" d="M537 -225v-82h-383v82h383z" />
<glyph unicode="&#x5b8;" d="M547 -225v-82h-176q37 -129 37 -164l-2 -61h-113l-2 61q0 16 8.5 57t17.5 74l9 33h-172v82h393z" />
<glyph unicode="&#x5b9;" d="M322 1300q0 -28 -23.5 -52.5t-54.5 -24.5q-26 0 -50 23t-24 54q0 26 23 50t51 24q29 0 53.5 -21.5t24.5 -52.5z" />
<glyph unicode="&#x5ba;" d="M322 459q0 -28 -23.5 -53t-54.5 -25q-26 0 -50 24t-24 54q0 26 23 51t51 25q29 0 53.5 -23t24.5 -53z" />
<glyph unicode="&#x5bb;" d="M465 -270q0 -25 -23.5 -50.5t-52.5 -25.5q-27 0 -50.5 21.5t-23.5 54.5q0 25 22.5 49t51.5 24q26 0 51 -22t25 -51zM602 -444q0 -24 -24 -48t-54 -24q-26 0 -50.5 22.5t-24.5 49.5q0 29 22.5 53t52.5 24q28 0 53 -23t25 -54zM735 -614q0 -24 -24 -49t-54 -25 q-26 0 -49.5 22t-23.5 52q0 26 22.5 49.5t50.5 23.5q29 0 53.5 -21t24.5 -52z" />
<glyph unicode="&#x5bc;" d="M322 551q0 -28 -23.5 -53t-54.5 -25q-26 0 -50 23.5t-24 54.5q0 26 23 50t51 24t53 -22.5t25 -51.5z" />
<glyph unicode="&#x5be;" horiz-adv-x="563" d="M82 1110l131 -20h268v-207h-319l-121 22z" />
<glyph unicode="&#x5bf;" d="M516 1360v-98h-453v98h453z" />
<glyph unicode="&#x5c1;" d="M225 1300q0 -27 -24 -52t-54 -25q-27 0 -51 23t-24 54q0 26 22.5 50t52.5 24q29 0 53.5 -21.5t24.5 -52.5z" />
<glyph unicode="&#x5c2;" d="M428 1300q0 -27 -23 -52t-53 -25q-28 0 -52 23t-24 54q0 26 22.5 50t53.5 24q29 0 52.5 -21.5t23.5 -52.5z" />
<glyph unicode="&#x5c7;" d="M434 -225v-82h-110q34 -129 34 -164l-2 -61h-112l-2 61q0 16 8.5 57t17.5 74l8 33h-106v82h264z" />
<glyph unicode="&#x5d0;" horiz-adv-x="1245" d="M100 952l183 201q237 -220 475 -491q0 81 28.5 219.5t75.5 257.5l305 -97q-126 -240 -262 -548q26 -35 91 -118.5t107 -140t73 -104.5l-236 -166q-281 418 -512 649q-72 -168 -43 -397l117 -14l-10 -203h-383q-17 122 -12.5 227t17.5 173t31 108q34 82 142 252 q-71 76 -187 192z" />
<glyph unicode="&#x5d1;" horiz-adv-x="1114" d="M930 217l129 -14l-8 -203h-965v213h557q-2 2 -16 32t-28.5 71t-14.5 61v340q0 95 -39 139.5t-103 44.5h-235l-123 25l43 211l133 -21h287q105 0 175.5 -27t107.5 -80.5t51 -118t14 -155.5v-284q0 -95 6.5 -144.5t28.5 -89.5z" />
<glyph unicode="&#x5d2;" horiz-adv-x="917" d="M147 926l43 211l361 -43q170 -30 188 -228l17 -207q3 -30 10 -107.5t12 -119.5q13 -60 50 -216.5t49 -215.5h-299l-54 297h-10q-47 -103 -61 -121q-16 -27 -71 -90t-102 -112l-47 -50l-180 215l414 393l-33 357z" />
<glyph unicode="&#x5d3;" horiz-adv-x="1126" d="M63 926l46 211l129 -21h804l21 -198l-199 -29q-26 -23 -26 -84v-805h-314v647q0 69 82 254h-418z" />
<glyph unicode="&#x5d4;" horiz-adv-x="1218" d="M762 1116q103 0 172.5 -27t105.5 -80.5t50 -118t14 -155.5v-735h-309v717q0 95 -40 139.5t-104 44.5h-415l-125 25l43 211l131 -21h477zM432 0h-293v434q0 16 17.5 73.5t35.5 106.5l17 50l223 -17v-647z" />
<glyph unicode="&#x5d5;" horiz-adv-x="698" d="M119 1137l348 -58q47 -6 76.5 -51t29.5 -125v-903h-311v887l-186 39z" />
<glyph unicode="&#x5d6;" horiz-adv-x="872" d="M113 1137l131 -21h542l19 -198l-227 -29q-29 -86 -30 -195.5t21 -244.5l70 -449h-313l-84 567q-7 88 88 334h-137l-125 25z" />
<glyph unicode="&#x5d7;" horiz-adv-x="1249" d="M88 926l43 211l133 -21h522q105 0 176 -27t108.5 -80.5t52 -118t14.5 -155.5v-735h-310v717q0 96 -39 140t-104 44h-188q-41 -169 -41 -262v-639h-303v641q0 66 75 260h-14z" />
<glyph unicode="&#x5d8;" horiz-adv-x="1286" d="M53 926l45 211l267 -31q35 -4 53 -29.5t18 -60.5v-418q0 -85 84 -393h139q76 0 130 64t77 153t23 188v199q0 109 -74 109h-12l-115 -254l-129 43l111 411h166q195 0 275.5 -93.5t80.5 -268.5v-129q0 -67 -9 -134t-29.5 -140t-57.5 -134.5t-88 -111.5t-127 -78.5 t-168 -28.5h-430q-136 459 -136 516v385z" />
<glyph unicode="&#x5d9;" horiz-adv-x="737" d="M459 346l-232 60q103 291 103 468q0 11 -2 15l-262 37l40 213l361 -39q83 -13 131.5 -73t48.5 -148q0 -93 -63 -261t-125 -272z" />
<glyph unicode="&#x5da;" horiz-adv-x="1028" d="M109 1137l131 -21h317q85 0 147.5 -18.5t101 -50t61.5 -80.5t31.5 -103.5t8.5 -126.5v-1030l23 -133l-309 -31l-23 109v1069q0 180 -143 180h-267l-125 25z" />
<glyph unicode="&#x5db;" horiz-adv-x="1032" d="M88 926l33 211l131 -21h289q206 0 294.5 -97.5t88.5 -277.5v-249q0 -77 -11.5 -144.5t-41 -133t-76 -111.5t-121.5 -74.5t-172 -28.5h-414v213h305q217 0 217 260v248q0 94 -42.5 137t-108.5 43h-258z" />
<glyph unicode="&#x5dc;" horiz-adv-x="1087" d="M76 1450l297 33l20 -113v-254h574l45 -192l-410 -924h-340l340 725q14 31 38.5 76.5t41.5 75.5l18 30q-59 -6 -118 -6h-435q-23 0 -37 16t-14 39v363z" />
<glyph unicode="&#x5dd;" horiz-adv-x="1296" d="M129 1139l131 -23h580q107 0 177 -22t107.5 -69t51.5 -107.5t14 -151.5v-766h-1004v713q0 12 9.5 43t27.5 83t21 62h-17l-143 31zM877 717q0 184 -142 184h-237v-688h379v504z" />
<glyph unicode="&#x5de;" horiz-adv-x="1261" d="M119 1137l131 -21h477q206 0 314 -122t108 -332v-461q0 -24 -6.5 -74.5t-13.5 -88.5l-7 -38h-504v213h220v492q0 97 -50.5 146.5t-128.5 49.5h-84q-58 -139 -73 -264l-76 -637h-303l76 643q5 50 40.5 123t75.5 135h-116l-125 25z" />
<glyph unicode="&#x5df;" horiz-adv-x="696" d="M68 926l43 211l362 -58q40 -65 69 -166t29 -198v-1008l25 -133l-311 -31l-23 109v1237z" />
<glyph unicode="&#x5e0;" horiz-adv-x="808" d="M145 926l45 211l406 -58q40 -65 69 -166t29 -198v-514q0 -24 -6.5 -74.5t-13.5 -88.5l-6 -38h-594v213h309v512q0 48 -6 89t-11 58l-6 17z" />
<glyph unicode="&#x5e1;" horiz-adv-x="1222" d="M119 1137l133 -21h528q105 0 176 -27t108 -80.5t51.5 -118t14.5 -155.5v-227q0 -82 -15 -155.5t-51.5 -142.5t-91.5 -119t-141 -80.5t-194 -30.5q-125 0 -222.5 44.5t-155 120t-87 167.5t-29.5 196v94q0 29 25.5 104t51.5 135l26 60h-47l-123 25zM821 717q0 96 -39 140 t-104 44h-160q-40 -83 -54.5 -143t-14.5 -137v-179q3 -122 55 -188t133 -66q83 0 133 67t51 208v254z" />
<glyph unicode="&#x5e2;" horiz-adv-x="1216" d="M76 926l43 211l246 -39q70 -12 88 -78l110 -563q12 -53 64 -172q63 40 96.5 111t48.5 190l33 530h319q-18 -322 -51 -538q-30 -207 -138 -339.5t-290 -207.5q-74 -29 -204.5 -62.5t-224.5 -52.5l-93 -18l-55 208l358 103q-120 161 -133 213l-109 483z" />
<glyph unicode="&#x5e3;" horiz-adv-x="1146" d="M143 1137l129 -21h654q36 -55 71 -177.5t35 -223.5v-1008l23 -133l-312 -31l-24 109v1249h-260q-51 -124 -51 -317l108 -29l-37 -158l-198 21l-162 -10q-4 39 0.5 111.5t11.5 117.5q4 27 34 123t52 141l-106 25z" />
<glyph unicode="&#x5e4;" horiz-adv-x="1179" d="M115 926l30 211l134 -21h688q33 -55 64.5 -177.5t31.5 -223.5v-223q0 -77 -11.5 -144.5t-41 -133t-76 -111.5t-121 -74.5t-170.5 -28.5h-491v213h393q215 0 215 260v428h-297q-51 -117 -51 -262l110 -31l-35 -155l-215 24l-143 -14q-14 74 8 219q3 25 31.5 101t52.5 118z " />
<glyph unicode="&#x5e5;" horiz-adv-x="1191" d="M449 997l184 -497q8 38 24.5 106t28.5 119.5t14 62.5q16 66 53 180.5t68 172.5l309 -117q-70 -123 -194.5 -370t-196.5 -404l219 -479l70 -115l-252 -141l-61 94l-535 1280l-119 29l52 219l249 -56q58 -13 87 -84z" />
<glyph unicode="&#x5e6;" horiz-adv-x="1179" d="M111 1137l237 -56q64 -20 88 -84q89 -247 207 -409q2 21 37 203q15 63 52 177.5t67 172.5l309 -117q-85 -138 -189.5 -326t-136.5 -272q127 -142 265 -262l-33 -164h-912v213h553q-151 121 -278.5 295.5t-206.5 382.5l-102 24z" />
<glyph unicode="&#x5e7;" horiz-adv-x="1271" d="M156 1137l133 -21h868l43 -192l-379 -924h-311l283 725q14 31 39 76t43 75l18 29q-62 -4 -117 -4h-538l-125 25zM150 434q0 16 17 73.5t35 106.5l17 50l225 -17v-940l23 -133l-293 -31l-24 109v782z" />
<glyph unicode="&#x5e8;" horiz-adv-x="1046" d="M113 1137l129 -21h340q71 0 126.5 -12.5t93.5 -37t64 -56.5t40 -76.5t20 -91.5t6 -107v-735h-314v717q0 184 -143 184h-285l-122 25z" />
<glyph unicode="&#x5e9;" horiz-adv-x="1646" d="M70 926l43 211l272 -33q35 -4 53.5 -30t16.5 -60v-404q0 -69 18 -189t47 -216h137q19 119 19 266v645h285v-502q0 -277 -70 -409h43q60 0 107 21t76 59.5t48.5 81t28.5 96.5t12.5 95.5t3.5 86.5v471h306v-487q-1 -88 -18 -173t-57 -168.5t-98.5 -146.5t-148.5 -102 t-201 -39h-698q-38 115 -81.5 293t-43.5 233v381z" />
<glyph unicode="&#x5ea;" horiz-adv-x="1325" d="M174 1137l131 -21h557q85 0 147.5 -18.5t101 -50t61 -81.5t30.5 -104.5t8 -126.5v-735h-311v717q0 96 -38.5 140t-102.5 44h-203q-47 -141 -49.5 -238.5t33.5 -287.5l43 -203l-35 -172h-479l-9 203l199 12l-49 342q-10 49 28.5 150t92.5 194h-78l-123 25z" />
<glyph unicode="&#x5f0;" horiz-adv-x="1353" d="M467 1079q47 -6 76.5 -51t29.5 -125v-903h-311v887l-186 39l43 211zM1124 1079q47 -6 77 -51.5t30 -124.5v-903h-311v887l-187 39l43 211z" />
<glyph unicode="&#x5f1;" horiz-adv-x="1394" d="M227 406q103 291 103 468q0 11 -2 15l-262 37l40 213l361 -39q83 -13 131.5 -73t48.5 -148q0 -93 -63 -261t-125 -272zM1163 1079q47 -6 77 -51.5t30 -124.5v-903h-312v887l-186 39l43 211z" />
<glyph unicode="&#x5f2;" horiz-adv-x="1435" d="M227 406q103 291 103 468q0 11 -2 15l-262 37l40 213l361 -39q83 -13 131.5 -73t48.5 -148q0 -93 -63 -261t-125 -272zM924 406q102 288 102 468q0 11 -2 15l-262 37l41 213l360 -39q83 -13 131.5 -73t48.5 -148q0 -93 -63 -261t-125 -272z" />
<glyph unicode="&#x2012;" horiz-adv-x="1099" d="M94 618h912v-198h-912v198z" />
<glyph unicode="&#x2013;" horiz-adv-x="1202" d="M121 678l129 -21h850v-206h-901l-121 22z" />
<glyph unicode="&#x2014;" horiz-adv-x="1718" d="M121 684l149 -27h1346v-204h-1387l-151 24z" />
<glyph unicode="&#x2019;" horiz-adv-x="352" d="M86 1122l-12 463h205l-5 -151l-57 -312h-131z" />
<glyph unicode="&#x2020;" horiz-adv-x="1132" d="M705 1311v-348h342v-236h-342v-1079h-281v1079h-336v236h336v348h281z" />
<glyph unicode="&#x2021;" horiz-adv-x="1132" d="M702 1313v-309h345v-236h-345v-578h345v-233h-345v-309h-278v309h-336v233h336v578h-336v236h336v309h278z" />
<glyph unicode="&#x2022;" horiz-adv-x="897" d="M307 778l334 -39l8 -39q8 -143 -22 -356l-47 -10l-324 33l-8 41q13 206 10 358z" />
<glyph unicode="&#x2026;" horiz-adv-x="1394" d="M131 301l236 -29l6 -28q3 -102 -17 -250l-32 -6l-228 24l-6 29q8 117 8 252zM598 301l236 -29l4 -28q8 -93 -17 -250l-30 -6l-230 24l-4 29q9 135 6 252zM1065 301l233 -29l7 -28q3 -102 -17 -250l-33 -6l-229 24l-4 29q8 117 8 252z" />
<glyph unicode="&#x2030;" horiz-adv-x="2172" d="M915 778v-4q52 19 107 19q138 0 217.5 -96t79.5 -251q0 -164 -82 -249.5t-223 -85.5q-94 0 -165.5 47.5t-103.5 136.5l-106 -297l-199 53l146 408q-50 -13 -103 -13q-131 0 -210.5 88t-79.5 250q0 169 84.5 255.5t216.5 86.5q96 0 165 -46.5t103 -129.5l102 287l185 -86z M492 553q100 0 100 227q0 109 -27 169.5t-73 60.5q-101 0 -101 -230q0 -227 101 -227zM1020 221q100 0 100 223q0 110 -26.5 171t-73.5 61t-73.5 -61.5t-26.5 -170.5q0 -223 100 -223zM1819 649q139 0 217 -94.5t78 -249.5q0 -165 -82.5 -250.5t-223.5 -85.5 q-129 0 -209.5 87t-80.5 249q0 167 84.5 255.5t216.5 88.5zM1815 80q102 0 102 225q0 108 -27.5 169t-74.5 61q-46 0 -73.5 -61.5t-27.5 -168.5q0 -225 101 -225z" />
<glyph unicode="&#x2044;" horiz-adv-x="493" d="M348 1141l154 -86l-344 -969l-166 53z" />
<glyph unicode="&#x20ac;" horiz-adv-x="1157" d="M231 717q91 407 541 407q147 0 279 -73l-58 -230q-103 86 -215 86q-97 0 -161 -52t-87 -138h332l-28 -113h-322q-10 -42 -2 -110h326l-25 -115h-289q25 -98 89 -146.5t155 -48.5q157 0 287 92v-239q-106 -70 -267 -70q-132 0 -234.5 34.5t-166.5 94t-101 130t-51 153.5 h-133l31 115h84v110h-100l30 113h86z" />
<glyph unicode="&#x2122;" horiz-adv-x="1601" d="M694 1337v-137h-209v-475h-161v475h-207v137h577zM1438 1337v-612h-152v428l-121 -428h-127l-120 430v-430h-154v612h240l98 -362l104 362h232z" />
<glyph unicode="&#xe000;" horiz-adv-x="1054" d="M0 1055h1055v-1055h-1055v1055z" />
<glyph unicode="&#xfb00;" horiz-adv-x="1443" d="M842 1061q0 187 96.5 291t284.5 104q106 0 204 -35l-55 -231q-47 20 -104 20q-56 0 -84.5 -32.5t-28.5 -106.5v-53h180v-246h-180v-772h-313v772h-340v-772h-314v772h-135v234l135 10v39q0 184 100.5 282.5t291.5 98.5q126 0 213 -37l-56 -230q-49 21 -119 21 q-52 0 -84 -33.5t-32 -99.5v-39h340v43z" />
<glyph unicode="&#xfb20;" horiz-adv-x="1179" d="M111 1139l235 -37q71 -8 88 -78l94 -578q28 -141 70 -233q58 14 86 75t43 173l55 655h312l-66 -635q-7 -70 -25 -134t-54.5 -128.5t-87 -112t-128 -77t-172.5 -29.5h-481v209h311q-107 155 -117 199l-100 507l-106 19z" />
<glyph unicode="&#xfb21;" horiz-adv-x="2029" d="M186 1133q243 -103 616.5 -301t643.5 -375q4 118 63 309.5t136 370.5l305 -97q-61 -116 -175.5 -344.5t-162.5 -333.5l338 -223l-162 -209q-324 209 -763 470t-587 327q-33 -71 -49.5 -172t-16 -184t6.5 -154l125 -16l-8 -201h-396q-12 106 -12.5 187.5t9.5 153t37 143 t63.5 141t95.5 163.5q-72 36 -219 103z" />
<glyph unicode="&#xfb22;" horiz-adv-x="1822" d="M98 1137l131 -21h1520l18 -198l-227 -29q-24 -24 -24 -86v-803h-314v647q0 16 4.5 39t10.5 43t16 49t16.5 45t18 44.5t14.5 35.5h-1106l-121 23z" />
<glyph unicode="&#xfb23;" horiz-adv-x="2021" d="M131 1137l133 -21h1315q85 0 148 -18.5t101.5 -50.5t61 -82t31 -104.5t8.5 -127.5v-733h-311v717q0 96 -39 141t-104 45h-1262l-123 23zM117 434q0 16 17 73.5t34 106.5l18 50l226 -17v-647h-295v434z" />
<glyph unicode="&#xfb24;" horiz-adv-x="1947" d="M115 1137l129 -21h1235q206 0 295.5 -97.5t89.5 -277.5v-249q0 -76 -11.5 -143.5t-41.5 -133t-76 -112t-120.5 -75t-170.5 -28.5h-1362v213h1249q217 0 217 260v248q0 95 -42.5 138.5t-108.5 43.5h-1204l-113 23z" />
<glyph unicode="&#xfb25;" horiz-adv-x="1937" d="M365 1483l22 -113v-254h1438l45 -194l-819 -922h-355l639 725q33 35 84.5 81.5t86.5 75.5l36 29q-98 -8 -153 -8h-1250q-22 0 -35.5 15t-13.5 36v365l-22 131z" />
<glyph unicode="&#xfb26;" horiz-adv-x="2072" d="M104 1137l134 -21h1402q106 0 176 -22t108 -69.5t52.5 -108t14.5 -150.5v-766h-1825v713q0 11 9 42.5t26.5 83.5t21.5 64h-20l-144 29zM1677 717q0 97 -38 141.5t-103 44.5h-1059v-690h1200v504z" />
<glyph unicode="&#xfb27;" horiz-adv-x="1777" d="M106 1137l130 -21h1101q86 0 149 -18.5t101.5 -50.5t61.5 -82t31 -104.5t8 -127.5v-733h-314v717q0 96 -38.5 141t-102.5 45h-1049l-125 23z" />
<glyph unicode="&#xfb28;" horiz-adv-x="2181" d="M174 1137l131 -21h1438q105 0 175.5 -27t107.5 -80.5t51 -118.5t14 -157v-733h-313v717q0 95 -39 140.5t-101 45.5h-1073q-47 -144 -50 -240.5t32 -289.5l43 -201l-37 -172h-485l-9 203l211 12l-53 342q-8 49 30.5 149t92.5 197h-88l-123 23z" />
<glyph unicode="&#xfb29;" horiz-adv-x="1103" d="M649 993v-346h357v-194h-908l47 194h310v346h194z" />
<glyph unicode="&#xfb2a;" horiz-adv-x="1646" d="M1368 1393q29 0 53.5 -21.5t24.5 -52.5q0 -27 -24 -52.5t-54 -25.5q-27 0 -51.5 23.5t-24.5 54.5q0 26 23 50t53 24zM113 1137l272 -33q35 -4 53.5 -30t16.5 -60v-404q0 -69 18 -189t47 -216h137q19 119 19 266v645h285v-502q0 -277 -70 -409h43q60 0 107 21t76 59.5 t48.5 81t28.5 96.5t12.5 95.5t3.5 86.5v471h306v-487q-1 -88 -18 -173t-57 -168.5t-98.5 -146.5t-148.5 -102t-201 -39h-698q-38 115 -81.5 293t-43.5 233v381l-100 19z" />
<glyph unicode="&#xfb2b;" horiz-adv-x="1646" d="M276 1393q29 0 53.5 -21.5t24.5 -52.5q0 -27 -24 -52.5t-54 -25.5q-27 0 -51 23.5t-24 54.5q0 26 22.5 50t52.5 24zM113 1137l272 -33q35 -4 53.5 -30t16.5 -60v-404q0 -69 18 -189t47 -216h137q19 119 19 266v645h285v-502q0 -277 -70 -409h43q60 0 107 21t76 59.5 t48.5 81t28.5 96.5t12.5 95.5t3.5 86.5v471h306v-487q-1 -88 -18 -173t-57 -168.5t-98.5 -146.5t-148.5 -102t-201 -39h-698q-38 115 -81.5 293t-43.5 233v381l-100 19z" />
<glyph unicode="&#xfb2c;" horiz-adv-x="1646" d="M1438 1319q0 -27 -24 -52.5t-54 -25.5q-27 0 -51.5 23.5t-24.5 54.5q0 26 23 50t53 24q29 0 53.5 -21.5t24.5 -52.5zM113 1137l272 -33q35 -4 53.5 -30t16.5 -60v-404q0 -69 18 -189t47 -216h137q19 119 19 266v645h285v-502q0 -277 -70 -409h43q60 0 107 21t76 59.5 t48.5 81t28.5 96.5t12.5 95.5t3.5 86.5v471h306v-487q-1 -88 -18 -173t-57 -168.5t-98.5 -146.5t-148.5 -102t-201 -39h-698q-38 115 -81.5 293t-43.5 233v381l-100 19zM1157 573q0 -28 -23.5 -52.5t-54.5 -24.5q-26 0 -49.5 23t-23.5 54q0 26 22.5 50t50.5 24t53 -22.5 t25 -51.5z" />
<glyph unicode="&#xfb2d;" horiz-adv-x="1646" d="M1440 1319q0 -27 -24 -52.5t-54 -25.5q-27 0 -51.5 23.5t-24.5 54.5q0 26 23 50t53 24q29 0 53.5 -21.5t24.5 -52.5zM113 1137l272 -33q35 -4 53.5 -30t16.5 -60v-404q0 -69 18 -189t47 -216h137q19 119 19 266v645h285v-502q0 -277 -70 -409h43q60 0 107 21t76 59.5 t48.5 81t28.5 96.5t12.5 95.5t3.5 86.5v471h306v-487q-1 -88 -18 -173t-57 -168.5t-98.5 -146.5t-148.5 -102t-201 -39h-698q-38 115 -81.5 293t-43.5 233v381l-100 19zM1155 573q0 -28 -23.5 -52.5t-54.5 -24.5q-26 0 -49.5 23t-23.5 54q0 26 22.5 50t50.5 24t53 -22.5 t25 -51.5z" />
<glyph unicode="&#xfb2e;" horiz-adv-x="1245" d="M283 1153q237 -220 475 -491q0 81 28.5 219.5t75.5 257.5l305 -97q-126 -240 -262 -548q26 -35 91 -118.5t107 -140t73 -104.5l-236 -166q-281 418 -512 649q-72 -168 -43 -397l117 -14l-10 -203h-383q-17 122 -12.5 227t17.5 173t31 108q34 82 142 252q-71 76 -187 192z M813 -225v-82h-383v82h383z" />
<glyph unicode="&#xfb2f;" horiz-adv-x="1245" d="M283 1153q237 -220 475 -491q0 81 28.5 219.5t75.5 257.5l305 -97q-126 -240 -262 -548q26 -35 91 -118.5t107 -140t73 -104.5l-236 -166q-281 418 -512 649q-72 -168 -43 -397l117 -14l-10 -203h-383q-17 122 -12.5 227t17.5 173t31 108q34 82 142 252q-71 76 -187 192z M817 -225v-82h-176q37 -129 37 -164l-2 -61h-113l-2 61q0 16 8.5 57t17.5 74l9 33h-172v82h393z" />
<glyph unicode="&#xfb30;" horiz-adv-x="1245" d="M283 1153q237 -220 475 -491q0 81 28.5 219.5t75.5 257.5l305 -97q-126 -240 -262 -548q26 -35 91 -118.5t107 -140t73 -104.5l-236 -166q-281 418 -512 649q-72 -168 -43 -397l117 -14l-10 -203h-383q-17 122 -12.5 227t17.5 173t31 108q34 82 142 252q-71 76 -187 192z M582 338q0 29 -25 51.5t-53 22.5t-51 -24t-23 -50q0 -31 24 -54.5t50 -23.5q31 0 54.5 25t23.5 53z" />
<glyph unicode="&#xfb31;" horiz-adv-x="1114" d="M1059 203l-8 -203h-965v213h557q-2 2 -16 32t-28.5 71t-14.5 61v340q0 95 -39 139.5t-103 44.5h-235l-123 25l43 211l133 -21h287q105 0 175.5 -27t107.5 -80.5t51 -118t14 -155.5v-284q0 -95 6.5 -144.5t28.5 -89.5zM403 569q0 -28 -23 -52.5t-54 -24.5q-26 0 -50 23 t-24 54q0 26 23 50t51 24t52.5 -22.5t24.5 -51.5z" />
<glyph unicode="&#xfb32;" horiz-adv-x="929" d="M190 1137l361 -43q170 -30 188 -228l17 -207q3 -30 10 -107.5t12 -119.5q13 -60 50 -216.5t49 -215.5h-299l-54 297h-10q-47 -103 -61 -121q-16 -27 -71 -90t-102 -112l-47 -50l-180 215l414 393l-33 357l-287 37zM225 643q28 0 53 -22.5t25 -51.5q0 -28 -23.5 -52.5 t-54.5 -24.5q-26 0 -49.5 23t-23.5 54q0 26 22.5 50t50.5 24z" />
<glyph unicode="&#xfb33;" horiz-adv-x="1126" d="M109 1137l129 -21h804l21 -198l-199 -29q-26 -23 -26 -84v-805h-314v647q0 69 82 254h-418l-125 25zM279 643q28 0 52.5 -22.5t24.5 -51.5q0 -28 -23 -52.5t-54 -24.5q-26 0 -50 23t-24 54q0 26 23 50t51 24z" />
<glyph unicode="&#xfb34;" horiz-adv-x="1218" d="M154 1137l131 -21h477q103 0 172.5 -27t105.5 -80.5t50 -118t14 -155.5v-735h-309v717q0 95 -40 139.5t-104 44.5h-415l-125 25zM139 434q0 16 17.5 73.5t35.5 106.5l17 50l223 -17v-647h-293v434zM606 643q28 0 53 -22.5t25 -51.5q0 -28 -23.5 -52.5t-54.5 -24.5 q-26 0 -50 23t-24 54q0 26 23 50t51 24z" />
<glyph unicode="&#xfb35;" horiz-adv-x="702" d="M125 1137l348 -58q46 -6 76.5 -51.5t30.5 -124.5v-903h-312v887l-188 39zM115 643q28 0 53 -22.5t25 -51.5q0 -28 -23.5 -52.5t-54.5 -24.5q-26 0 -50 23t-24 54q0 26 23 50t51 24z" />
<glyph unicode="&#xfb36;" horiz-adv-x="876" d="M119 1137l129 -21h543l18 -198l-227 -29q-29 -86 -30 -195.5t21 -244.5l70 -449h-313l-82 567q-9 83 88 334h-139l-123 25zM98 643q28 0 53 -22.5t25 -51.5q0 -28 -23.5 -52.5t-54.5 -24.5q-26 0 -49.5 23t-23.5 54q0 26 22.5 50t50.5 24z" />
<glyph unicode="&#xfb38;" horiz-adv-x="1286" d="M98 1137l267 -31q35 -4 53 -29.5t18 -60.5v-418q0 -85 84 -393h139q76 0 130 64t77 153t23 188v199q0 109 -74 109h-12l-115 -254l-129 43l111 411h166q195 0 275.5 -93.5t80.5 -268.5v-129q0 -67 -9 -134t-29.5 -140t-57.5 -134.5t-88 -111.5t-127 -78.5t-168 -28.5 h-430q-136 459 -136 516v385l-94 25zM657 539q28 0 53 -22.5t25 -51.5q0 -28 -23.5 -53t-54.5 -25q-26 0 -49.5 23.5t-23.5 54.5q0 26 22.5 50t50.5 24z" />
<glyph unicode="&#xfb39;" horiz-adv-x="737" d="M106 1139l361 -39q83 -13 131.5 -73t48.5 -148q0 -93 -63 -261t-125 -272l-232 60q103 291 103 468q0 11 -2 15l-262 37zM131 782q29 0 53.5 -22t24.5 -51q0 -28 -23.5 -53t-54.5 -25q-26 0 -50 23.5t-24 54.5q0 26 23 49.5t51 23.5z" />
<glyph unicode="&#xfb3a;" horiz-adv-x="1028" d="M109 1137l131 -21h317q85 0 147.5 -18.5t101 -50t61.5 -80.5t31.5 -103.5t8.5 -126.5v-1030l23 -133l-309 -31l-23 109v1069q0 180 -143 180h-267l-125 25zM322 649q28 0 52.5 -22.5t24.5 -51.5q0 -28 -23 -52.5t-54 -24.5q-26 0 -50 23t-24 54q0 26 23 50t51 24z" />
<glyph unicode="&#xfb3b;" horiz-adv-x="1032" d="M121 1137l131 -21h289q206 0 294.5 -97.5t88.5 -277.5v-249q0 -77 -11.5 -144.5t-41 -133t-76 -111.5t-121.5 -74.5t-172 -28.5h-414v213h305q217 0 217 260v248q0 94 -42.5 137t-108.5 43h-258l-113 25zM324 643q28 0 52.5 -22.5t24.5 -51.5q0 -28 -23 -52.5t-54 -24.5 q-26 0 -50 23t-24 54q0 26 23 50t51 24z" />
<glyph unicode="&#xfb3c;" horiz-adv-x="1087" d="M373 1483l20 -113v-254h574l45 -192l-410 -924h-340l340 725q14 31 39 77.5t43 77.5l18 31q-61 -10 -120 -10h-435q-23 0 -37 16t-14 39v363l-20 131zM285 649q28 0 52.5 -22.5t24.5 -51.5q0 -28 -23 -52.5t-54 -24.5q-26 0 -50 23t-24 54q0 26 23 50t51 24z" />
<glyph unicode="&#xfb3e;" horiz-adv-x="1261" d="M119 1137l131 -21h477q206 0 314 -122t108 -332v-461q0 -24 -6.5 -74.5t-13.5 -88.5l-7 -38h-504v213h220v492q0 97 -50.5 146.5t-128.5 49.5h-84q-58 -139 -73 -264l-76 -637h-303l76 643q5 50 40.5 123t75.5 135h-116l-125 25zM659 643q28 0 53 -22.5t25 -51.5 q0 -28 -23.5 -52.5t-54.5 -24.5q-26 0 -49.5 23t-23.5 54q0 26 22.5 50t50.5 24z" />
<glyph unicode="&#xfb40;" horiz-adv-x="808" d="M188 1137l406 -58q40 -65 69 -166t29 -198v-514q0 -24 -6.5 -74.5t-13.5 -88.5l-6 -38h-594v213h309v512q0 48 -6 89t-11 58l-6 17l-215 37zM197 643q28 0 52.5 -22.5t24.5 -51.5q0 -28 -23 -52.5t-54 -24.5q-26 0 -50 23t-24 54q0 26 23 50t51 24z" />
<glyph unicode="&#xfb41;" horiz-adv-x="1222" d="M119 1137l133 -21h528q105 0 176 -27t108 -80.5t51.5 -118t14.5 -155.5v-227q0 -82 -15 -155.5t-51.5 -142.5t-91.5 -119t-141 -80.5t-194 -30.5q-125 0 -222.5 44.5t-155 120t-87 167.5t-29.5 196v94q0 29 25.5 104t51.5 135l26 60h-47l-123 25zM821 717q0 96 -39 140 t-104 44h-160q-40 -83 -54.5 -143t-14.5 -137v-179q3 -122 55 -188t133 -66q83 0 133 67t51 208v254zM631 643q28 0 53 -22.5t25 -51.5q0 -28 -23.5 -52.5t-54.5 -24.5q-26 0 -50 23t-24 54q0 26 23 50t51 24z" />
<glyph unicode="&#xfb43;" horiz-adv-x="1146" d="M143 1137l129 -21h654q36 -55 71 -177.5t35 -223.5v-1008l23 -133l-312 -31l-24 109v1249h-260q-25 -61 -38 -153t-13 -164l108 -33l-37 -148l-151 25l-209 -10q-4 39 0.5 115t11.5 120q3 25 33 113.5t53 134.5l-106 25zM565 797q28 0 53 -22.5t25 -51.5q0 -28 -23.5 -53 t-54.5 -25q-26 0 -49.5 23.5t-23.5 54.5q0 26 22.5 50t50.5 24z" />
<glyph unicode="&#xfb44;" horiz-adv-x="1179" d="M145 1137l134 -21h688q33 -55 64.5 -177.5t31.5 -223.5v-223q0 -77 -11.5 -144.5t-41 -133t-76 -111.5t-121 -74.5t-170.5 -28.5h-491v213h393q215 0 215 260v428h-297q-51 -117 -51 -262l112 -31l-35 -149l-151 24l-209 -10q-14 76 8 225q3 23 31 91t53 112l-106 25z M588 817q28 0 53 -22.5t25 -51.5q0 -28 -23.5 -52.5t-54.5 -24.5q-26 0 -50 23t-24 54q0 26 23 50t51 24z" />
<glyph unicode="&#xfb46;" horiz-adv-x="1179" d="M348 1081q64 -20 88 -84q89 -247 207 -409q2 21 37 203q15 63 52 177.5t67 172.5l309 -117q-85 -138 -189.5 -326t-136.5 -272q127 -142 265 -262l-33 -164h-912v213h553q-151 121 -278.5 295.5t-206.5 382.5l-102 24l43 222zM248 465q28 0 53 -22.5t25 -51.5 q0 -28 -23.5 -53t-54.5 -25q-26 0 -50 23.5t-24 54.5q0 26 23 50t51 24z" />
<glyph unicode="&#xfb47;" horiz-adv-x="1271" d="M156 1137l133 -21h868l43 -192l-379 -924h-311l283 725q14 31 39.5 77.5t43.5 77.5l19 31q-64 -10 -119 -10h-538l-125 25zM586 766q28 0 53 -22.5t25 -51.5q0 -28 -23.5 -53t-54.5 -25q-26 0 -50 23.5t-24 54.5q0 26 23 50t51 24zM150 434q0 16 17 73.5t35 106.5l17 50 l225 -17v-940l23 -133l-293 -31l-24 109v782z" />
<glyph unicode="&#xfb48;" horiz-adv-x="1046" d="M113 1137l129 -21h340q71 0 126.5 -12.5t93.5 -37t64 -56.5t40 -76.5t20 -91.5t6 -107v-735h-314v717q0 184 -143 184h-285l-122 25zM332 643q28 0 53 -22.5t25 -51.5q0 -28 -23.5 -52.5t-54.5 -24.5q-26 0 -50 23t-24 54q0 26 23 50t51 24z" />
<glyph unicode="&#xfb49;" horiz-adv-x="1646" d="M113 1137l272 -33q35 -4 53.5 -30t16.5 -60v-404q0 -69 18 -189t47 -216h137q19 119 19 266v645h285v-502q0 -277 -70 -409h43q60 0 107 21t76 59.5t48.5 81t28.5 96.5t12.5 95.5t3.5 86.5v471h306v-487q-1 -88 -18 -173t-57 -168.5t-98.5 -146.5t-148.5 -102t-201 -39 h-698q-38 115 -81.5 293t-43.5 233v381l-100 19zM1081 643q28 0 53 -22.5t25 -51.5q0 -28 -23.5 -52.5t-54.5 -24.5q-26 0 -49.5 23t-23.5 54q0 26 22.5 50t50.5 24z" />
<glyph unicode="&#xfb4a;" horiz-adv-x="1325" d="M174 1137l131 -21h557q85 0 147.5 -18.5t101 -50t61 -81.5t30.5 -104.5t8 -126.5v-735h-311v717q0 96 -38.5 140t-102.5 44h-203q-47 -141 -49.5 -238.5t33.5 -287.5l43 -203l-35 -172h-479l-9 203l199 12l-49 342q-10 49 28.5 150t92.5 194h-78l-123 25zM702 643 q28 0 53 -22.5t25 -51.5q0 -28 -23.5 -52.5t-54.5 -24.5q-26 0 -49.5 23t-23.5 54q0 26 22.5 50t50.5 24z" />
<glyph unicode="&#xfb4b;" horiz-adv-x="698" d="M350 1300q0 -28 -23.5 -52.5t-54.5 -24.5q-26 0 -49.5 23t-23.5 54q0 26 22.5 50t50.5 24q29 0 53.5 -21.5t24.5 -52.5zM467 1079q47 -6 76.5 -51t29.5 -125v-903h-311v887l-186 39l43 211z" />
<glyph unicode="&#xfb4c;" horiz-adv-x="1114" d="M700 1393v-99h-452v99h452zM1059 203l-8 -203h-965v213h557q-2 2 -16 32t-28.5 71t-14.5 61v340q0 95 -39 139.5t-103 44.5h-235l-123 25l43 211l133 -21h287q105 0 175.5 -27t107.5 -80.5t51 -118t14 -155.5v-284q0 -95 6.5 -144.5t28.5 -89.5z" />
<glyph unicode="&#xfb4d;" horiz-adv-x="1032" d="M700 1395v-99h-452v99h452zM121 1137l131 -21h289q206 0 294.5 -97.5t88.5 -277.5v-249q0 -77 -11.5 -144.5t-41 -133t-76 -111.5t-121.5 -74.5t-172 -28.5h-414v213h305q217 0 217 260v248q0 94 -42.5 137t-108.5 43h-258l-113 25z" />
<glyph unicode="&#xfb4e;" horiz-adv-x="1179" d="M786 1395v-99h-452v99h452zM145 1137l134 -21h688q33 -55 64.5 -177.5t31.5 -223.5v-223q0 -77 -11.5 -144.5t-41 -133t-76 -111.5t-121 -74.5t-170.5 -28.5h-491v213h393q215 0 215 260v428h-297q-51 -117 -51 -262l110 -31l-35 -149l-215 24l-143 -14q-13 71 8 213 q3 25 31.5 101t52.5 118l-106 25z" />
<glyph unicode="&#xfb4f;" horiz-adv-x="1236" d="M377 1483l20 -113l4 -336q206 -202 353 -372q0 58 12 120q20 181 92 357l307 -97q-163 -319 -264 -548q177 -223 270 -363l-235 -166q-122 183 -258 357.5t-252 291.5q-58 61 -128 130.5t-102.5 102.5t-60 65.5t-35.5 54.5v352l-20 131z" />
</font>
</defs>
</svg>
