<?xml version="1.0" standalone="no"?>
<!DOCTYPE svg PUBLIC "-//W3C//DTD SVG 1.1//EN" "http://www.w3.org/Graphics/SVG/1.1/DTD/svg11.dtd" >
<svg xmlns="http://www.w3.org/2000/svg">
<metadata>
This is a custom SVG webfont generated by Font Squirrel.
Copyright   : C 2009 2010 2011 Andrey V Panov
</metadata>
<defs>
<font id="T2KmathUSABold" horiz-adv-x="0" >
<font-face units-per-em="2048" ascent="1638" descent="-410" />
<missing-glyph horiz-adv-x="700" />
<glyph unicode=" "  horiz-adv-x="700" />
<glyph unicode="&#x09;" horiz-adv-x="700" />
<glyph unicode="&#xa0;" horiz-adv-x="700" />
<glyph unicode="!" horiz-adv-x="668" d="M188 1359q-2 75 70 75h160q72 0 70 -75l-27 -874q-2 -65 -65 -65h-116q-63 0 -65 65zM192 75v134q0 75 70 75h152q70 0 70 -75v-134q0 -75 -70 -75h-152q-70 0 -70 75z" />
<glyph unicode="&#x22;" horiz-adv-x="976" d="M138 1404q-3 65 51 65h174q54 0 51 -65l-24 -520q-3 -60 -50 -60h-128q-47 0 -50 60zM574 1404q-3 65 51 65h174q54 0 51 -65l-24 -520q-3 -60 -50 -60h-128q-47 0 -50 60z" />
<glyph unicode="#" horiz-adv-x="1416" d="M93 394l15 80q9 50 68 50h181l65 374h-180q-59 0 -51 50l14 80q9 50 69 50h180l50 284q11 60 61 60h86q50 0 39 -60l-50 -284h298l50 284q11 60 61 60h86q50 0 39 -60l-50 -284h180q59 0 51 -50l-14 -80q-9 -50 -69 -50h-180l-65 -374h179q60 0 52 -50l-15 -80 q-9 -50 -68 -50h-180l-50 -284q-11 -60 -61 -60h-86q-50 0 -39 60l50 284h-298l-50 -284q-11 -60 -61 -60h-86q-50 0 -39 60l50 284h-180q-60 0 -52 50zM543 524h298l65 374h-298z" />
<glyph unicode="$" horiz-adv-x="1200" d="M172 200l69 98q34 48 104 -10q54 -45 128.5 -68.5t128.5 -30.5v423q-79 29 -169 79q-46 26 -100.5 81.5t-87.5 128.5t-33 181q0 142 80 233t150 111.5t160 27.5v102q0 60 50 60h80q50 0 50 -60v-102q72 -9 150 -40t127 -67q58 -43 27 -90l-68 -104q-36 -54 -86 -8 q-38 35 -78 52t-72 26v-390q83 -29 170 -74q64 -33 110 -80t77.5 -117t31.5 -189q0 -133 -58.5 -222t-137.5 -130t-193 -53v-118q0 -60 -50 -60h-80q-50 0 -50 60v118q-102 5 -215.5 30.5t-178.5 85.5q-72 65 -36 116zM468 1084q0 -72 30 -109t62 -52q17 -8 42 -18v324 q-55 -10 -94.5 -48.5t-39.5 -96.5zM782 192q37 11 83 45.5t46 128.5q0 65 -20.5 102.5t-74.5 63.5q-16 8 -34 16v-356z" />
<glyph unicode="%" horiz-adv-x="1802" d="M95 1122q0 180 78.5 284t238.5 104t238.5 -104t78.5 -284t-78.5 -284t-238.5 -104t-238.5 104t-78.5 284zM297 1122q0 -150 30 -201.5t85 -51.5t85 51.5t30 201.5t-30 201.5t-85 51.5t-85 -51.5t-30 -201.5zM314 49l1021 1458q35 50 76 21l70 -49q41 -29 7 -78 l-1021 -1458q-35 -50 -76 -21l-70 49q-41 29 -7 78zM1073 328q0 180 78.5 284t238.5 104t238.5 -104t78.5 -284t-78.5 -284t-238.5 -104t-238.5 104t-78.5 284zM1275 328q0 -150 30 -201.5t85 -51.5t85 51.5t30 201.5t-30 201.5t-85 51.5t-85 -51.5t-30 -201.5z" />
<glyph unicode="&#x26;" horiz-adv-x="1440" d="M112 316q0 148 75 261t256 243q-71 80 -122 150.5t-51 193.5q0 120 94.5 212t311.5 92q134 0 249.5 -68t115.5 -235q0 -124 -52 -211.5t-174 -179.5l240 -314q45 42 82 96t50 84q28 65 87 30l106 -64q30 -16 6 -75q-28 -69 -71 -131t-118 -127l156 -207q50 -66 -31 -66 h-185q-74 0 -117 59l-36 49q-100 -80 -207 -111t-248 -31q-181 0 -299 84t-118 266zM412 328q0 -67 47.5 -105.5t110.5 -38.5q84 0 145 22t131 82l-256 336q-96 -78 -137 -138t-41 -158zM540 1153q0 -70 37.5 -113.5t82.5 -88.5q63 57 87 87.5t24 96.5q0 50 -31.5 76.5 t-85.5 26.5q-57 0 -85.5 -32.5t-28.5 -52.5z" />
<glyph unicode="'" horiz-adv-x="560" d="M148 1404q-3 65 51 65h174q54 0 51 -65l-24 -520q-3 -60 -50 -60h-128q-47 0 -50 60z" />
<glyph unicode="(" horiz-adv-x="740" d="M70 744q0 370 128.5 609t255.5 361q52 50 84 24l84 -67q34 -27 0 -72q-79 -103 -165.5 -291.5t-86.5 -563.5t86.5 -563.5t165.5 -291.5q34 -45 0 -72l-84 -67q-32 -26 -84 24q-127 122 -255.5 361t-128.5 609z" />
<glyph unicode=")" horiz-adv-x="726" d="M87 -111q79 103 165.5 291.5t86.5 563.5t-86.5 563.5t-165.5 291.5q-34 45 0 72l84 67q32 26 84 -24q127 -122 255.5 -361t128.5 -609t-128.5 -609t-255.5 -361q-52 -50 -84 -24l-84 67q-34 27 0 72z" />
<glyph unicode="*" horiz-adv-x="960" d="M193 863q-43 73 45 111l196 84l-196 84q-86 37 -44 111l18 31q42 72 117 16l171 -128l-25 213q-11 93 73 93h36q84 0 73 -93l-25 -213l171 128q76 57 118 -17l18 -31q42 -73 -45 -110l-196 -84l197 -85q86 -37 44 -109l-18 -31q-42 -73 -117 -17l-172 128l25 -212 q11 -94 -74 -94h-35q-84 0 -73 94l25 212l-171 -128q-76 -57 -118 16z" />
<glyph unicode="+" horiz-adv-x="2030" d="M515 669v149q0 45 53 45h347v329q0 53 44 53h151q44 0 44 -53v-329h308q53 0 53 -45v-149q0 -44 -53 -44h-308v-327q0 -53 -44 -53h-151q-44 0 -44 53v327h-347q-53 0 -53 44z" />
<glyph unicode="," horiz-adv-x="668" d="M186 75v134q0 75 70 75h156q70 0 70 -75v-134q0 -129 -17 -216.5t-87 -141.5q-51 -39 -80 -8l-38 41q-36 38 11 75q32 25 43 65t11 110h-69q-70 0 -70 75z" />
<glyph unicode="-" horiz-adv-x="1754" d="M450 662v146q0 47 60 47h734q60 0 60 -47v-146q0 -47 -60 -47h-734q-60 0 -60 47z" />
<glyph unicode="." horiz-adv-x="668" d="M188 75v134q0 75 70 75h152q70 0 70 -75v-134q0 -75 -70 -75h-152q-70 0 -70 75z" />
<glyph unicode="/" horiz-adv-x="1022" d="M92 -304l664 1730q22 56 68 38l81 -31q47 -18 25 -74l-664 -1730q-22 -56 -68 -38l-81 31q-47 18 -25 74z" />
<glyph unicode="0" horiz-adv-x="1621" d="M330 700q0 381 118.5 540.5t362.5 159.5q243 0 361.5 -159.5t118.5 -540.5t-118.5 -540.5t-361.5 -159.5q-244 0 -362.5 159.5t-118.5 540.5zM602 682q0 -178 29.5 -342t178.5 -164q148 0 177.5 164t29.5 342q0 177 -29.5 341t-177.5 164q-149 0 -178.5 -164t-29.5 -341z " />
<glyph unicode="1" horiz-adv-x="1234" d="M355 1107q-25 47 34 73q57 25 118.5 71t99.5 94q44 55 84 55h155q58 0 58 -58v-1284q0 -58 -58 -58h-156q-59 0 -59 58v925q0 39 5 78h-5q-30 -38 -65.5 -65.5t-73.5 -42.5q-45 -20 -69 25z" />
<glyph unicode="2" horiz-adv-x="1643" d="M330 62v46q0 50 46 100l288 302q129 138 237 245t108 217t-54 161t-139 51q-132 0 -184 -61t-75 -131q-22 -69 -81 -49l-97 32q-47 17 -27 90q37 137 153 236t343 99q236 0 343 -122t107 -263q0 -187 -156 -327.5t-283 -275.5l-164 -171v-6q58 4 96 4h450q72 0 72 -63 v-114q0 -62 -72 -62h-839q-72 0 -72 62z" />
<glyph unicode="3" horiz-adv-x="1644" d="M361 216l43 79q32 57 101 8q58 -41 131.5 -67t163.5 -26q124 0 178 67.5t54 151.5q0 85 -64 153t-179 68h-72q-62 0 -62 50v104q0 51 62 51h55q87 0 153.5 53.5t66.5 134.5q0 63 -44 105t-142 42q-93 0 -160.5 -27.5t-108.5 -65.5q-55 -56 -96 4l-54 80q-32 45 18 92 q68 65 175 96t210 31q242 0 359.5 -96.5t117.5 -235.5q0 -103 -81.5 -188t-171.5 -117v-4q108 -26 204 -115t96 -220q0 -206 -130 -315t-396 -109q-113 0 -232 34.5t-190 93.5q-36 31 -5 88z" />
<glyph unicode="4" horiz-adv-x="1706" d="M330 366v129q0 55 29 96l539 758q36 51 90 51h143q64 0 64 -63v-792h118q63 0 63 -64v-115q0 -63 -62 -63h-119v-240q0 -63 -63 -63h-146q-63 0 -63 63v240h-530q-63 0 -63 63zM619 537h317v371q0 38 4 77h-4z" />
<glyph unicode="5" horiz-adv-x="1648" d="M353 203l67 92q40 56 99 3q34 -31 106 -56.5t144 -25.5q110 0 185.5 61t75.5 179q0 114 -48 183t-116 69q-60 0 -108.5 -9.5t-101.5 -55.5q-37 -31 -88 -31h-106q-62 0 -62 62v664q0 62 62 62h692q64 0 64 -62v-114q0 -63 -64 -63h-485v-235q0 -38 -3 -77h5 q51 45 114 59.5t134 14.5q167 0 283 -115t116 -355q0 -221 -147.5 -337t-350.5 -116q-169 0 -292.5 37t-165.5 92q-32 43 -9 74z" />
<glyph unicode="6" horiz-adv-x="1624" d="M330 663q0 423 151.5 580t382.5 157q90 0 180 -26t137 -68q45 -40 20 -79l-62 -93q-30 -46 -88 0q-27 22 -81.5 39t-112.5 17q-99 0 -182 -93t-83 -315h4q42 65 117 92.5t184 27.5q196 0 296.5 -129.5t100.5 -319.5q0 -207 -117.5 -330t-359.5 -123q-257 0 -372 172.5 t-115 490.5zM633 425q0 -117 48 -180t140 -63q98 0 146 53t48 197q0 126 -48 183.5t-134 57.5q-95 0 -147.5 -77.5t-52.5 -170.5z" />
<glyph unicode="7" horiz-adv-x="1587" d="M330 1221v116q0 63 63 63h801q63 0 63 -63v-112q0 -49 -49 -104q-201 -227 -281 -452.5t-80 -543.5v-62q0 -63 -65 -63h-146q-64 0 -64 63v27q0 354 117 595t311 471v5q-39 -5 -79 -5h-528q-63 0 -63 65z" />
<glyph unicode="8" horiz-adv-x="1626" d="M330 392q0 161 99.5 251t170.5 110v5q-80 24 -156 99t-76 197q0 147 119 246.5t326 99.5t326 -99.5t119 -246.5q0 -122 -76 -197t-156 -99v-5q71 -20 170.5 -110t99.5 -251q0 -174 -113 -283t-370 -109t-370 109t-113 283zM604 396q0 -108 48 -161t158 -53q109 0 157 53 t48 161q0 82 -52.5 152t-152.5 70q-101 0 -153.5 -70t-52.5 -152zM636 1015q0 -77 43.5 -121t130.5 -44q86 0 129.5 44t43.5 121q0 76 -45.5 121t-127.5 45q-83 0 -128.5 -45t-45.5 -121z" />
<glyph unicode="9" horiz-adv-x="1624" d="M330 947q0 207 117.5 330t359.5 123q257 0 372 -172.5t115 -490.5q0 -423 -151.5 -580t-382.5 -157q-90 0 -179.5 26t-137.5 68q-45 40 -20 79l62 93q30 46 88 0q27 -22 81.5 -39t112.5 -17q99 0 182 93t83 315h-4q-42 -65 -117 -92.5t-184 -27.5q-196 0 -296.5 129.5 t-100.5 319.5zM604 932q0 -127 48 -184.5t135 -57.5q95 0 147 78t52 171q0 117 -48 179.5t-140 62.5q-98 0 -146 -52.5t-48 -196.5z" />
<glyph unicode=":" horiz-adv-x="668" d="M201 1031v134q0 75 70 75h152q70 0 70 -75v-134q0 -75 -70 -75h-152q-70 0 -70 75zM201 325v134q0 75 70 75h152q70 0 70 -75v-134q0 -75 -70 -75h-152q-70 0 -70 75z" />
<glyph unicode=";" horiz-adv-x="668" d="M428 1031v134q0 75 70 75h152q70 0 70 -75v-134q0 -75 -70 -75h-152q-70 0 -70 75zM426 265v134q0 75 70 75h156q70 0 70 -75v-134q0 -129 -17 -216.5t-87 -141.5q-51 -39 -80 -8l-38 41q-36 38 11 75q32 25 43 65t11 110h-69q-70 0 -70 75z" />
<glyph unicode="&#x3c;" horiz-adv-x="2384" d="M450 819v92q0 34 40 55l941 501q53 28 77 -16l37 -71q23 -44 -29 -72l-834 -442v-2l834 -442q52 -28 29 -72l-37 -71q-24 -44 -77 -16l-941 501q-40 21 -40 55z" />
<glyph unicode="=" horiz-adv-x="2030" d="M450 512v86q0 50 60 50h1010q60 0 60 -50v-86q0 -50 -60 -50h-1010q-60 0 -60 50zM450 852v86q0 50 60 50h1010q60 0 60 -50v-86q0 -50 -60 -50h-1010q-60 0 -60 50z" />
<glyph unicode="&#x3e;" horiz-adv-x="2018" d="M473 350q-23 44 29 72l834 442v2l-834 442q-52 28 -29 72l37 71q24 44 77 16l941 -501q40 -21 40 -55v-92q0 -34 -40 -55l-941 -501q-53 -28 -77 16z" />
<glyph unicode="?" horiz-adv-x="1106" d="M179 1260q41 72 155 140t288 68q237 0 349.5 -107t112.5 -293q0 -141 -165.5 -304.5t-165.5 -269.5v-16q0 -65 -65 -65h-150q-65 0 -65 65v30q0 164 155.5 326t155.5 240q0 81 -37.5 125.5t-134.5 44.5q-86 0 -139 -39t-87 -95q-33 -55 -89 -19l-105 67q-52 33 -13 102z M467 75v134q0 75 70 75h152q70 0 70 -75v-134q0 -75 -70 -75h-152q-70 0 -70 75z" />
<glyph unicode="@" horiz-adv-x="2074" d="M112 564q0 400 263.5 668t687.5 268q388 0 643.5 -212t255.5 -588q0 -294 -143.5 -447t-379.5 -153q-102 0 -164 33.5t-86 137.5h-2q-61 -77 -129 -124t-186 -47q-117 0 -212.5 88t-95.5 299q0 227 151.5 391.5t359.5 164.5q140 0 191 -146h4l14 61q11 48 59 48h139 q51 0 39 -52l-120 -532q-17 -75 -8.5 -108.5t57.5 -33.5q145 0 234.5 98t89.5 283q0 311 -187.5 484t-523.5 173q-332 0 -547.5 -213t-215.5 -535q0 -326 213.5 -536t547.5 -210q150 0 263.5 23t257.5 103q45 25 59 3l62 -93q27 -41 -16 -66q-148 -88 -323.5 -120 t-313.5 -32q-403 0 -670.5 263t-267.5 659zM806 433q0 -67 32 -110t86 -43q93 0 175 96.5t97 205.5q9 66 9 122q0 64 -36 111.5t-90 47.5q-92 0 -182.5 -106t-90.5 -324z" />
<glyph unicode="A" horiz-adv-x="1394" d="M62 36q0 13 6 30l490 1287q31 81 94 81h140q63 0 94 -81l490 -1287q6 -17 6 -30q0 -36 -53 -36h-159q-66 0 -92 69l-102 269h-508l-102 -269q-26 -69 -92 -69h-159q-53 0 -53 36zM561 586h322l-123 318q-22 56 -26.5 81.5t-9.5 75.5h-4q-5 -50 -9.5 -75.5t-26.5 -81.5z " />
<glyph unicode="B" horiz-adv-x="1379" d="M160 75v1284q0 75 80 75h340q384 0 518.5 -94.5t134.5 -290.5q0 -137 -100.5 -212t-194.5 -87v-3q91 -6 214 -92t123 -243q0 -184 -150 -298t-495 -114h-390q-80 0 -80 75zM452 244h146q212 0 288.5 37t76.5 150q0 106 -88.5 146.5t-276.5 40.5h-146v-374zM452 854h131 q129 0 241.5 45t112.5 140q0 74 -62.5 112.5t-291.5 38.5h-131v-336z" />
<glyph unicode="C" horiz-adv-x="1418" d="M86 717q0 345 175 548t505 203q190 0 322 -59t186 -171q15 -32 15 -55q0 -31 -27 -45l-120 -64q-20 -11 -38 -11q-38 0 -66 49q-26 46 -96.5 83t-165.5 37q-210 0 -294 -132.5t-84 -382.5t84 -382.5t294 -132.5q113 0 190.5 51t107.5 97q33 50 68 50q18 0 36 -12l120 -80 q27 -18 27 -47q0 -23 -17 -53q-58 -100 -199 -171t-343 -71q-325 0 -502.5 203t-177.5 548z" />
<glyph unicode="D" horiz-adv-x="1450" d="M160 75v1284q0 75 70 75h349q460 0 622.5 -186t162.5 -529t-162.5 -531t-622.5 -188h-349q-70 0 -70 75zM452 248h108q310 0 401 115.5t91 355.5t-91 354.5t-401 114.5h-108v-940z" />
<glyph unicode="E" horiz-adv-x="1280" d="M160 75v1284q0 75 70 75h858q75 0 75 -65v-118q0 -65 -75 -65h-636v-318h583q75 0 75 -65v-118q0 -65 -75 -65h-583v-372h668q75 0 75 -65v-118q0 -65 -75 -65h-890q-70 0 -70 75z" />
<glyph unicode="F" horiz-adv-x="1176" d="M160 75v1284q0 75 70 75h791q75 0 75 -65v-118q0 -65 -75 -65h-569v-348h487q75 0 75 -65v-118q0 -65 -75 -65h-487v-515q0 -75 -70 -75h-152q-70 0 -70 75z" />
<glyph unicode="G" horiz-adv-x="1506" d="M86 717q0 345 180 548t510 203q199 0 312.5 -51t199.5 -158q25 -32 25 -56q0 -26 -28 -45l-114 -74q-17 -11 -36 -11q-34 0 -71 40q-47 51 -119 85t-159 34q-210 0 -299 -132.5t-89 -382.5t89 -382.5t299 -132.5q102 0 176 20.5t140 74.5v179h-217q-75 0 -75 65v118 q0 65 75 65h434q75 0 75 -65v-508q-140 -103 -282.5 -144t-335.5 -41q-325 0 -507.5 203t-182.5 548z" />
<glyph unicode="H" horiz-adv-x="1442" d="M160 75v1284q0 75 70 75h152q70 0 70 -75v-489h538v489q0 75 70 75h152q70 0 70 -75v-1284q0 -75 -70 -75h-152q-70 0 -70 75v547h-538v-547q0 -75 -70 -75h-152q-70 0 -70 75z" />
<glyph unicode="I" horiz-adv-x="612" d="M160 75v1284q0 75 70 75h152q70 0 70 -75v-1284q0 -75 -70 -75h-152q-70 0 -70 75z" />
<glyph unicode="J" horiz-adv-x="947" d="M47 77q0 8 3 17l42 137q10 33 38 33q22 0 56 -21q65 -41 145 -41q110 0 143.5 76t33.5 253v828q0 75 70 75h152q70 0 70 -75v-808q0 -368 -123.5 -476.5t-342.5 -108.5q-153 0 -244 53q-43 25 -43 58z" />
<glyph unicode="K" horiz-adv-x="1361" d="M160 75v1284q0 75 70 75h152q70 0 70 -75v-398q0 -60 -5 -120h7l486 534q54 59 92 59h201q70 0 70 -31q0 -21 -32 -55l-455 -498l487 -764q20 -32 20 -52q0 -34 -58 -34h-187q-52 0 -90 59l-368 577l-168 -189v-372q0 -75 -70 -75h-152q-70 0 -70 75z" />
<glyph unicode="L" horiz-adv-x="1162" d="M160 75v1284q0 75 70 75h162q60 0 60 -75v-1111h583q75 0 75 -65v-118q0 -65 -75 -65h-805q-70 0 -70 75z" />
<glyph unicode="M" horiz-adv-x="1828" d="M160 75v1284q0 75 70 75h290q58 0 83 -80l271 -877q18 -57 25 -93.5t12 -86.5h6q5 50 12 86.5t25 93.5l271 877q25 80 83 80h290q70 0 70 -75v-1284q0 -75 -70 -75h-152q-70 0 -70 75v826q0 60 5 120h-7l-289 -940q-25 -81 -86 -81h-170q-61 0 -86 81l-289 940h-7 q5 -60 5 -120v-826q0 -75 -70 -75h-152q-70 0 -70 75z" />
<glyph unicode="N" horiz-adv-x="1472" d="M160 75v1284q0 75 70 75h148q86 0 130 -70l510 -819h7q-5 60 -5 120v694q0 75 70 75h152q70 0 70 -75v-1284q0 -75 -70 -75h-138q-86 0 -130 70l-520 834h-7q5 -60 5 -120v-709q0 -75 -70 -75h-152q-70 0 -70 75z" />
<glyph unicode="O" horiz-adv-x="1544" d="M86 717q0 345 178 548t508 203t508 -203t178 -548t-178 -548t-508 -203t-508 203t-178 548zM398 717q0 -250 89.5 -382.5t284.5 -132.5t284.5 132.5t89.5 382.5t-89.5 382.5t-284.5 132.5t-284.5 -132.5t-89.5 -382.5z" />
<glyph unicode="P" horiz-adv-x="1328" d="M160 75v1284q0 75 70 75h374q360 0 499.5 -117t139.5 -332t-139.5 -332t-499.5 -117h-152v-461q0 -75 -70 -75h-152q-70 0 -70 75zM452 780h151q200 0 272 47.5t72 157.5t-72 157.5t-272 47.5h-151v-410z" />
<glyph unicode="Q" horiz-adv-x="1544" d="M86 717q0 345 178 548t508 203t508 -203t178 -548t-178 -548q-136 -155 -361 -192q9 -90 47.5 -134.5t149.5 -44.5q51 0 106 14q14 4 24 4q28 0 34 -26l28 -116q2 -6 2 -12q0 -29 -38 -38q-118 -31 -188 -31q-268 0 -357.5 113t-100.5 271q-226 36 -362 192 q-178 203 -178 548zM398 717q0 -250 89.5 -382.5t284.5 -132.5t284.5 132.5t89.5 382.5t-89.5 382.5t-284.5 132.5t-284.5 -132.5t-89.5 -382.5z" />
<glyph unicode="R" horiz-adv-x="1428" d="M160 75v1284q0 75 70 75h463q309 0 451 -95.5t142 -310.5q0 -160 -115 -255t-292 -126v-2q96 -36 145 -100t80 -112l220 -347q20 -32 20 -52q0 -34 -58 -34h-174q-55 0 -90 59l-202 337q-33 54 -120.5 118.5t-173.5 64.5h-74v-504q0 -75 -70 -75h-152q-70 0 -70 75z M452 827h179q200 0 284.5 45.5t84.5 144.5q0 108 -81.5 140.5t-239.5 32.5h-227v-363z" />
<glyph unicode="S" horiz-adv-x="1308" d="M136 169q0 17 11 33l77 116q20 30 50 30q27 0 61 -24q56 -39 146.5 -80.5t190.5 -41.5q70 0 135 16t99 62t34 109q0 45 -15 79t-49 56t-70 37q-63 26 -158.5 51.5t-188.5 61.5q-83 32 -152 88t-107 126t-38 187q0 139 90 238t207 127t236 28q118 0 243.5 -36t189.5 -90 q42 -35 42 -66q0 -16 -11 -30l-81 -109q-22 -30 -53 -30q-26 0 -57 21q-44 30 -120.5 67t-159.5 37q-59 0 -108.5 -10t-87.5 -48t-38 -94q0 -54 28 -87.5t62 -50t69 -27.5q108 -35 193 -61.5t157 -58.5q100 -45 153 -90t87.5 -123t34.5 -186q0 -160 -102 -264.5t-226.5 -135 t-242.5 -30.5q-174 0 -283 33.5t-207 107.5q-41 31 -41 62z" />
<glyph unicode="T" horiz-adv-x="1246" d="M34 1243v126q0 65 75 65h1028q75 0 75 -65v-126q0 -65 -75 -65h-368v-1123q0 -55 -50 -55h-192q-50 0 -50 55v1123h-368q-75 0 -75 65z" />
<glyph unicode="U" horiz-adv-x="1422" d="M160 597v782q0 55 70 55h152q70 0 70 -55v-772q0 -270 79.5 -337.5t179.5 -67.5t179.5 67.5t79.5 337.5v772q0 55 70 55h152q70 0 70 -55v-782q0 -350 -148 -490.5t-403 -140.5t-403 140.5t-148 490.5z" />
<glyph unicode="V" horiz-adv-x="1370" d="M62 1398q0 36 53 36h159q67 0 92 -69l306 -835q23 -64 27 -85.5t9 -71.5h4q5 50 9 71.5t27 85.5l306 835q25 69 92 69h159q53 0 53 -36q0 -13 -6 -30l-478 -1287q-30 -81 -94 -81h-140q-64 0 -94 81l-478 1287q-6 17 -6 30z" />
<glyph unicode="W" horiz-adv-x="2022" d="M62 1388q0 46 51 46h185q47 0 63 -66l190 -786q21 -86 27.5 -117.5t11.5 -101.5h5q5 70 10 106t29 119l223 772q21 74 84 74h184q63 0 84 -74l223 -772q24 -83 29 -119t10 -106h5q5 70 11.5 101.5t27.5 117.5l190 786q16 66 63 66h185q51 0 51 -46q0 -15 -5 -34 l-340 -1257q-26 -97 -94 -97h-175q-58 0 -85 96l-240 838q-20 68 -23 88.5t-8 76.5h-2q-5 -56 -8 -76.5t-23 -88.5l-240 -838q-27 -96 -85 -96h-175q-68 0 -94 97l-340 1257q-5 20 -5 34z" />
<glyph unicode="X" horiz-adv-x="1418" d="M106 33q0 21 22 53l443 654l-407 608q-22 32 -22 53q0 33 60 33h202q53 0 90 -59l273 -432l273 432q37 59 90 59h202q60 0 60 -33q0 -20 -22 -53l-408 -608l444 -654q22 -32 22 -53q0 -33 -60 -33h-205q-52 0 -90 59l-306 478l-306 -478q-38 -59 -90 -59h-205 q-60 0 -60 33z" />
<glyph unicode="Y" horiz-adv-x="1368" d="M85 1397q0 37 64 37h175q52 0 92 -69l213 -371q9 -15 53 -93.5t51 -152.5h4q7 74 51 152.5t53 93.5l213 371q40 69 92 69h175q64 0 64 -37q0 -20 -17 -49l-487 -823v-470q0 -55 -70 -55h-152q-70 0 -70 55v470l-487 823q-17 29 -17 49z" />
<glyph unicode="Z" horiz-adv-x="1252" d="M61 65v82q0 69 51 139l650 898v7q-60 -5 -120 -5h-466q-75 0 -75 65v118q0 65 75 65h912q75 0 75 -65v-67q0 -53 -35 -101l-690 -951v-7q60 5 120 5h558q75 0 75 -65v-118q0 -65 -75 -65h-980q-75 0 -75 65z" />
<glyph unicode="[" horiz-adv-x="608" d="M70 -148v1784q0 60 60 60h348q60 0 60 -50v-100q0 -50 -60 -50h-128v-1504h128q60 0 60 -50v-100q0 -50 -60 -50h-348q-60 0 -60 60z" />
<glyph unicode="\" horiz-adv-x="856" d="M53 1359q-22 56 25 74l81 31q46 18 68 -38l664 -1730q22 -56 -25 -74l-81 -31q-46 -18 -68 38z" />
<glyph unicode="]" horiz-adv-x="608" d="M70 -58q0 50 60 50h128v1504h-128q-60 0 -60 50v100q0 50 60 50h348q60 0 60 -60v-1784q0 -60 -60 -60h-348q-60 0 -60 50v100z" />
<glyph unicode="^" horiz-adv-x="920" d="M150 1007l290 398q26 36 72 36h36q46 0 72 -36l290 -398q36 -49 -5 -78l-62 -44q-41 -29 -75 19l-237 329h-2l-237 -329q-34 -48 -75 -19l-62 44q-40 29 -5 78z" />
<glyph unicode="_" horiz-adv-x="1200" d="M-25 55v100q0 50 60 50h1130q60 0 60 -50v-100q0 -50 -60 -50h-1130q-60 0 -60 50z" />
<glyph unicode="`" horiz-adv-x="614" d="M257 1376q-52 59 22 59h152q78 0 106 -47l108 -179q36 -59 -21 -59h-101q-69 0 -101 37z" />
<glyph unicode="a" horiz-adv-x="1123" d="M80 280q0 200 191 290t436 96v40q0 92 -46 130t-128 38q-69 0 -134 -32t-104 -66q-24 -21 -44 -21q-18 0 -32 17l-83 102q-12 15 -12 31q0 23 27 47q53 47 153.5 82.5t251.5 35.5q208 0 319.5 -96t111.5 -283v-631q0 -60 -60 -60h-164q-54 0 -54 60v30h-2 q-59 -57 -141.5 -83.5t-151.5 -26.5q-164 0 -249 80.5t-85 219.5zM376 286q0 -73 46 -91.5t79 -18.5q51 0 99 14t107 66v217q-167 -14 -249 -63.5t-82 -123.5z" />
<glyph unicode="b" horiz-adv-x="1192" d="M136 60v1356q0 60 60 60h160q60 0 60 -60v-404q0 -40 -4 -80h4q52 86 116 112t154 26q235 0 330.5 -162.5t95.5 -382.5t-95.5 -382.5t-330.5 -162.5q-90 0 -154 26t-116 112h-4l-4 -58q-4 -60 -54 -60h-158q-60 0 -60 60zM416 480q0 -135 53.5 -219.5t128.5 -84.5 q135 0 176.5 94.5t41.5 254.5t-41.5 254.5t-176.5 94.5q-75 0 -128.5 -84.5t-53.5 -219.5v-90z" />
<glyph unicode="c" horiz-adv-x="1086" d="M80 525q0 255 128 400t393 145q155 0 241 -41t138 -120q13 -20 13 -37q0 -22 -23 -37l-106 -70q-16 -11 -31 -11q-26 0 -48 34q-17 26 -65 56t-119 30q-113 0 -169 -79.5t-56 -269.5t56 -269.5t169 -79.5q81 0 131 34t94 88q22 27 46 27q17 0 34 -14l93 -73 q22 -18 22 -41q0 -21 -17 -47q-39 -58 -132.5 -114t-270.5 -56q-265 0 -393 145t-128 400z" />
<glyph unicode="d" horiz-adv-x="1192" d="M80 525q0 220 95.5 382.5t330.5 162.5q90 0 154 -26t116 -112h4q-4 40 -4 80v404q0 60 60 60h160q60 0 60 -60v-1356q0 -60 -60 -60h-158q-50 0 -54 60l-4 58h-4q-52 -86 -116 -112t-154 -26q-235 0 -330.5 162.5t-95.5 382.5zM376 525q0 -160 41.5 -254.5t176.5 -94.5 q75 0 128.5 84.5t53.5 219.5v90q0 135 -53.5 219.5t-128.5 84.5q-135 0 -176.5 -94.5t-41.5 -254.5z" />
<glyph unicode="e" horiz-adv-x="1174" d="M80 525q0 253 126.5 399t357.5 146q268 0 398 -138t130 -444q0 -60 -56 -60h-660q16 -166 82 -209t153 -43q83 0 127 22t74 60q20 26 46 26q18 0 38 -12l100 -61q34 -21 34 -47q0 -18 -17 -39q-61 -73 -143 -109t-259 -36q-287 0 -409 146t-122 399zM377 628h435 q0 108 -54 176.5t-172 68.5q-94 0 -149 -65.5t-60 -179.5z" />
<glyph unicode="f" horiz-adv-x="682" d="M42 900v100q0 50 59 50h56v140q0 184 105 245t250 61q69 0 118.5 -8t87.5 -20q28 -9 28 -35q0 -7 -2 -15l-30 -113q-9 -33 -46 -20q-22 8 -61.5 11.5t-62.5 3.5q-73 0 -90 -51t-17 -159v-40h132q59 0 59 -50v-100q0 -50 -59 -50h-132v-790q0 -60 -60 -60h-160 q-60 0 -60 60v790h-56q-59 0 -59 50z" />
<glyph unicode="g" horiz-adv-x="1192" d="M80 525q0 220 95.5 382.5t330.5 162.5q90 0 154 -26t116 -112h4l4 58q4 60 54 60h158q60 0 60 -60v-979q0 -245 -132 -338t-382 -93q-106 0 -196 11t-182 55q-29 14 -29 42q0 19 13 45l36 72q14 28 41 28q14 0 32 -8q41 -19 101.5 -34t153.5 -15q128 0 196 47.5t68 207.5 v17q0 40 4 80h-4q-52 -86 -116 -112t-154 -26q-235 0 -330.5 162.5t-95.5 372.5zM376 525q0 -150 41.5 -244.5t176.5 -94.5q75 0 128.5 84.5t53.5 219.5v80q0 135 -53.5 219.5t-128.5 84.5q-135 0 -176.5 -94.5t-41.5 -254.5z" />
<glyph unicode="h" horiz-adv-x="1200" d="M136 60v1356q0 60 60 60h160q60 0 60 -60v-404q0 -40 -4 -80h6q46 79 117 108.5t171 29.5q156 0 258 -98t102 -358v-554q0 -60 -60 -60h-160q-60 0 -60 60v482q0 218 -30 275t-129 57q-105 0 -158 -81.5t-53 -338.5v-394q0 -60 -60 -60h-160q-60 0 -60 60z" />
<glyph unicode="i" horiz-adv-x="552" d="M136 60v930q0 60 60 60h160q60 0 60 -60v-930q0 -60 -60 -60h-160q-60 0 -60 60zM136 1264v128q0 60 60 60h160q60 0 60 -60v-128q0 -60 -60 -60h-160q-60 0 -60 60z" />
<glyph unicode="j" horiz-adv-x="562" d="M-92 -357l22 110q9 46 51 30q18 -7 72 -7q63 0 87 66t24 184v964q0 60 60 60h160q60 0 60 -60v-994q0 -248 -97 -332t-259 -84q-90 0 -151 11q-38 7 -29 52zM164 1264v128q0 60 60 60h160q60 0 60 -60v-128q0 -60 -60 -60h-160q-60 0 -60 60z" />
<glyph unicode="k" horiz-adv-x="1115" d="M136 60v1356q0 60 60 60h160q60 0 60 -60v-735q0 -40 -4 -80h4l317 408q32 41 78 41h164q55 0 55 -27q0 -18 -24 -47l-302 -365l350 -537q18 -28 18 -45q0 -29 -49 -29h-171q-50 0 -82 52l-227 365l-127 -153v-204q0 -60 -60 -60h-160q-60 0 -60 60z" />
<glyph unicode="l" horiz-adv-x="552" d="M136 60v1181q0 45 21 82l77 135q22 38 52 38h70q60 0 60 -60v-1376q0 -60 -60 -60h-160q-60 0 -60 60z" />
<glyph unicode="m" horiz-adv-x="1750" d="M136 60v930q0 60 60 60h158q60 0 60 -60v-58h4q29 64 98 101t129 37q120 0 186.5 -56t91.5 -125h4q87 113 157.5 147t180.5 34q148 0 249.5 -98t101.5 -358v-554q0 -60 -60 -60h-160q-60 0 -60 60v482q0 218 -29.5 275t-104.5 57q-70 0 -128 -82t-58 -338v-394 q0 -60 -60 -60h-160q-60 0 -60 60v482q0 218 -29.5 275t-104.5 57q-70 0 -128 -81.5t-58 -338.5v-394q0 -60 -60 -60h-160q-60 0 -60 60z" />
<glyph unicode="n" horiz-adv-x="1200" d="M136 60v930q0 60 60 60h158q60 0 60 -60v-58h4q46 79 117 108.5t171 29.5q156 0 258 -98t102 -358v-554q0 -60 -60 -60h-160q-60 0 -60 60v482q0 218 -30 275t-129 57q-105 0 -158 -81.5t-53 -338.5v-394q0 -60 -60 -60h-160q-60 0 -60 60z" />
<glyph unicode="o" horiz-adv-x="1206" d="M80 525q0 255 131.5 400t391.5 145t391.5 -145t131.5 -400t-131.5 -400t-391.5 -145t-391.5 145t-131.5 400zM376 525q0 -190 58.5 -269.5t168.5 -79.5t168.5 79.5t58.5 269.5t-58.5 269.5t-168.5 79.5t-168.5 -79.5t-58.5 -269.5z" />
<glyph unicode="p" horiz-adv-x="1192" d="M136 -340v1330q0 60 60 60h158q50 0 54 -60l4 -58h4q52 86 116 112t154 26q235 0 330.5 -162.5t95.5 -382.5t-95.5 -382.5t-330.5 -162.5q-90 0 -154 26t-116 112h-4q4 -40 4 -80v-378q0 -60 -60 -60h-160q-60 0 -60 60zM416 480q0 -135 53.5 -219.5t128.5 -84.5 q135 0 176.5 94.5t41.5 254.5t-41.5 254.5t-176.5 94.5q-75 0 -128.5 -84.5t-53.5 -219.5v-90z" />
<glyph unicode="q" horiz-adv-x="1192" d="M80 525q0 220 95.5 382.5t330.5 162.5q90 0 154 -26t116 -112h4l4 58q4 60 54 60h158q60 0 60 -60v-1330q0 -60 -60 -60h-160q-60 0 -60 60v378q0 40 4 80h-4q-52 -86 -116 -112t-154 -26q-235 0 -330.5 162.5t-95.5 382.5zM376 525q0 -160 41.5 -254.5t176.5 -94.5 q75 0 128.5 84.5t53.5 219.5v90q0 135 -53.5 219.5t-128.5 84.5q-135 0 -176.5 -94.5t-41.5 -254.5z" />
<glyph unicode="r" horiz-adv-x="786" d="M136 60v930q0 60 60 60h158q60 0 60 -60v-82h4q26 64 87 113t144 49q57 0 94 -14q28 -11 28 -36q0 -6 -1 -12l-28 -119q-6 -29 -31 -29q-10 0 -23 5q-26 9 -50 9q-96 0 -159 -115t-63 -335v-364q0 -60 -60 -60h-160q-60 0 -60 60z" />
<glyph unicode="s" horiz-adv-x="1005" d="M81 121q0 12 7 24l51 93q15 28 40 28q19 0 44 -16q57 -38 134.5 -56t141.5 -18q45 0 84 9t66 35t27 76q0 30 -16 51t-41 32t-53 18q-37 9 -106.5 30t-133.5 49q-53 23 -103.5 64.5t-74 92.5t-23.5 126q0 101 58.5 177t151.5 105t232 29q94 0 183 -27t127 -51 q40 -25 40 -53q0 -14 -10 -28l-61 -89q-15 -22 -40 -22q-21 0 -50 16q-47 26 -92.5 42t-101.5 16q-38 0 -73 -8t-59.5 -30t-24.5 -58q0 -38 22.5 -59.5t52 -31.5t56.5 -19q56 -18 113 -34.5t116 -39.5q51 -20 99 -57t70 -94t22 -130q0 -97 -58 -180t-153 -118t-221 -35 q-141 0 -240 20t-169 70q-34 24 -34 51z" />
<glyph unicode="t" horiz-adv-x="798" d="M42 900v100q0 50 59 50h68v35q0 45 21 82l77 135q22 38 52 38h70q60 0 60 -60v-230h162q59 0 59 -50v-100q0 -50 -59 -50h-162v-496q0 -102 14.5 -146.5t75.5 -44.5q31 0 70 10.5t61 20.5q35 16 46 -23l30 -114q2 -7 2 -13q0 -24 -28 -37q-33 -15 -90.5 -27.5 t-115.5 -12.5q-143 0 -244 59t-101 243v581h-68q-59 0 -59 50z" />
<glyph unicode="u" horiz-adv-x="1194" d="M134 436v554q0 60 60 60h160q60 0 60 -60v-482q0 -218 30 -275t126 -57q102 0 155 81.5t53 338.5v394q0 60 60 60h160q60 0 60 -60v-930q0 -60 -60 -60h-158q-60 0 -60 60v58h-4q-46 -79 -117 -108.5t-168 -29.5q-153 0 -255 98t-102 358z" />
<glyph unicode="v" horiz-adv-x="1008" d="M59 1012q0 38 41 38h179q47 0 60 -51l155 -586q13 -49 21.5 -97t10.5 -78h6q2 30 10.5 78t21.5 97l155 586q13 51 60 51h179q41 0 41 -38q0 -16 -8 -40l-290 -905q-21 -67 -73 -67h-198q-52 0 -73 67l-290 905q-8 23 -8 40z" />
<glyph unicode="w" horiz-adv-x="1604" d="M58 1010q0 40 39 40h169q48 0 60 -51l135 -586q12 -51 21 -98t11 -77h6q2 30 11 78.5t21 96.5l142 586q12 51 60 51h182q48 0 60 -51l142 -586q12 -48 21 -96.5t11 -78.5h6q2 30 11 77t21 98l135 586q12 51 60 51h169q39 0 39 -40q0 -16 -6 -38l-260 -905 q-19 -67 -73 -67h-181q-57 0 -73 67l-145 593q-13 51 -18.5 82t-7.5 69h-4q-2 -38 -7.5 -69t-18.5 -82l-145 -593q-16 -67 -73 -67h-181q-54 0 -73 67l-260 905q-6 22 -6 38z" />
<glyph unicode="x" horiz-adv-x="1086" d="M88 29q0 17 18 44l331 480l-292 424q-18 27 -18 44q0 29 54 29h189q45 0 68 -40l155 -270l155 270q23 40 68 40h189q55 0 55 -29q0 -17 -19 -44l-294 -424l333 -480q19 -27 19 -44q0 -29 -55 -29h-189q-44 0 -68 40l-194 326l-194 -326q-24 -40 -68 -40h-189 q-54 0 -54 29z" />
<glyph unicode="y" horiz-adv-x="990" d="M63 1013q0 37 41 37h179q46 0 60 -51l151 -559q11 -39 19.5 -100.5t8.5 -78.5h6q12 53 17.5 84.5t30.5 122.5l143 531q14 51 60 51h179q41 0 41 -38q0 -16 -8 -40l-337 -1014q-59 -178 -145 -278t-239 -100q-84 0 -150 14q-31 6 -31 36q0 8 2 16l22 110q7 33 33 33 q8 0 18 -3q31 -10 58 -10q81 0 123.5 77t56.5 132l3 15l-334 972q-8 24 -8 41z" />
<glyph unicode="z" horiz-adv-x="964" d="M52 50v76q0 52 41 108l448 616v4q-40 -4 -80 -4h-325q-60 0 -60 50v32q0 118 60 118h692q60 0 60 -50v-70q0 -49 -43 -108l-451 -622v-4q53 4 80 4h378q60 0 60 -50v-100q0 -50 -60 -50h-740q-60 0 -60 50z" />
<glyph unicode="{" horiz-adv-x="829" d="M85 503v82q0 59 49 59q53 0 112 51.5t59 235.5v285q0 167 77 223.5t331 56.5q60 0 60 -50v-100q0 -50 -60 -50q-97 0 -112.5 -47t-15.5 -110v-255q0 -164 -67 -239t-174 -100v-2q107 -25 174 -100t67 -239v-255q0 -63 15.5 -110t112.5 -47q60 0 60 -50v-100 q0 -50 -60 -50q-254 0 -331 56.5t-77 223.5v285q0 184 -59 235.5t-112 51.5q-49 0 -49 59z" />
<glyph unicode="|" horiz-adv-x="630" d="M215 -380v1816q0 60 50 60h100q50 0 50 -60v-1816q0 -60 -50 -60h-100q-50 0 -50 60z" />
<glyph unicode="}" horiz-adv-x="829" d="M56 -258q0 50 60 50q97 0 112.5 47t15.5 110v255q0 164 67 239t174 100v2q-107 25 -174 100t-67 239v255q0 63 -15.5 110t-112.5 47q-60 0 -60 50v100q0 50 60 50q254 0 331 -56.5t77 -223.5v-285q0 -184 59 -235.5t112 -51.5q49 0 49 -59v-82q0 -59 -49 -59 q-53 0 -112 -51.5t-59 -235.5v-285q0 -167 -77 -223.5t-331 -56.5q-60 0 -60 50v100z" />
<glyph unicode="~" horiz-adv-x="1280" d="M111 688q45 122 122 180t219 58q130 0 262 -106t207 -106t109 31t60 77q26 45 52 30l66 -36q31 -16 17 -54q-45 -122 -122 -180t-219 -58q-130 0 -262 106t-207 106t-109 -31t-60 -77q-26 -45 -52 -30l-66 36q-31 16 -17 54z" />
<glyph unicode="&#xa1;" horiz-adv-x="668" d="M188 -309l27 874q2 65 65 65h116q63 0 65 -65l27 -874q2 -75 -70 -75h-160q-72 0 -70 75zM192 841v134q0 75 70 75h152q70 0 70 -75v-134q0 -75 -70 -75h-152q-70 0 -70 75z" />
<glyph unicode="&#xa2;" horiz-adv-x="1200" d="M136 525q0 255 116.5 387t313.5 153v175q0 60 50 60h80q50 0 50 -60v-174q93 -9 165.5 -43.5t124.5 -113.5q31 -47 -10 -74l-106 -70q-45 -30 -79 23q-17 26 -48 45.5t-47 25.5v-670q23 8 57 31t79 78q38 46 80 13l93 -73q42 -33 5 -88q-39 -58 -120 -106.5t-194 -59.5 v-174q0 -60 -50 -60h-80q-50 0 -50 60v175q-197 21 -313.5 153t-116.5 387zM432 525q0 -190 43.5 -251.5t90.5 -81.5v666q-47 -20 -90.5 -81.5t-43.5 -251.5z" />
<glyph unicode="&#xa3;" horiz-adv-x="1200" d="M70 65v59q0 53 41 88q44 37 86.5 89.5t42.5 188.5v93h-101q-64 0 -64 65v118q0 65 65 65h100v142q0 251 129 367t342 116q101 0 186 -30t153 -103q48 -52 21 -84l-70 -84q-43 -52 -93 0q-40 41 -90 59t-109 18q-97 0 -143 -56.5t-46 -165.5v-179h237q65 0 65 -65v-118 q0 -65 -64 -65h-238v-88q0 -91 -17 -150t-54 -95v-6q60 4 100 4h500q75 0 75 -65v-118q0 -65 -75 -65h-904q-75 0 -75 65z" />
<glyph unicode="&#xa4;" horiz-adv-x="2127" d="M753 596v114q0 50 60 50h474q60 0 60 -50v-114q0 -50 -60 -50h-474q-60 0 -60 50z" />
<glyph unicode="&#xa5;" horiz-adv-x="2424" d="M793 622v114q0 45 44 44h772q45 0 45 -45v-114q0 -45 -44 -45h-772q-45 1 -45 46zM1078 327q0 55 42 95t102 40q59 0 101 -40t42 -95q0 -54 -42 -94t-101 -40q-60 0 -102 40t-42 94zM1078 1027q0 55 42 95t102 40q59 0 101 -40t42 -95q0 -54 -42 -94t-101 -40 q-60 0 -102 40t-42 94z" />
<glyph unicode="&#xa6;" horiz-adv-x="1793" d="M123 0v1434h1331v-1434h-1331zM287 266l102 -102l399 444l400 -444l102 102l-405 451l405 450l-102 103l-400 -445l-399 445l-102 -103l403 -450z" />
<glyph unicode="&#xa7;" horiz-adv-x="1430" d="M150 682v86q0 50 60 50h412v412q0 60 50 60h86q50 0 50 -60v-412h412q60 0 60 -50v-86q0 -50 -60 -50h-412v-412q0 -60 -50 -60h-86q-50 0 -50 60v412h-412q-60 0 -60 50z" />
<glyph unicode="&#xa8;" horiz-adv-x="2688" d="M123 0v1434h1331v-1434h-1331zM287 266l102 -102l399 444l400 -444l102 102l-405 451l405 450l-102 103l-400 -445l-399 445l-102 -103l403 -450z" />
<glyph unicode="&#xa9;" horiz-adv-x="1880" d="M485 377q-35 36 7 78l278 277l-263 263q-43 43 -8 78l97 96q35 36 77 -7l263 -263l271 270q42 43 77 7l104 -103q35 -35 -7 -78l-271 -270l278 -277q42 -43 7 -78l-96 -96q-36 -35 -78 7l-277 277l-278 -277q-42 -42 -77 -7z" />
<glyph unicode="&#xaa;" horiz-adv-x="2090" d="M480 399v153h1130v-153h-1130zM480 789v153h1130v-153h-1130zM708 270l655 888l98 -74l-655 -888z" />
<glyph unicode="&#xab;" horiz-adv-x="2042" d="M461 199v153h1102v-153h-1102zM461 549v153h1102v-153h-1102zM464 998q45 122 122 180t219 58q130 0 262 -106t207 -106t109 31t60 77q26 45 52 30l66 -36q31 -16 17 -54q-45 -122 -122 -180t-219 -58q-130 0 -262 106t-207 106t-109 -31t-60 -77q-26 -45 -52 -30l-66 36 q-31 16 -17 54z" />
<glyph unicode="&#xac;" horiz-adv-x="2042" d="M464 488q45 122 122 180t219 58q130 0 262 -106t207 -106t109 31t60 77q26 45 52 30l66 -36q31 -16 17 -54q-45 -122 -122 -180t-219 -58q-130 0 -262 106t-207 106t-109 -31t-60 -77q-26 -45 -52 -30l-66 36q-31 16 -17 54zM464 908q45 122 122 180t219 58 q130 0 262 -106t207 -106t109 31t60 77q26 45 52 30l66 -36q31 -16 17 -54q-45 -122 -122 -180t-219 -58q-130 0 -262 106t-207 106t-109 -31t-60 -77q-26 -45 -52 -30l-66 36q-31 16 -17 54z" />
<glyph unicode="&#xad;" horiz-adv-x="700" d="M53 496v114q0 50 60 50h474q60 0 60 -50v-114q0 -50 -60 -50h-474q-60 0 -60 50z" />
<glyph unicode="&#xae;" horiz-adv-x="1539" d="M145 1287q-17 -98 32 -135q25 -19 75 -41q393 -106 682 -141q309 -130 420 -318q51 245 59 277q-363 99 -601 127q-180 22 -322 8q-174 -18 -235 -74q-37 -31 -57 -144q-21 -115 5 -157q15 -26 88 -61q98 -46 365 -124q32 -10 156 -45q96 -29 156 -46q68 -21 108 -36 q19 -8 32 -14q5 -3 11 -7q-9 8 -5 4q-4 4 -6 34q5 68 7 102v-1q24 85 28 99q12 30 16 32q3 0 -3 -5t-14 -9q-7 -4 -28 -6q-32 -4 -88 7q-59 10 -212 60q-170 55 -191 60q-122 26 -191 -17q-29 -18 -58 -77q-43 -88 -47 -221q-5 -113 85 -180q42 -31 183 -97 q119 -54 170 -111q18 -18 28 -43q-3 10 -1 -1q-1 14 -1 29q2 64 25 123q6 12 -1 -1q-42 -73 -46 -192q-1 -28 6 -56q11 -38 31 -3q46 83 65 179q19 108 -10 188q-21 61 -128 123q-36 22 -97 51q-78 38 -99 49q-106 56 -129 111q1 -4 1 -12q8 -71 -23 -146q-3 -5 1 0 q-1 -2 5 4q23 19 67 23q65 5 197 -33q39 -11 112 -35q76 -25 110 -35q121 -36 186 -31q37 4 64 23q15 11 27 40q42 101 35 202q-2 31 -17 48q-11 12 -44 25q-53 20 -330 101q-275 79 -394 125q-84 31 -122 59q1 -1 -10 12q-7 7 -2 -6q4 -13 -11 -110q-16 -107 -36 -127 q2 1 6 6q17 11 65 29q111 42 272 34q71 -4 703 -113q41 -9 92 -24q25 -8 51 98q33 135 7 179q-110 188 -423 325q-301 132 -692 165q-47 4 -86 -15q-61 -30 -74 -111z" />
<glyph unicode="&#xaf;" horiz-adv-x="1671" d="M124 -2v1408h1408v-1408h-1408z" />
<glyph unicode="&#xb0;" horiz-adv-x="1407" d="M126 713l577 719l582 -714l-578 -719z" />
<glyph unicode="&#xb1;" horiz-adv-x="1665" d="M120 706q0 292 206 498.5t498 206.5t498 -206.5t206 -498.5q0 -291 -206 -497.5t-498 -206.5t-498 206.5t-206 497.5z" />
<glyph unicode="&#xb2;" horiz-adv-x="1885" d="M127 -1h1628l-814 1410z" />
<glyph unicode="&#xb3;" horiz-adv-x="1307" d="M163 703q0 291 148 497t357 206t357 -206t148 -497t-148 -497t-357 -206t-357 206t-148 497z" />
<glyph unicode="&#xb4;" horiz-adv-x="1169" d="M180 1260q41 72 155 140t288 68q237 0 349.5 -107t112.5 -293q0 -141 -165.5 -304.5t-165.5 -269.5v-16q0 -65 -65 -65h-150q-65 0 -65 65v30q0 164 155.5 326t155.5 240q0 81 -37.5 125.5t-134.5 44.5q-86 0 -139 -39t-87 -95q-33 -55 -89 -19l-105 67q-52 33 -13 102z M468 75v134q0 75 70 75h152q70 0 70 -75v-134q0 -75 -70 -75h-152q-70 0 -70 75z" />
<glyph unicode="&#xb5;" horiz-adv-x="1796" d="M125 0v210h1533v-210h-1533z" />
<glyph unicode="&#xb6;" horiz-adv-x="1140" d="M126 -10v152l1068 1075l165 -160l-868 -867h1042v-200h-1407z" />
<glyph unicode="&#xb7;" horiz-adv-x="1990" d="M129 -7h1731l-865 1499zM455 188l535 925l534 -925h-1069z" />
<glyph unicode="&#xb8;" horiz-adv-x="2284" d="M195 1157v149h1656v-149h-1656zM294 1157v149h1557v-149h-1557zM1828 1051l314 182l-314 181v-101h1v-182h-1v-80z" />
<glyph unicode="&#xb9;" horiz-adv-x="2305" d="M161 1233l314 -182v80h-1v182h1v101zM297 1157v149h1557v-149h-1557zM297 1157v149h1557v-149h-1557zM1831 1051l314 182l-314 181v-101h1v-182h-1v-80z" />
<glyph unicode="&#xba;" horiz-adv-x="2268" d="M148 1233l314 -182v80h-1v182h1v101zM284 1157v149h1557v-149h-1557zM284 1157v149h1557v-149h-1557zM1818 1051l314 182l-314 181v-101h1v-182h-1v-80z" />
<glyph unicode="&#xbb;" horiz-adv-x="1923" d="M645 -380v1816q0 60 50 60h100q50 0 50 -60v-1816q0 -60 -50 -60h-100q-50 0 -50 60zM1045 -380v1816q0 60 50 60h100q50 0 50 -60v-1816q0 -60 -50 -60h-100q-50 0 -50 60z" />
<glyph unicode="&#xbc;" horiz-adv-x="2562" d="M513 0v190h1422v-190h-1422zM1133 82l1 1332h190v-1332h-191z" />
<glyph unicode="&#xbd;" horiz-adv-x="1776" d="M36 1212q50 27 129.5 46.5t204.5 19.5h894l-19 -209h-141v-737q0 -116 9.5 -198.5t51.5 -133.5h-251q-18 36 -29.5 114t-11.5 206v749h-339q-3 -41 -10.5 -125t-18 -234.5t-25 -242.5t-31 -177t-35 -159.5t-39.5 -130.5h-229q21 63 39.5 140.5t35 162.5t31 174.5t25 238 t18 230.5t10.5 123q-88 -2 -143.5 -9t-94.5 -18z" />
<glyph unicode="&#xbe;" horiz-adv-x="733" d="M144 1240q0 93 65.5 158.5t158.5 65.5t158.5 -65.5t65.5 -158.5t-65.5 -158.5t-158.5 -65.5t-158.5 65.5t-65.5 158.5zM284 1240q0 -36 24 -60t60 -24t60 24t24 60t-24 60t-60 24t-60 -24t-24 -60z" />
<glyph unicode="&#xbf;" horiz-adv-x="2018" d="M450 782v92q0 34 40 55l941 501q53 28 77 -16l37 -71q23 -44 -29 -72l-834 -442v-2l834 -442q52 -28 29 -72l-37 -71q-24 -44 -77 -16l-941 501q-40 21 -40 55zM455 55v84q0 45 44 44h1022q45 0 45 -45v-84q0 -45 -44 -45h-1022q-45 1 -45 46z" />
<glyph unicode="&#xc0;" horiz-adv-x="2018" d="M452 41v84q0 45 45 45h1022q44 1 44 -44v-84q0 -45 -45 -46h-1022q-44 0 -44 45zM473 313q-23 44 29 72l834 442v2l-834 442q-52 28 -29 72l37 71q24 44 77 16l941 -501q40 -21 40 -55v-92q0 -34 -40 -55l-941 -501q-53 -28 -77 16z" />
<glyph unicode="&#xc1;" horiz-adv-x="1428" d="M131 75v1284q0 75 70 75h464q323 0 461 -108t138 -315q0 -144 -109.5 -253.5t-310.5 -119.5v-2q64 -38 130.5 -112.5t95.5 -117.5l214 -320q58 -86 -38 -86h-189q-52 0 -90 59l-209 323q-59 91 -118 141t-156 50h-61v-498q0 -75 -70 -75h-152q-70 0 -70 75zM423 817h190 q141 0 248 32.5t107 163.5q0 97 -83 137t-234 40h-228v-373z" />
<glyph unicode="&#xc2;" horiz-adv-x="2181" d="M126 1110q0 130 89 222t216 92t216 -92t89 -222t-89 -222t-216 -92t-216 92t-89 222zM317 1110q0 -50 32.5 -84t81.5 -34t81.5 34t32.5 84t-32.5 84t-81.5 34t-81.5 -34t-32.5 -84zM826 717q0 345 175 548t505 203q190 0 322 -59t186 -171q36 -74 -12 -100l-120 -64 q-63 -34 -104 38q-26 46 -96.5 83t-165.5 37q-210 0 -294 -132.5t-84 -382.5t84 -382.5t294 -132.5q113 0 190.5 51t107.5 97q49 75 104 38l120 -80q49 -33 10 -100q-58 -100 -199 -171t-343 -71q-325 0 -502.5 203t-177.5 548z" />
<glyph unicode="&#xc3;" horiz-adv-x="1933" d="M126 1110q0 130 89 222t216 92t216 -92t89 -222t-89 -222t-216 -92t-216 92t-89 222zM317 1110q0 -50 32.5 -84t81.5 -34t81.5 34t32.5 84t-32.5 84t-81.5 34t-81.5 -34t-32.5 -84zM860 75v1284q0 75 70 75h791q75 0 75 -65v-118q0 -65 -75 -65h-569v-348h487 q75 0 75 -65v-118q0 -65 -75 -65h-487v-515q0 -75 -70 -75h-152q-70 0 -70 75z" />
<glyph unicode="&#xc4;" horiz-adv-x="1317" />
<glyph unicode="&#xc5;" horiz-adv-x="1148" d="M215 -180v1816q0 60 50 60h100q50 0 50 -60v-1816q0 -60 -50 -60h-100q-50 0 -50 60z" />
<glyph unicode="&#xc6;" horiz-adv-x="1570" d="M146 1300q0 122 86 208t209 86q122 0 208 -86t86 -208q0 -123 -86 -209t-208 -86q-123 0 -209 86t-86 209zM169 129l1021 1458q35 50 76 21l70 -49q41 -29 7 -78l-1021 -1458q-35 -50 -76 -21l-70 49q-41 29 -7 78zM330 1300q0 -48 31.5 -79.5t79.5 -31.5q47 0 78.5 31.5 t31.5 79.5q0 47 -31.5 78.5t-78.5 31.5q-48 0 -79.5 -31.5t-31.5 -78.5zM846 290q0 122 86 208t209 86q122 0 208 -86t86 -208q0 -123 -86 -209t-208 -86q-123 0 -209 86t-86 209zM1030 290q0 -48 31.5 -79.5t79.5 -31.5q47 0 78.5 31.5t31.5 79.5q0 47 -31.5 78.5 t-78.5 31.5q-48 0 -79.5 -31.5t-31.5 -78.5z" />
<glyph unicode="&#xc7;" horiz-adv-x="1192" d="M446 654v142q0 79 72 79h156q72 0 72 -79v-142q0 -79 -72 -79h-156q-72 0 -72 79z" />
<glyph unicode="&#xc8;" horiz-adv-x="1280" d="M439 1724q-66 61 24 61h176q78 0 109 -47l88 -134q42 -64 -25 -64h-103q-70 0 -111 38zM160 75v1284q0 75 70 75h858q75 0 75 -65v-118q0 -65 -75 -65h-636v-318h583q75 0 75 -65v-118q0 -65 -75 -65h-583v-372h668q75 0 75 -65v-118q0 -65 -75 -65h-890q-70 0 -70 75z " />
<glyph unicode="&#xc9;" horiz-adv-x="1280" d="M520 1604l88 134q31 47 109 47h176q90 0 24 -61l-158 -146q-41 -38 -111 -38h-103q-67 0 -25 64zM160 75v1284q0 75 70 75h858q75 0 75 -65v-118q0 -65 -75 -65h-636v-318h583q75 0 75 -65v-118q0 -65 -75 -65h-583v-372h668q75 0 75 -65v-118q0 -65 -75 -65h-890 q-70 0 -70 75z" />
<glyph unicode="&#xca;" horiz-adv-x="1280" d="M290 1585q-19 47 39 70l244 98q32 13 75 13h60q43 0 75 -13l244 -98q58 -23 39 -70l-20 -50q-19 -47 -76 -23l-291 120h-2l-291 -120q-57 -24 -76 23zM160 75v1284q0 75 70 75h858q75 0 75 -65v-118q0 -65 -75 -65h-636v-318h583q75 0 75 -65v-118q0 -65 -75 -65h-583 v-372h668q75 0 75 -65v-118q0 -65 -75 -65h-890q-70 0 -70 75z" />
<glyph unicode="&#xcb;" horiz-adv-x="1280" d="M275 1605v106q0 75 70 75h152q70 0 70 -75v-106q0 -75 -70 -75h-152q-70 0 -70 75zM783 1605v106q0 75 70 75h152q70 0 70 -75v-106q0 -75 -70 -75h-152q-70 0 -70 75zM160 75v1284q0 75 70 75h858q75 0 75 -65v-118q0 -65 -75 -65h-636v-318h583q75 0 75 -65v-118 q0 -65 -75 -65h-583v-372h668q75 0 75 -65v-118q0 -65 -75 -65h-890q-70 0 -70 75z" />
<glyph unicode="&#xcc;" horiz-adv-x="612" d="M199 1724q-66 61 24 61h176q78 0 109 -47l88 -134q42 -64 -25 -64h-103q-70 0 -111 38zM292 75v1284q0 75 70 75h152q70 0 70 -75v-1284q0 -75 -70 -75h-152q-70 0 -70 75z" />
<glyph unicode="&#xcd;" horiz-adv-x="612" d="M232 1604l88 134q31 47 109 47h176q90 0 24 -61l-158 -146q-41 -38 -111 -38h-103q-67 0 -25 64zM244 75v1284q0 75 70 75h152q70 0 70 -75v-1284q0 -75 -70 -75h-152q-70 0 -70 75z" />
<glyph unicode="&#xce;" horiz-adv-x="612" d="M-44 1585q-19 47 39 70l244 98q32 13 75 13h60q43 0 75 -13l244 -98q58 -23 39 -70l-20 -50q-19 -47 -76 -23l-291 120h-2l-291 -120q-57 -24 -76 23zM198 75v1284q0 75 70 75h152q70 0 70 -75v-1284q0 -75 -70 -75h-152q-70 0 -70 75z" />
<glyph unicode="&#xcf;" horiz-adv-x="612" d="M160 75v1284q0 75 70 75h152q70 0 70 -75v-1284q0 -75 -70 -75h-152q-70 0 -70 75zM-54 1605v106q0 75 70 75h132q70 0 70 -75v-106q0 -75 -70 -75h-132q-70 0 -70 75zM394 1605v106q0 75 70 75h132q70 0 70 -75v-106q0 -75 -70 -75h-132q-70 0 -70 75z" />
<glyph unicode="&#xd0;" horiz-adv-x="1500" d="M30 677v118q0 65 75 65h105v499q0 75 70 75h349q460 0 622.5 -186t162.5 -529t-162.5 -531t-622.5 -188h-349q-70 0 -70 75v537h-105q-75 0 -75 65zM502 248h108q310 0 401 115.5t91 355.5t-91 354.5t-401 114.5h-108v-328h239q75 0 75 -65v-118q0 -65 -75 -65h-239v-364 z" />
<glyph unicode="&#xd1;" horiz-adv-x="1472" d="M349 1647q37 61 92 99.5t153 38.5q70 0 164 -46t133 -46q35 0 67.5 17t48.5 42q27 42 60 22l48 -29q34 -21 8 -64q-37 -61 -92 -99.5t-153 -38.5q-74 0 -164 46t-133 46q-35 0 -67.5 -17t-48.5 -42q-27 -42 -60 -22l-48 29q-34 21 -8 64zM160 75v1284q0 75 70 75h148 q86 0 130 -70l510 -819h7q-5 60 -5 120v694q0 75 70 75h152q70 0 70 -75v-1284q0 -75 -70 -75h-138q-86 0 -130 70l-520 834h-7q5 -60 5 -120v-709q0 -75 -70 -75h-152q-70 0 -70 75z" />
<glyph unicode="&#xd2;" horiz-adv-x="1544" d="M533 1724q-66 61 24 61h176q78 0 109 -47l88 -134q42 -64 -25 -64h-103q-70 0 -111 38zM86 717q0 345 178 548t508 203t508 -203t178 -548t-178 -548t-508 -203t-508 203t-178 548zM398 717q0 -250 89.5 -382.5t284.5 -132.5t284.5 132.5t89.5 382.5t-89.5 382.5 t-284.5 132.5t-284.5 -132.5t-89.5 -382.5z" />
<glyph unicode="&#xd3;" horiz-adv-x="1544" d="M86 717q0 345 178 548t508 203t508 -203t178 -548t-178 -548t-508 -203t-508 203t-178 548zM398 717q0 -250 89.5 -382.5t284.5 -132.5t284.5 132.5t89.5 382.5t-89.5 382.5t-284.5 132.5t-284.5 -132.5t-89.5 -382.5zM614 1604l88 134q31 47 109 47h176q90 0 24 -61 l-158 -146q-41 -38 -111 -38h-103q-67 0 -25 64z" />
<glyph unicode="&#xd4;" horiz-adv-x="1544" d="M384 1585q-19 47 39 70l244 98q32 13 75 13h60q43 0 75 -13l244 -98q58 -23 39 -70l-20 -50q-19 -47 -76 -23l-291 120h-2l-291 -120q-57 -24 -76 23zM86 717q0 345 178 548t508 203t508 -203t178 -548t-178 -548t-508 -203t-508 203t-178 548zM398 717 q0 -250 89.5 -382.5t284.5 -132.5t284.5 132.5t89.5 382.5t-89.5 382.5t-284.5 132.5t-284.5 -132.5t-89.5 -382.5z" />
<glyph unicode="&#xd5;" horiz-adv-x="1544" d="M385 1647q37 61 92 99.5t153 38.5q70 0 164 -46t133 -46q35 0 67.5 17t48.5 42q27 42 60 22l48 -29q34 -21 8 -64q-37 -61 -92 -99.5t-153 -38.5q-74 0 -164 46t-133 46q-35 0 -67.5 -17t-48.5 -42q-27 -42 -60 -22l-48 29q-34 21 -8 64zM86 717q0 345 178 548t508 203 t508 -203t178 -548t-178 -548t-508 -203t-508 203t-178 548zM398 717q0 -250 89.5 -382.5t284.5 -132.5t284.5 132.5t89.5 382.5t-89.5 382.5t-284.5 132.5t-284.5 -132.5t-89.5 -382.5z" />
<glyph unicode="&#xd6;" horiz-adv-x="1544" d="M86 717q0 345 178 548t508 203t508 -203t178 -548t-178 -548t-508 -203t-508 203t-178 548zM398 717q0 -250 89.5 -382.5t284.5 -132.5t284.5 132.5t89.5 382.5t-89.5 382.5t-284.5 132.5t-284.5 -132.5t-89.5 -382.5zM377 1605v106q0 75 70 75h152q70 0 70 -75v-106 q0 -75 -70 -75h-152q-70 0 -70 75zM885 1605v106q0 75 70 75h152q70 0 70 -75v-106q0 -75 -70 -75h-152q-70 0 -70 75z" />
<glyph unicode="&#xd7;" horiz-adv-x="1280" d="M279 356q-35 35 7 78l291 291l-291 292q-42 42 -7 77l61 61q35 35 78 -7l291 -291l291 291q42 42 78 7l61 -61q35 -35 -7 -77l-292 -292l292 -291q42 -42 7 -78l-61 -61q-35 -35 -78 7l-291 292l-291 -292q-42 -42 -78 -7z" />
<glyph unicode="&#xd9;" horiz-adv-x="1422" d="M472 1724q-66 61 24 61h176q78 0 109 -47l88 -134q42 -64 -25 -64h-103q-70 0 -111 38zM160 597v782q0 55 70 55h152q70 0 70 -55v-772q0 -270 79.5 -337.5t179.5 -67.5t179.5 67.5t79.5 337.5v772q0 55 70 55h152q70 0 70 -55v-782q0 -350 -148 -490.5t-403 -140.5 t-403 140.5t-148 490.5z" />
<glyph unicode="&#xda;" horiz-adv-x="1422" d="M553 1604l88 134q31 47 109 47h176q90 0 24 -61l-158 -146q-41 -38 -111 -38h-103q-67 0 -25 64zM160 597v782q0 55 70 55h152q70 0 70 -55v-772q0 -270 79.5 -337.5t179.5 -67.5t179.5 67.5t79.5 337.5v772q0 55 70 55h152q70 0 70 -55v-782q0 -350 -148 -490.5 t-403 -140.5t-403 140.5t-148 490.5z" />
<glyph unicode="&#xdb;" horiz-adv-x="1422" d="M323 1585q-19 47 39 70l244 98q32 13 75 13h60q43 0 75 -13l244 -98q58 -23 39 -70l-20 -50q-19 -47 -76 -23l-291 120h-2l-291 -120q-57 -24 -76 23zM160 597v782q0 55 70 55h152q70 0 70 -55v-772q0 -270 79.5 -337.5t179.5 -67.5t179.5 67.5t79.5 337.5v772 q0 55 70 55h152q70 0 70 -55v-782q0 -350 -148 -490.5t-403 -140.5t-403 140.5t-148 490.5z" />
<glyph unicode="&#xdc;" horiz-adv-x="1422" d="M311 1605v106q0 75 70 75h152q70 0 70 -75v-106q0 -75 -70 -75h-152q-70 0 -70 75zM819 1605v106q0 75 70 75h152q70 0 70 -75v-106q0 -75 -70 -75h-152q-70 0 -70 75zM160 597v782q0 55 70 55h152q70 0 70 -55v-772q0 -270 79.5 -337.5t179.5 -67.5t179.5 67.5 t79.5 337.5v772q0 55 70 55h152q70 0 70 -55v-782q0 -350 -148 -490.5t-403 -140.5t-403 140.5t-148 490.5z" />
<glyph unicode="&#xdd;" horiz-adv-x="1368" d="M577 1604l88 134q31 47 109 47h176q90 0 24 -61l-158 -146q-41 -38 -111 -38h-103q-67 0 -25 64zM85 1397q0 37 64 37h175q52 0 92 -69l213 -371q9 -15 53 -93.5t51 -152.5h4q7 74 51 152.5t53 93.5l213 371q40 69 92 69h175q64 0 64 -37q0 -20 -17 -49l-487 -823v-470 q0 -55 -70 -55h-152q-70 0 -70 55v470l-487 823q-17 29 -17 49z" />
<glyph unicode="&#xdf;" horiz-adv-x="1337" d="M136 60v1050q0 201 152.5 293.5t365.5 92.5q240 0 353 -101t113 -245q0 -118 -69 -204t-187 -148v-3q160 -11 269.5 -118t109.5 -301q0 -164 -105.5 -280t-337.5 -116q-62 0 -130 13t-111 41q-41 26 -25 64l46 110q19 46 66 13q20 -14 57.5 -29.5t76.5 -15.5 q74 0 120.5 60t46.5 163q0 101 -67.5 169t-193.5 72q-27 1 -39 35l-45 132q-9 28 24 52l56 41q100 73 129 119.5t29 121.5q0 67 -41 113t-143 46q-104 0 -172 -52t-68 -208v-980q0 -60 -60 -60h-160q-60 0 -60 60z" />
<glyph unicode="&#xe0;" horiz-adv-x="1123" d="M321 1376q-52 59 22 59h152q78 0 106 -47l108 -179q36 -59 -21 -59h-101q-69 0 -101 37zM80 280q0 200 191 290t436 96v40q0 92 -46 130t-128 38q-69 0 -134 -32t-104 -66q-24 -21 -44 -21q-18 0 -32 17l-83 102q-12 15 -12 31q0 23 27 47q53 47 153.5 82.5t251.5 35.5 q208 0 319.5 -96t111.5 -283v-631q0 -60 -60 -60h-164q-54 0 -54 60v30h-2q-59 -57 -141.5 -83.5t-151.5 -26.5q-164 0 -249 80.5t-85 219.5zM376 286q0 -73 46 -91.5t79 -18.5q51 0 99 14t107 66v217q-167 -14 -249 -63.5t-82 -123.5z" />
<glyph unicode="&#xe1;" horiz-adv-x="1123" d="M391 1260q41 72 155 140t288 68q237 0 349.5 -107t112.5 -293q0 -141 -165.5 -304.5t-165.5 -269.5v-16q0 -65 -65 -65h-150q-65 0 -65 65v30q0 164 155.5 326t155.5 240q0 81 -37.5 125.5t-134.5 44.5q-86 0 -139 -39t-87 -95q-33 -55 -89 -19l-105 67q-52 33 -13 102z M679 75v134q0 75 70 75h152q70 0 70 -75v-134q0 -75 -70 -75h-152q-70 0 -70 75zM80 280q0 200 191 290t436 96v40q0 92 -46 130t-128 38q-69 0 -134 -32t-104 -66q-24 -21 -44 -21q-18 0 -32 17l-83 102q-12 15 -12 31q0 23 27 47q53 47 153.5 82.5t251.5 35.5 q208 0 319.5 -96t111.5 -283v-631q0 -60 -60 -60h-164q-54 0 -54 60v30h-2q-59 -57 -141.5 -83.5t-151.5 -26.5q-164 0 -249 80.5t-85 219.5zM376 286q0 -73 46 -91.5t79 -18.5q51 0 99 14t107 66v217q-167 -14 -249 -63.5t-82 -123.5z" />
<glyph unicode="&#xe2;" horiz-adv-x="1123" d="M241 1186q-29 41 21 76l207 145q39 27 68 27h38q29 0 68 -27l207 -145q50 -35 21 -76l-25 -36q-30 -41 -78 -6l-211 151h-2l-211 -151q-49 -35 -78 6zM80 280q0 200 191 290t436 96v40q0 92 -46 130t-128 38q-69 0 -134 -32t-104 -66q-24 -21 -44 -21q-18 0 -32 17 l-83 102q-12 15 -12 31q0 23 27 47q53 47 153.5 82.5t251.5 35.5q208 0 319.5 -96t111.5 -283v-631q0 -60 -60 -60h-164q-54 0 -54 60v30h-2q-59 -57 -141.5 -83.5t-151.5 -26.5q-164 0 -249 80.5t-85 219.5zM376 286q0 -73 46 -91.5t79 -18.5q51 0 99 14t107 66v217 q-167 -14 -249 -63.5t-82 -123.5z" />
<glyph unicode="&#xe3;" horiz-adv-x="1123" d="M222 1245q22 63 77.5 107t135.5 44q68 0 144 -52t111 -52q31 0 52.5 13.5t36.5 43.5q21 43 54 28l42 -19q31 -14 15 -61q-22 -63 -77.5 -107t-135.5 -44q-68 0 -144 52t-111 52q-31 0 -52.5 -13.5t-36.5 -43.5q-21 -43 -54 -28l-42 19q-31 14 -15 61zM80 280 q0 200 191 290t436 96v40q0 92 -46 130t-128 38q-69 0 -134 -32t-104 -66q-24 -21 -44 -21q-18 0 -32 17l-83 102q-12 15 -12 31q0 23 27 47q53 47 153.5 82.5t251.5 35.5q208 0 319.5 -96t111.5 -283v-631q0 -60 -60 -60h-164q-54 0 -54 60v30h-2q-59 -57 -141.5 -83.5 t-151.5 -26.5q-164 0 -249 80.5t-85 219.5zM376 286q0 -73 46 -91.5t79 -18.5q51 0 99 14t107 66v217q-167 -14 -249 -63.5t-82 -123.5z" />
<glyph unicode="&#xe4;" horiz-adv-x="1123" d="M80 280q0 200 191 290t436 96v40q0 92 -46 130t-128 38q-69 0 -134 -32t-104 -66q-24 -21 -44 -21q-18 0 -32 17l-83 102q-12 15 -12 31q0 23 27 47q53 47 153.5 82.5t251.5 35.5q208 0 319.5 -96t111.5 -283v-631q0 -60 -60 -60h-164q-54 0 -54 60v30h-2 q-59 -57 -141.5 -83.5t-151.5 -26.5q-164 0 -249 80.5t-85 219.5zM376 286q0 -73 46 -91.5t79 -18.5q51 0 99 14t107 66v217q-167 -14 -249 -63.5t-82 -123.5zM374 0v1434h1331v-1434h-1331zM538 266l102 -102l399 444l400 -444l102 102l-405 451l405 450l-102 103 l-400 -445l-399 445l-102 -103l403 -450z" />
<glyph unicode="&#xe5;" horiz-adv-x="1123" d="M367 1313q0 77 55 131.5t134 54.5t134 -54.5t55 -131.5t-55 -131.5t-134 -54.5t-134 54.5t-55 131.5zM462 1313q0 -40 27 -67t67 -27t67 27t27 67t-27 67t-67 27t-67 -27t-27 -67zM80 280q0 200 191 290t436 96v40q0 92 -46 130t-128 38q-69 0 -134 -32t-104 -66 q-24 -21 -44 -21q-18 0 -32 17l-83 102q-12 15 -12 31q0 23 27 47q53 47 153.5 82.5t251.5 35.5q208 0 319.5 -96t111.5 -283v-631q0 -60 -60 -60h-164q-54 0 -54 60v30h-2q-59 -57 -141.5 -83.5t-151.5 -26.5q-164 0 -249 80.5t-85 219.5zM376 286q0 -73 46 -91.5t79 -18.5 q51 0 99 14t107 66v217q-167 -14 -249 -63.5t-82 -123.5z" />
<glyph unicode="&#xe6;" horiz-adv-x="1765" d="M80 280q0 200 188.5 290t428.5 96v40q0 92 -46 130t-124 38q-64 0 -128.5 -32t-103.5 -66q-46 -40 -76 -4l-83 102q-31 38 15 78q53 47 154 82.5t247 35.5q84 0 164.5 -19.5t142.5 -74.5h3q50 48 132 71t166 23q268 0 395.5 -138t127.5 -444q0 -60 -56 -60h-650 q11 -148 77 -200t148 -52q68 0 122 21t86 61q36 45 84 14l93 -61q58 -38 17 -86q-61 -73 -140.5 -109t-256.5 -36q-163 0 -264 39t-164 127h-2q-63 -70 -161 -118t-192 -48q-178 0 -261 80.5t-83 219.5zM376 286q0 -73 44.5 -91.5t74.5 -18.5q48 0 100 24t115 84 q-11 76 -13 189q-162 -14 -241.5 -63.5t-79.5 -123.5zM977 628h426q0 108 -51.5 176.5t-169.5 68.5q-94 0 -147 -65.5t-58 -179.5z" />
<glyph unicode="&#xe7;" horiz-adv-x="1086" d="M80 525q0 255 128 400t393 145q155 0 241 -41t138 -120q13 -20 13 -37q0 -22 -23 -37l-106 -70q-16 -11 -31 -11q-26 0 -48 34q-17 26 -65 56t-119 30q-113 0 -169 -79.5t-56 -269.5t56 -269.5t169 -79.5q81 0 131 34t94 88q22 27 46 27q17 0 34 -14l93 -73 q22 -18 22 -41q0 -21 -17 -47q-39 -58 -132.5 -114t-270.5 -56q-265 0 -393 145t-128 400zM449 1157v149h1656v-149h-1656zM548 1157v149h1557v-149h-1557zM2082 1051l314 182l-314 181v-101h1v-182h-1v-80z" />
<glyph unicode="&#xe8;" horiz-adv-x="1174" d="M329 1376q-52 59 22 59h152q78 0 106 -47l108 -179q36 -59 -21 -59h-101q-69 0 -101 37zM80 525q0 253 126.5 399t357.5 146q268 0 398 -138t130 -444q0 -60 -56 -60h-660q16 -166 82 -209t153 -43q83 0 127 22t74 60q20 26 46 26q18 0 38 -12l100 -61q34 -21 34 -47 q0 -18 -17 -39q-61 -73 -143 -109t-259 -36q-287 0 -409 146t-122 399zM377 628h435q0 108 -54 176.5t-172 68.5q-94 0 -149 -65.5t-60 -179.5z" />
<glyph unicode="&#xe9;" horiz-adv-x="1174" d="M399 1260q41 72 155 140t288 68q237 0 349.5 -107t112.5 -293q0 -141 -165.5 -304.5t-165.5 -269.5v-16q0 -65 -65 -65h-150q-65 0 -65 65v30q0 164 155.5 326t155.5 240q0 81 -37.5 125.5t-134.5 44.5q-86 0 -139 -39t-87 -95q-33 -55 -89 -19l-105 67q-52 33 -13 102z M687 75v134q0 75 70 75h152q70 0 70 -75v-134q0 -75 -70 -75h-152q-70 0 -70 75zM80 525q0 253 126.5 399t357.5 146q268 0 398 -138t130 -444q0 -60 -56 -60h-660q16 -166 82 -209t153 -43q83 0 127 22t74 60q20 26 46 26q18 0 38 -12l100 -61q34 -21 34 -47q0 -18 -17 -39 q-61 -73 -143 -109t-259 -36q-287 0 -409 146t-122 399zM377 628h435q0 108 -54 176.5t-172 68.5q-94 0 -149 -65.5t-60 -179.5z" />
<glyph unicode="&#xea;" horiz-adv-x="1174" d="M249 1186q-29 41 21 76l207 145q39 27 68 27h38q29 0 68 -27l207 -145q50 -35 21 -76l-25 -36q-30 -41 -78 -6l-211 151h-2l-211 -151q-49 -35 -78 6zM80 525q0 253 126.5 399t357.5 146q268 0 398 -138t130 -444q0 -60 -56 -60h-660q16 -166 82 -209t153 -43 q83 0 127 22t74 60q20 26 46 26q18 0 38 -12l100 -61q34 -21 34 -47q0 -18 -17 -39q-61 -73 -143 -109t-259 -36q-287 0 -409 146t-122 399zM377 628h435q0 108 -54 176.5t-172 68.5q-94 0 -149 -65.5t-60 -179.5z" />
<glyph unicode="&#xeb;" horiz-adv-x="1174" d="M406 0v1434h1331v-1434h-1331zM570 266l102 -102l399 444l400 -444l102 102l-405 451l405 450l-102 103l-400 -445l-399 445l-102 -103l403 -450zM80 525q0 253 126.5 399t357.5 146q268 0 398 -138t130 -444q0 -60 -56 -60h-660q16 -166 82 -209t153 -43q83 0 127 22 t74 60q20 26 46 26q18 0 38 -12l100 -61q34 -21 34 -47q0 -18 -17 -39q-61 -73 -143 -109t-259 -36q-287 0 -409 146t-122 399zM377 628h435q0 108 -54 176.5t-172 68.5q-94 0 -149 -65.5t-60 -179.5z" />
<glyph unicode="&#xec;" horiz-adv-x="552" d="M145 1376q-52 59 22 59h152q78 0 106 -47l108 -179q36 -59 -21 -59h-101q-69 0 -101 37zM240 60v930q0 60 60 60h160q60 0 60 -60v-930q0 -60 -60 -60h-160q-60 0 -60 60z" />
<glyph unicode="&#xed;" horiz-adv-x="552" d="M201 1260q41 72 155 140t288 68q237 0 349.5 -107t112.5 -293q0 -141 -165.5 -304.5t-165.5 -269.5v-16q0 -65 -65 -65h-150q-65 0 -65 65v30q0 164 155.5 326t155.5 240q0 81 -37.5 125.5t-134.5 44.5q-86 0 -139 -39t-87 -95q-33 -55 -89 -19l-105 67q-52 33 -13 102z M489 75v134q0 75 70 75h152q70 0 70 -75v-134q0 -75 -70 -75h-152q-70 0 -70 75zM226 60v930q0 60 60 60h160q60 0 60 -60v-930q0 -60 -60 -60h-160q-60 0 -60 60z" />
<glyph unicode="&#xee;" horiz-adv-x="552" d="M19 1186q-29 41 21 76l207 145q39 27 68 27h38q29 0 68 -27l207 -145q50 -35 21 -76l-25 -36q-30 -41 -78 -6l-211 151h-2l-211 -151q-49 -35 -78 6zM194 60v930q0 60 60 60h160q60 0 60 -60v-930q0 -60 -60 -60h-160q-60 0 -60 60z" />
<glyph unicode="&#xef;" horiz-adv-x="552" d="M136 60v930q0 60 60 60h160q60 0 60 -60v-930q0 -60 -60 -60h-160q-60 0 -60 60zM-17 1270v108q0 60 60 60h108q60 0 60 -60v-108q0 -60 -60 -60h-108q-60 0 -60 60zM341 1270v108q0 60 60 60h108q60 0 60 -60v-108q0 -60 -60 -60h-108q-60 0 -60 60z" />
<glyph unicode="&#xf1;" horiz-adv-x="1200" d="M267 1245q22 63 77.5 107t135.5 44q68 0 144 -52t111 -52q31 0 52.5 13.5t36.5 43.5q21 43 54 28l42 -19q31 -14 15 -61q-22 -63 -77.5 -107t-135.5 -44q-68 0 -144 52t-111 52q-31 0 -52.5 -13.5t-36.5 -43.5q-21 -43 -54 -28l-42 19q-31 14 -15 61zM136 60v930 q0 60 60 60h158q60 0 60 -60v-58h4q46 79 117 108.5t171 29.5q156 0 258 -98t102 -358v-554q0 -60 -60 -60h-160q-60 0 -60 60v482q0 218 -30 275t-129 57q-105 0 -158 -81.5t-53 -338.5v-394q0 -60 -60 -60h-160q-60 0 -60 60z" />
<glyph unicode="&#xf2;" horiz-adv-x="1206" d="M368 1376q-52 59 22 59h152q78 0 106 -47l108 -179q36 -59 -21 -59h-101q-69 0 -101 37zM80 525q0 255 131.5 400t391.5 145t391.5 -145t131.5 -400t-131.5 -400t-391.5 -145t-391.5 145t-131.5 400zM376 525q0 -190 58.5 -269.5t168.5 -79.5t168.5 79.5t58.5 269.5 t-58.5 269.5t-168.5 79.5t-168.5 -79.5t-58.5 -269.5z" />
<glyph unicode="&#xf3;" horiz-adv-x="1206" d="M80 525q0 255 131.5 400t391.5 145t391.5 -145t131.5 -400t-131.5 -400t-391.5 -145t-391.5 145t-131.5 400zM376 525q0 -190 58.5 -269.5t168.5 -79.5t168.5 79.5t58.5 269.5t-58.5 269.5t-168.5 79.5t-168.5 -79.5t-58.5 -269.5zM438 1260q41 72 155 140t288 68 q237 0 349.5 -107t112.5 -293q0 -141 -165.5 -304.5t-165.5 -269.5v-16q0 -65 -65 -65h-150q-65 0 -65 65v30q0 164 155.5 326t155.5 240q0 81 -37.5 125.5t-134.5 44.5q-86 0 -139 -39t-87 -95q-33 -55 -89 -19l-105 67q-52 33 -13 102zM726 75v134q0 75 70 75h152 q70 0 70 -75v-134q0 -75 -70 -75h-152q-70 0 -70 75z" />
<glyph unicode="&#xf4;" horiz-adv-x="1206" d="M288 1186q-29 41 21 76l207 145q39 27 68 27h38q29 0 68 -27l207 -145q50 -35 21 -76l-25 -36q-30 -41 -78 -6l-211 151h-2l-211 -151q-49 -35 -78 6zM80 525q0 255 131.5 400t391.5 145t391.5 -145t131.5 -400t-131.5 -400t-391.5 -145t-391.5 145t-131.5 400zM376 525 q0 -190 58.5 -269.5t168.5 -79.5t168.5 79.5t58.5 269.5t-58.5 269.5t-168.5 79.5t-168.5 -79.5t-58.5 -269.5z" />
<glyph unicode="&#xf5;" horiz-adv-x="1206" d="M269 1245q22 63 77.5 107t135.5 44q68 0 144 -52t111 -52q31 0 52.5 13.5t36.5 43.5q21 43 54 28l42 -19q31 -14 15 -61q-22 -63 -77.5 -107t-135.5 -44q-68 0 -144 52t-111 52q-31 0 -52.5 -13.5t-36.5 -43.5q-21 -43 -54 -28l-42 19q-31 14 -15 61zM80 525 q0 255 131.5 400t391.5 145t391.5 -145t131.5 -400t-131.5 -400t-391.5 -145t-391.5 145t-131.5 400zM376 525q0 -190 58.5 -269.5t168.5 -79.5t168.5 79.5t58.5 269.5t-58.5 269.5t-168.5 79.5t-168.5 -79.5t-58.5 -269.5z" />
<glyph unicode="&#xf6;" horiz-adv-x="1206" d="M80 525q0 255 131.5 400t391.5 145t391.5 -145t131.5 -400t-131.5 -400t-391.5 -145t-391.5 145t-131.5 400zM376 525q0 -190 58.5 -269.5t168.5 -79.5t168.5 79.5t58.5 269.5t-58.5 269.5t-168.5 79.5t-168.5 -79.5t-58.5 -269.5zM419 0v1434h1331v-1434h-1331zM583 266 l102 -102l399 444l400 -444l102 102l-405 451l405 450l-102 103l-400 -445l-399 445l-102 -103l403 -450z" />
<glyph unicode="&#xf7;" horiz-adv-x="1280" d="M499 273v134q0 75 70 75h152q70 0 70 -75v-134q0 -75 -70 -75h-152q-70 0 -70 75zM499 1043v134q0 75 70 75h152q70 0 70 -75v-134q0 -75 -70 -75h-152q-70 0 -70 75zM75 574v114q0 50 60 50h734q60 0 60 -50v-114q0 -50 -60 -50h-734q-60 0 -60 50z" />
<glyph unicode="&#xf9;" horiz-adv-x="1194" d="M361 1376q-52 59 22 59h152q78 0 106 -47l108 -179q36 -59 -21 -59h-101q-69 0 -101 37zM134 436v554q0 60 60 60h160q60 0 60 -60v-482q0 -218 30 -275t126 -57q102 0 155 81.5t53 338.5v394q0 60 60 60h160q60 0 60 -60v-930q0 -60 -60 -60h-158q-60 0 -60 60v58h-4 q-46 -79 -117 -108.5t-168 -29.5q-153 0 -255 98t-102 358z" />
<glyph unicode="&#xfa;" horiz-adv-x="1194" d="M431 1260q41 72 155 140t288 68q237 0 349.5 -107t112.5 -293q0 -141 -165.5 -304.5t-165.5 -269.5v-16q0 -65 -65 -65h-150q-65 0 -65 65v30q0 164 155.5 326t155.5 240q0 81 -37.5 125.5t-134.5 44.5q-86 0 -139 -39t-87 -95q-33 -55 -89 -19l-105 67q-52 33 -13 102z M719 75v134q0 75 70 75h152q70 0 70 -75v-134q0 -75 -70 -75h-152q-70 0 -70 75zM134 436v554q0 60 60 60h160q60 0 60 -60v-482q0 -218 30 -275t126 -57q102 0 155 81.5t53 338.5v394q0 60 60 60h160q60 0 60 -60v-930q0 -60 -60 -60h-158q-60 0 -60 60v58h-4 q-46 -79 -117 -108.5t-168 -29.5q-153 0 -255 98t-102 358z" />
<glyph unicode="&#xfb;" horiz-adv-x="1194" d="M281 1186q-29 41 21 76l207 145q39 27 68 27h38q29 0 68 -27l207 -145q50 -35 21 -76l-25 -36q-30 -41 -78 -6l-211 151h-2l-211 -151q-49 -35 -78 6zM134 436v554q0 60 60 60h160q60 0 60 -60v-482q0 -218 30 -275t126 -57q102 0 155 81.5t53 338.5v394q0 60 60 60h160 q60 0 60 -60v-930q0 -60 -60 -60h-158q-60 0 -60 60v58h-4q-46 -79 -117 -108.5t-168 -29.5q-153 0 -255 98t-102 358z" />
<glyph unicode="&#xfc;" horiz-adv-x="1194" d="M412 0v1434h1331v-1434h-1331zM576 266l102 -102l399 444l400 -444l102 102l-405 451l405 450l-102 103l-400 -445l-399 445l-102 -103l403 -450zM134 436v554q0 60 60 60h160q60 0 60 -60v-482q0 -218 30 -275t126 -57q102 0 155 81.5t53 338.5v394q0 60 60 60h160 q60 0 60 -60v-930q0 -60 -60 -60h-158q-60 0 -60 60v58h-4q-46 -79 -117 -108.5t-168 -29.5q-153 0 -255 98t-102 358z" />
<glyph unicode="&#xfd;" horiz-adv-x="990" d="M368 1260q41 72 155 140t288 68q237 0 349.5 -107t112.5 -293q0 -141 -165.5 -304.5t-165.5 -269.5v-16q0 -65 -65 -65h-150q-65 0 -65 65v30q0 164 155.5 326t155.5 240q0 81 -37.5 125.5t-134.5 44.5q-86 0 -139 -39t-87 -95q-33 -55 -89 -19l-105 67q-52 33 -13 102z M656 75v134q0 75 70 75h152q70 0 70 -75v-134q0 -75 -70 -75h-152q-70 0 -70 75zM63 1013q0 37 41 37h179q46 0 60 -51l151 -559q11 -39 19.5 -100.5t8.5 -78.5h6q12 53 17.5 84.5t30.5 122.5l143 531q14 51 60 51h179q41 0 41 -38q0 -16 -8 -40l-337 -1014 q-59 -178 -145 -278t-239 -100q-84 0 -150 14q-31 6 -31 36q0 8 2 16l22 110q7 33 33 33q8 0 18 -3q31 -10 58 -10q81 0 123.5 77t56.5 132l3 15l-334 972q-8 24 -8 41z" />
<glyph unicode="&#xfe;" horiz-adv-x="1192" d="M136 -340v1756q0 60 60 60h160q60 0 60 -60v-404q0 -40 -4 -80h4q52 86 116 112t154 26q235 0 330.5 -162.5t95.5 -382.5t-95.5 -382.5t-330.5 -162.5q-90 0 -154 26t-116 112h-4q4 -40 4 -80v-378q0 -60 -60 -60h-160q-60 0 -60 60zM416 480q0 -135 53.5 -219.5 t128.5 -84.5q135 0 176.5 94.5t41.5 254.5t-41.5 254.5t-176.5 94.5q-75 0 -128.5 -84.5t-53.5 -219.5v-90z" />
<glyph unicode="&#xff;" horiz-adv-x="990" d="M349 0v1434h1331v-1434h-1331zM513 266l102 -102l399 444l400 -444l102 102l-405 451l405 450l-102 103l-400 -445l-399 445l-102 -103l403 -450zM63 1013q0 37 41 37h179q46 0 60 -51l151 -559q11 -39 19.5 -100.5t8.5 -78.5h6q12 53 17.5 84.5t30.5 122.5l143 531 q14 51 60 51h179q41 0 41 -38q0 -16 -8 -40l-337 -1014q-59 -178 -145 -278t-239 -100q-84 0 -150 14q-31 6 -31 36q0 8 2 16l22 110q7 33 33 33q8 0 18 -3q31 -10 58 -10q81 0 123.5 77t56.5 132l3 15l-334 972q-8 24 -8 41z" />
<glyph unicode="&#x131;" horiz-adv-x="552" d="M136 60v930q0 60 60 60h160q60 0 60 -60v-930q0 -60 -60 -60h-160q-60 0 -60 60z" />
<glyph unicode="&#x152;" horiz-adv-x="2824" d="M1704 75v1284q0 75 70 75h858q75 0 75 -65v-118q0 -65 -75 -65h-636v-318h583q75 0 75 -65v-118q0 -65 -75 -65h-583v-372h668q75 0 75 -65v-118q0 -65 -75 -65h-890q-70 0 -70 75zM86 717q0 345 178 548t508 203t508 -203t178 -548t-178 -548t-508 -203t-508 203 t-178 548zM398 717q0 -250 89.5 -382.5t284.5 -132.5t284.5 132.5t89.5 382.5t-89.5 382.5t-284.5 132.5t-284.5 -132.5t-89.5 -382.5z" />
<glyph unicode="&#x153;" horiz-adv-x="2380" d="M1286 525q0 253 126.5 399t357.5 146q268 0 398 -138t130 -444q0 -60 -56 -60h-660q16 -166 82 -209t153 -43q83 0 127 22t74 60q20 26 46 26q18 0 38 -12l100 -61q34 -21 34 -47q0 -18 -17 -39q-61 -73 -143 -109t-259 -36q-287 0 -409 146t-122 399zM1583 628h435 q0 108 -54 176.5t-172 68.5q-94 0 -149 -65.5t-60 -179.5zM80 525q0 255 131.5 400t391.5 145t391.5 -145t131.5 -400t-131.5 -400t-391.5 -145t-391.5 145t-131.5 400zM376 525q0 -190 58.5 -269.5t168.5 -79.5t168.5 79.5t58.5 269.5t-58.5 269.5t-168.5 79.5 t-168.5 -79.5t-58.5 -269.5z" />
<glyph unicode="&#x178;" horiz-adv-x="1368" d="M335 1605v106q0 75 70 75h152q70 0 70 -75v-106q0 -75 -70 -75h-152q-70 0 -70 75zM843 1605v106q0 75 70 75h152q70 0 70 -75v-106q0 -75 -70 -75h-152q-70 0 -70 75zM85 1397q0 37 64 37h175q52 0 92 -69l213 -371q9 -15 53 -93.5t51 -152.5h4q7 74 51 152.5t53 93.5 l213 371q40 69 92 69h175q64 0 64 -37q0 -20 -17 -49l-487 -823v-470q0 -55 -70 -55h-152q-70 0 -70 55v470l-487 823q-17 29 -17 49z" />
<glyph unicode="&#x237;" horiz-adv-x="562" d="M-92 -357l22 110q9 46 51 30q18 -7 72 -7q63 0 87 66t24 184v964q0 60 60 60h160q60 0 60 -60v-994q0 -248 -97 -332t-259 -84q-90 0 -151 11q-38 7 -29 52z" />
<glyph unicode="&#x2c6;" horiz-adv-x="614" d="M50 1186q-29 41 21 76l207 145q39 27 68 27h38q29 0 68 -27l207 -145q50 -35 21 -76l-25 -36q-30 -41 -78 -6l-211 151h-2l-211 -151q-49 -35 -78 6z" />
<glyph unicode="&#x2d9;" horiz-adv-x="614" d="M167 1264v128q0 60 60 60h160q60 0 60 -60v-128q0 -60 -60 -60h-160q-60 0 -60 60z" />
<glyph unicode="&#x2da;" horiz-adv-x="614" d="M118 1313q0 77 55 131.5t134 54.5t134 -54.5t55 -131.5t-55 -131.5t-134 -54.5t-134 54.5t-55 131.5zM213 1313q0 -40 27 -67t67 -27t67 27t27 67t-27 67t-67 27t-67 -27t-27 -67z" />
<glyph unicode="&#x2dc;" horiz-adv-x="614" d="M5 1245q22 63 77.5 107t135.5 44q68 0 144 -52t111 -52q31 0 52.5 13.5t36.5 43.5q21 43 54 28l42 -19q31 -14 15 -61q-22 -63 -77.5 -107t-135.5 -44q-68 0 -144 52t-111 52q-31 0 -52.5 -13.5t-36.5 -43.5q-21 -43 -54 -28l-42 19q-31 14 -15 61z" />
<glyph unicode="&#x300;" d="M-357 1376q-52 59 22 59h152q78 0 106 -47l108 -179q36 -59 -21 -59h-101q-69 0 -101 37z" />
<glyph unicode="&#x301;" d="M-383 1260q41 72 155 140t288 68q237 0 349.5 -107t112.5 -293q0 -141 -165.5 -304.5t-165.5 -269.5v-16q0 -65 -65 -65h-150q-65 0 -65 65v30q0 164 155.5 326t155.5 240q0 81 -37.5 125.5t-134.5 44.5q-86 0 -139 -39t-87 -95q-33 -55 -89 -19l-105 67q-52 33 -13 102z M-95 75v134q0 75 70 75h152q70 0 70 -75v-134q0 -75 -70 -75h-152q-70 0 -70 75z" />
<glyph unicode="&#x302;" d="M-564 1186q-29 41 21 76l207 145q39 27 68 27h38q29 0 68 -27l207 -145q50 -35 21 -76l-25 -36q-30 -41 -78 -6l-211 151h-2l-211 -151q-49 -35 -78 6z" />
<glyph unicode="&#x303;" d="M-609 1245q22 63 77.5 107t135.5 44q68 0 144 -52t111 -52q31 0 52.5 13.5t36.5 43.5q21 43 54 28l42 -19q31 -14 15 -61q-22 -63 -77.5 -107t-135.5 -44q-68 0 -144 52t-111 52q-31 0 -52.5 -13.5t-36.5 -43.5q-21 -43 -54 -28l-42 19q-31 14 -15 61z" />
<glyph unicode="&#x308;" d="M-638 0v1434h1331v-1434h-1331zM-474 266l102 -102l399 444l400 -444l102 102l-405 451l405 450l-102 103l-400 -445l-399 445l-102 -103l403 -450z" />
<glyph unicode="&#x30a;" d="M-496 1313q0 77 55 131.5t134 54.5t134 -54.5t55 -131.5t-55 -131.5t-134 -54.5t-134 54.5t-55 131.5zM-401 1313q0 -40 27 -67t67 -27t67 27t27 67t-27 67t-67 27t-67 -27t-27 -67z" />
<glyph unicode="&#x2000;" horiz-adv-x="893" />
<glyph unicode="&#x2001;" horiz-adv-x="1786" />
<glyph unicode="&#x2002;" horiz-adv-x="893" />
<glyph unicode="&#x2003;" horiz-adv-x="1786" />
<glyph unicode="&#x2004;" horiz-adv-x="595" />
<glyph unicode="&#x2005;" horiz-adv-x="446" />
<glyph unicode="&#x2006;" horiz-adv-x="297" />
<glyph unicode="&#x2007;" horiz-adv-x="297" />
<glyph unicode="&#x2008;" horiz-adv-x="223" />
<glyph unicode="&#x2009;" horiz-adv-x="357" />
<glyph unicode="&#x200a;" horiz-adv-x="99" />
<glyph unicode="&#x2010;" horiz-adv-x="1754" d="M450 662v146q0 47 60 47h734q60 0 60 -47v-146q0 -47 -60 -47h-734q-60 0 -60 47z" />
<glyph unicode="&#x2011;" horiz-adv-x="1754" d="M450 662v146q0 47 60 47h734q60 0 60 -47v-146q0 -47 -60 -47h-734q-60 0 -60 47z" />
<glyph unicode="&#x2012;" horiz-adv-x="1754" d="M450 662v146q0 47 60 47h734q60 0 60 -47v-146q0 -47 -60 -47h-734q-60 0 -60 47z" />
<glyph unicode="&#x2013;" horiz-adv-x="1024" d="M35 503v100q0 50 60 50h834q60 0 60 -50v-100q0 -50 -60 -50h-834q-60 0 -60 50z" />
<glyph unicode="&#x2014;" horiz-adv-x="2048" d="M35 503v100q0 50 60 50h1858q60 0 60 -50v-100q0 -50 -60 -50h-1858q-60 0 -60 50z" />
<glyph unicode="&#x2018;" horiz-adv-x="570" d="M433 1179v-134q0 -75 -70 -75h-156q-70 0 -70 75v134q0 129 17 216.5t87 141.5q51 39 80 8l38 -41q36 -38 -11 -75q-32 -25 -43 -65t-11 -110h69q70 0 70 -75z" />
<glyph unicode="&#x2019;" horiz-adv-x="570" d="M137 1259v134q0 75 70 75h156q70 0 70 -75v-134q0 -129 -17 -216.5t-87 -141.5q-51 -39 -80 -8l-38 41q-36 38 11 75q32 25 43 65t11 110h-69q-70 0 -70 75z" />
<glyph unicode="&#x201a;" horiz-adv-x="570" d="M137 75v134q0 75 70 75h156q70 0 70 -75v-134q0 -129 -17 -216.5t-87 -141.5q-51 -39 -80 -8l-38 41q-36 38 11 75q32 25 43 65t11 110h-69q-70 0 -70 75z" />
<glyph unicode="&#x201c;" horiz-adv-x="916" d="M816 1179v-134q0 -75 -70 -75h-156q-70 0 -70 75v134q0 129 17 216.5t87 141.5q51 39 80 8l38 -41q36 -38 -11 -75q-32 -25 -43 -65t-11 -110h69q70 0 70 -75zM396 1179v-134q0 -75 -70 -75h-156q-70 0 -70 75v134q0 129 17 216.5t87 141.5q51 39 80 8l38 -41 q36 -38 -11 -75q-32 -25 -43 -65t-11 -110h69q70 0 70 -75z" />
<glyph unicode="&#x201d;" horiz-adv-x="916" d="M520 1259v134q0 75 70 75h156q70 0 70 -75v-134q0 -129 -17 -216.5t-87 -141.5q-51 -39 -80 -8l-38 41q-36 38 11 75q32 25 43 65t11 110h-69q-70 0 -70 75zM100 1259v134q0 75 70 75h156q70 0 70 -75v-134q0 -129 -17 -216.5t-87 -141.5q-51 -39 -80 -8l-38 41 q-36 38 11 75q32 25 43 65t11 110h-69q-70 0 -70 75z" />
<glyph unicode="&#x201e;" horiz-adv-x="916" d="M520 75v134q0 75 70 75h156q70 0 70 -75v-134q0 -129 -17 -216.5t-87 -141.5q-51 -39 -80 -8l-38 41q-36 38 11 75q32 25 43 65t11 110h-69q-70 0 -70 75zM100 75v134q0 75 70 75h156q70 0 70 -75v-134q0 -129 -17 -216.5t-87 -141.5q-51 -39 -80 -8l-38 41q-36 38 11 75 q32 25 43 65t11 110h-69q-70 0 -70 75z" />
<glyph unicode="&#x2022;" horiz-adv-x="1024" d="M260 694q0 104 74 178t178 74t178 -74t74 -178t-74 -178t-178 -74t-178 74t-74 178z" />
<glyph unicode="&#x2026;" horiz-adv-x="2048" d="M205 75v134q0 75 70 75h152q70 0 70 -75v-134q0 -75 -70 -75h-152q-70 0 -70 75zM878 75v134q0 75 70 75h152q70 0 70 -75v-134q0 -75 -70 -75h-152q-70 0 -70 75zM1551 75v134q0 75 70 75h152q70 0 70 -75v-134q0 -75 -70 -75h-152q-70 0 -70 75z" />
<glyph unicode="&#x202f;" horiz-adv-x="357" />
<glyph unicode="&#x2039;" horiz-adv-x="706" d="M183 498q-31 39 0 78l308 386q28 35 60 10l88 -70q27 -22 -4 -60l-247 -305l247 -305q31 -38 4 -60l-88 -70q-32 -25 -60 10z" />
<glyph unicode="&#x203a;" horiz-adv-x="706" d="M183 178q-27 22 4 60l247 305l-247 305q-31 38 -4 60l88 70q32 25 60 -10l308 -386q31 -39 0 -78l-308 -386q-28 -35 -60 -10z" />
<glyph unicode="&#x205f;" horiz-adv-x="446" />
<glyph unicode="&#x20ac;" horiz-adv-x="1200" d="M32 519l16 92q8 45 63 45h5q-1 68 4 132h-41q-55 0 -47 45l16 92q8 45 63 45h35q40 204 194 345t407 141q82 0 178 -26t172 -104q52 -54 8 -92l-100 -86q-37 -32 -85 12q-58 54 -98 63t-95 9q-111 0 -183 -73t-100 -189h363q55 0 47 -45l-16 -92q-8 -45 -63 -45h-355 q-4 -62 -4 -132h391q55 0 47 -45l-16 -92q-8 -45 -63 -45h-348q17 -136 89 -210t194 -74q92 0 143.5 22.5t98.5 64.5q56 49 91 14l88 -89q40 -41 -9 -88q-77 -74 -183.5 -111.5t-229.5 -37.5q-279 0 -412.5 127t-167.5 382h-50q-55 0 -47 45z" />
<glyph unicode="&#x2122;" horiz-adv-x="1696" d="M65 1326v76q0 32 39 32h535q38 0 38 -32v-76q0 -32 -38 -32h-173v-494q0 -38 -39 -38h-113q-38 0 -38 38v494h-172q-39 0 -39 32zM756 800v596q0 38 38 38h187q43 0 55 -42l106 -378q5 -19 10.5 -46t5.5 -46h3q0 19 5.5 46t10.5 46l107 378q12 42 54 42h186q39 0 39 -38 v-596q0 -38 -39 -38h-112q-39 0 -39 38v324q0 26 3 51h-3l-105 -374q-11 -39 -35 -39h-147q-23 0 -34 39l-106 374h-3q3 -25 3 -51v-324q0 -38 -39 -38h-113q-38 0 -38 38z" />
<glyph unicode="&#x2212;" horiz-adv-x="1514" d="M330 574v114q0 50 60 50h734q60 0 60 -50v-114q0 -50 -60 -50h-734q-60 0 -60 50z" />
<glyph unicode="&#x2215;" horiz-adv-x="912" d="M-63 49l1021 1458q35 50 76 21l70 -49q41 -29 7 -78l-1021 -1458q-35 -50 -76 -21l-70 49q-41 29 -7 78z" />
<glyph unicode="&#xe000;" horiz-adv-x="1050" d="M0 1050h1050v-1050h-1050v1050z" />
<glyph unicode="&#xeff5;" horiz-adv-x="820" d="M75 1647q37 61 92 99.5t153 38.5q70 0 164 -46t133 -46q35 0 67.5 17t48.5 42q27 42 60 22l48 -29q34 -21 8 -64q-37 -61 -92 -99.5t-153 -38.5q-74 0 -164 46t-133 46q-35 0 -67.5 -17t-48.5 -42q-27 -42 -60 -22l-48 29q-34 21 -8 64z" />
<glyph unicode="&#xeff7;" horiz-adv-x="820" d="M60 1585q-19 47 39 70l244 98q32 13 75 13h60q43 0 75 -13l244 -98q58 -23 39 -70l-20 -50q-19 -47 -76 -23l-291 120h-2l-291 -120q-57 -24 -76 23z" />
<glyph unicode="&#xf102;" horiz-adv-x="706" d="M36 328q0 180 78.5 284t238.5 104t238.5 -104t78.5 -284t-78.5 -284t-238.5 -104t-238.5 104t-78.5 284zM238 328q0 -150 30 -201.5t85 -51.5t85 51.5t30 201.5t-30 201.5t-85 51.5t-85 -51.5t-30 -201.5z" />
<glyph unicode="&#xf6c9;" horiz-adv-x="820" d="M345 1604l88 134q31 47 109 47h176q90 0 24 -61l-158 -146q-41 -38 -111 -38h-103q-67 0 -25 64z" />
<glyph unicode="&#xf6cb;" horiz-adv-x="820" d="M10 1605v106q0 75 70 75h152q70 0 70 -75v-106q0 -75 -70 -75h-152q-70 0 -70 75zM518 1605v106q0 75 70 75h152q70 0 70 -75v-106q0 -75 -70 -75h-152q-70 0 -70 75z" />
<glyph unicode="&#xf6ce;" horiz-adv-x="820" d="M294 1724q-66 61 24 61h176q78 0 109 -47l88 -134q42 -64 -25 -64h-103q-70 0 -111 38z" />
<glyph unicode="&#xfb01;" horiz-adv-x="2260" d="M330 1024v152h254v255h155v-255h255v-152h-255v-254h-155v254h-254zM690 -40l826 1458h169q-104 -185 -207 -366.5t-206 -363.5l-204 -362q-103 -182 -208 -366h-170zM1335 205v89q0 24 35 24h525q35 0 35 -24v-89q0 -25 -35 -25h-525q-35 0 -35 25z" />
<glyph unicode="&#xfb02;" horiz-adv-x="1214" d="M42 900v100q0 50 59 50h56v76q0 188 112 279t368 91q164 0 266.5 -34t174.5 -85v-1317q0 -60 -60 -60h-160q-60 0 -60 60v1196q-26 16 -58 30t-94 14q-109 0 -159 -48.5t-50 -165.5v-36h124q59 0 59 -50v-100q0 -50 -59 -50h-124v-790q0 -60 -60 -60h-160q-60 0 -60 60 v790h-56q-59 0 -59 50z" />
<glyph unicode="&#xfb03;" horiz-adv-x="1916" d="M1500 60v930q0 60 60 60h160q60 0 60 -60v-930q0 -60 -60 -60h-160q-60 0 -60 60zM1500 1264v128q0 60 60 60h160q60 0 60 -60v-128q0 -60 -60 -60h-160q-60 0 -60 60zM724 900v100q0 50 59 50h56v140q0 184 105 245t250 61q69 0 118.5 -8t87.5 -20q28 -9 28 -35 q0 -7 -2 -15l-30 -113q-9 -33 -46 -20q-22 8 -61.5 11.5t-62.5 3.5q-73 0 -90 -51t-17 -159v-40h132q59 0 59 -50v-100q0 -50 -59 -50h-132v-790q0 -60 -60 -60h-160q-60 0 -60 60v790h-56q-59 0 -59 50zM42 900v100q0 50 59 50h56v140q0 184 105 245t250 61q69 0 118.5 -8 t87.5 -20q28 -9 28 -35q0 -7 -2 -15l-30 -113q-9 -33 -46 -20q-22 8 -61.5 11.5t-62.5 3.5q-73 0 -90 -51t-17 -159v-40h132q59 0 59 -50v-100q0 -50 -59 -50h-132v-790q0 -60 -60 -60h-160q-60 0 -60 60v790h-56q-59 0 -59 50z" />
<glyph unicode="&#xfb04;" horiz-adv-x="1916" d="M1500 60v1181q0 45 21 82l77 135q22 38 52 38h70q60 0 60 -60v-1376q0 -60 -60 -60h-160q-60 0 -60 60zM724 900v100q0 50 59 50h56v140q0 184 105 245t250 61q69 0 118.5 -8t87.5 -20q28 -9 28 -35q0 -7 -2 -15l-30 -113q-9 -33 -46 -20q-22 8 -61.5 11.5t-62.5 3.5 q-73 0 -90 -51t-17 -159v-40h132q59 0 59 -50v-100q0 -50 -59 -50h-132v-790q0 -60 -60 -60h-160q-60 0 -60 60v790h-56q-59 0 -59 50zM42 900v100q0 50 59 50h56v140q0 184 105 245t250 61q69 0 118.5 -8t87.5 -20q28 -9 28 -35q0 -7 -2 -15l-30 -113q-9 -33 -46 -20 q-22 8 -61.5 11.5t-62.5 3.5q-73 0 -90 -51t-17 -159v-40h132q59 0 59 -50v-100q0 -50 -59 -50h-132v-790q0 -60 -60 -60h-160q-60 0 -60 60v790h-56q-59 0 -59 50z" />
<glyph horiz-adv-x="614" d="M14 1270v108q0 60 60 60h108q60 0 60 -60v-108q0 -60 -60 -60h-108q-60 0 -60 60zM372 1270v108q0 60 60 60h108q60 0 60 -60v-108q0 -60 -60 -60h-108q-60 0 -60 60z" />
<glyph horiz-adv-x="820" d="M50 1605v106q0 75 70 75h132q70 0 70 -75v-106q0 -75 -70 -75h-132q-70 0 -70 75zM498 1605v106q0 75 70 75h132q70 0 70 -75v-106q0 -75 -70 -75h-132q-70 0 -70 75z" />
<glyph d="M-526 1724q-66 61 24 61h176q78 0 109 -47l88 -134q42 -64 -25 -64h-103q-70 0 -111 38z" />
<glyph d="M-475 1604l88 134q31 47 109 47h176q90 0 24 -61l-158 -146q-41 -38 -111 -38h-103q-67 0 -25 64z" />
</font>
</defs>
</svg>
