<?xml version="1.0" standalone="no"?>
<!DOCTYPE svg PUBLIC "-//W3C//DTD SVG 1.1//EN" "http://www.w3.org/Graphics/SVG/1.1/DTD/svg11.dtd" >
<svg xmlns="http://www.w3.org/2000/svg">
<metadata>
This is a custom SVG webfont generated by Font Squirrel.
Copyright   : C 2008 2009 2010 2011 Andrey V Panov
</metadata>
<defs>
<font id="T2KmathUSARegular" horiz-adv-x="1110" >
<font-face units-per-em="2048" ascent="1638" descent="-410" />
<missing-glyph horiz-adv-x="682" />
<glyph unicode=" "  horiz-adv-x="682" />
<glyph unicode="&#x09;" horiz-adv-x="682" />
<glyph unicode="&#xa0;" horiz-adv-x="682" />
<glyph unicode="!" horiz-adv-x="600" d="M198 1379q0 55 50 55h104q50 0 50 -55l-21 -944q0 -45 -45 -45h-72q-45 0 -45 45zM199 45v122q0 45 45 45h112q45 0 45 -45v-122q0 -45 -45 -45h-112q-45 0 -45 45z" />
<glyph unicode="&#x22;" horiz-adv-x="828" d="M155 1414q-2 55 36 55h104q38 0 36 -55l-21 -545q-2 -45 -35 -45h-64q-33 0 -35 45zM505 1414q-2 55 36 55h104q38 0 36 -55l-21 -545q-2 -45 -35 -45h-64q-33 0 -35 45z" />
<glyph unicode="#" horiz-adv-x="1390" d="M94 410l9 50q6 35 51 35h215l76 432h-215q-44 0 -38 35l8 50q6 35 52 35h215l58 330q8 45 43 45h62q35 0 27 -45l-58 -330h336l58 330q8 45 43 45h62q35 0 27 -45l-58 -330h215q44 0 38 -35l-8 -50q-6 -35 -52 -35h-215l-76 -432h215q45 0 39 -35l-9 -50q-6 -35 -51 -35 h-215l-58 -330q-8 -45 -43 -45h-62q-35 0 -27 45l58 330h-336l-58 -330q-8 -45 -43 -45h-62q-35 0 -27 45l58 330h-215q-45 0 -39 35zM501 495h336l76 432h-336z" />
<glyph unicode="$" d="M151 180l40 54q31 42 87 -6q74 -63 141 -82.5t139 -24.5v530q-73 21 -143 61q-95 54 -147 123t-66 128t-14 153q0 64 46 147t129 130t195 58v120q0 45 35 45h50q35 0 35 -45v-122q65 0 149.5 -30.5t126.5 -71.5q46 -45 24 -78l-43 -63q-33 -48 -90 14q-34 37 -88.5 56.5 t-78.5 19.5v-488q79 -25 176 -82q68 -40 116 -95t68 -121t20 -136q0 -94 -32 -168t-117 -145t-231 -88v-138q0 -45 -35 -45h-50q-35 0 -35 45v136q-100 0 -206.5 32.5t-172.5 92.5q-54 49 -28 84zM374 1104q0 -79 26.5 -130t95.5 -90q30 -17 62 -31v446q-64 -5 -124 -52 t-60 -143zM678 127q76 17 130 70t54 176q0 67 -30.5 120.5t-77.5 81.5q-52 30 -76 38v-486z" />
<glyph unicode="%" horiz-adv-x="2200" d="M322 1096.4q0 127.998 67.5986 217.996q67.5986 89.999 179.597 89.999q111.999 0 179.598 -89.999q67.5986 -89.998 67.5986 -217.996t-67.5986 -217.997t-179.598 -89.999q-111.998 0 -179.597 89.999t-67.5986 217.997zM449.998 1096.4q0 -111.999 27.5986 -163.998 q27.5996 -51.999 91.5986 -51.999t91.5986 51.999t27.5996 163.998q0 111.998 -27.5996 163.997t-91.5986 51.999t-91.5986 -51.999q-27.5986 -51.999 -27.5986 -163.997zM487.201 144.8l750.389 1200.78q19.1992 30.3994 43.1992 15.999l33.5996 -21.5996 q23.999 -14.3994 4.7998 -44.7988l-750.389 -1200.78q-19.2002 -30.3994 -43.1992 -15.999l-33.5996 21.5996q-24 14.3994 -4.7998 44.7988zM1030 342.396q0 127.998 67.5986 217.996q67.5986 89.999 179.597 89.999q111.999 0 179.598 -89.999 q67.5986 -89.998 67.5986 -217.996t-67.5986 -217.997t-179.598 -89.999q-111.998 0 -179.597 89.999t-67.5986 217.997zM1158 342.396q0 -111.999 27.5986 -163.998q27.5996 -51.999 91.5986 -51.999t91.5986 51.999t27.5996 163.998q0 111.998 -27.5996 163.997 t-91.5986 51.999t-91.5986 -51.999q-27.5986 -51.999 -27.5986 -163.997z" />
<glyph unicode="&#x26;" horiz-adv-x="1382" d="M120 326q0 103 50.5 215.5t275.5 275.5q-50 57 -104.5 140.5t-54.5 206.5q0 120 83 210t267 90q113 0 218.5 -60.5t105.5 -224.5q0 -106 -72.5 -200t-194.5 -186l314 -375q40 42 84 117t56 123q12 46 51 34l76 -24q43 -14 29 -54q-30 -90 -90 -181t-105 -136l201 -239 q49 -58 -18 -58h-101q-58 0 -94 43l-110 130q-93 -91 -196 -147t-272 -56q-172 0 -285.5 99t-113.5 257zM315 328q0 -92 56.5 -152.5t168.5 -60.5q84 0 182 53t164 125l-338 405q-153 -117 -193 -191.5t-40 -178.5zM467 1173q0 -82 44.5 -149.5t80.5 -112.5 q110 94 149.5 151t39.5 123q0 56 -38.5 98t-118.5 42q-74 0 -115.5 -43t-41.5 -109z" />
<glyph unicode="'" horiz-adv-x="478" d="M155 1414q-2 55 36 55h104q38 0 36 -55l-21 -545q-2 -45 -35 -45h-64q-33 0 -35 45z" />
<glyph unicode="(" horiz-adv-x="641" d="M70 744q0 308 104 540t263 409q38 43 68 20l35 -27q31 -24 -2 -59q-90 -96 -181 -323.5t-91 -559.5t91 -559.5t181 -323.5q33 -35 2 -59l-35 -27q-30 -23 -68 20q-159 177 -263 409t-104 540z" />
<glyph unicode=")" horiz-adv-x="641" d="M101 -198q-31 24 2 59q90 96 181 323.5t91 559.5t-91 559.5t-181 323.5q-33 35 -2 59l35 27q30 23 68 -20q159 -177 263 -409t104 -540t-104 -540t-263 -409q-38 -43 -68 -20z" />
<glyph unicode="*" horiz-adv-x="940" d="M197 859q-41 71 41 106l214 92l-214 93q-82 35 -41 106l6 10q41 70 112 17l187 -139l-27 232q-10 88 71 88h12q81 0 71 -88l-27 -232l187 139q71 53 112 -17l6 -10q41 -71 -41 -106l-214 -93l214 -92q82 -35 41 -106l-6 -10q-41 -70 -112 -18l-187 140l27 -232 q10 -88 -71 -88h-12q-81 0 -71 88l27 232l-187 -140q-71 -52 -112 18z" />
<glyph unicode="+" horiz-adv-x="1848" d="M450 586v160h391v393h164v-393h393v-160h-393v-391h-164v391h-391z" />
<glyph unicode="," horiz-adv-x="600" d="M201 45v122q0 45 45 45h116q45 0 45 -45v-122q0 -105 -22.5 -183.5t-88.5 -137.5q-22 -19 -37 -5l-45 42q-15 14 7 34q34 30 55.5 86.5t21.5 118.5h-52q-45 0 -45 45z" />
<glyph unicode="-" horiz-adv-x="1750" d="M450 638v70q0 35 50 35h750q50 0 50 -35v-70q0 -35 -50 -35h-750q-50 0 -50 35z" />
<glyph unicode="." horiz-adv-x="605" d="M199 45v122q0 45 45 45h112q45 0 45 -45v-122q0 -45 -45 -45h-112q-45 0 -45 45z" />
<glyph unicode="/" horiz-adv-x="840" d="M41 -335l715 1771q17 42 51 28l45 -18q32 -13 15 -55l-715 -1771q-17 -42 -49 -29l-45 18q-34 14 -17 56z" />
<glyph unicode="0" d="M93 711q0 350 96 545.5t366 195.5t366 -195.5t96 -545.5t-96 -545.5t-366 -195.5t-366 195.5t-96 545.5zM279 711q0 -280 48 -438.5t228 -158.5t228 158.5t48 438.5t-48 438.5t-228 158.5t-228 -158.5t-48 -438.5z" />
<glyph unicode="1" horiz-adv-x="827" d="M187 1151q-13 32 24 46q77 29 146 93t109 114q29 36 56 36h85q46 0 46 -45v-1350q0 -45 -45 -45h-86q-45 0 -45 45v1096q0 30 2 60h-2q-31 -39 -91 -80t-110 -60q-44 -17 -58 16z" />
<glyph unicode="2" d="M96 45v48q0 39 33 72l392 395q174 175 228.5 270.5t54.5 220.5q0 105 -61.5 178t-186.5 73q-112 0 -186 -57t-107 -191q-14 -57 -59 -44l-78 23q-31 9 -15 85q29 131 140.5 232.5t296.5 101.5q235 0 343.5 -118t108.5 -289q0 -167 -89.5 -288t-245.5 -272l-329 -319v-4 q27 2 80 2h545q55 0 55 -45v-74q0 -45 -55 -45h-810q-55 0 -55 45z" />
<glyph unicode="3" d="M141 223l52 63q34 41 81 -18q52 -65 128.5 -106.5t160.5 -41.5q165 0 234 82t69 219q0 145 -92 210t-206 65h-88q-45 0 -45 33v74q0 35 45 35h71q110 0 188.5 72t78.5 196q0 86 -63 141t-177 55q-107 0 -175 -49t-96 -85q-37 -48 -72 -15l-59 57q-26 25 23 83 q52 61 149.5 110t232.5 49q207 0 316 -100t109 -259q0 -126 -77.5 -210.5t-169.5 -104.5v-4q107 -15 205 -116t98 -241q0 -208 -120.5 -327.5t-382.5 -119.5q-152 0 -251 59.5t-151 118.5q-40 46 -16 75z" />
<glyph unicode="4" d="M64 399v88q0 32 24 69l549 848q23 36 56 36h91q46 0 46 -45v-877h171q45 0 45 -45v-74q0 -45 -44 -45h-172v-309q0 -45 -45 -45h-86q-45 0 -45 45v309h-545q-45 0 -45 45zM243 518h411v575q0 30 2 60h-2z" />
<glyph unicode="5" d="M163 239l62 55q34 30 79 -25q27 -33 95 -91t177 -58q143 0 215.5 88t72.5 233q0 137 -62 216t-186 79q-77 0 -128 -15t-106 -63q-38 -33 -80 -33h-47q-45 0 -45 45v707q0 45 45 45h690q45 0 45 -45v-74q0 -45 -45 -45h-559v-395q0 -30 -2 -60h4q56 47 131 65t139 18 q186 0 294 -124t108 -325q0 -219 -129.5 -343t-352.5 -124q-163 0 -262.5 67.5t-143.5 125.5q-38 50 -9 76z" />
<glyph unicode="6" d="M92 671q0 440 153 610.5t372 170.5q125 0 200 -32t129 -82q42 -39 19 -65l-47 -55q-28 -32 -73 6q-37 32 -89 55t-148 23q-135 0 -235 -135t-100 -424h2q45 65 129.5 110.5t213.5 45.5q160 0 281 -109.5t121 -329.5q0 -218 -115.5 -354t-341.5 -136q-236 0 -353.5 187.5 t-117.5 513.5zM307 447q0 -124 68.5 -225.5t189.5 -101.5q125 0 192 94t67 240q0 145 -68 218.5t-170 73.5q-132 0 -205.5 -81t-73.5 -218z" />
<glyph unicode="7" horiz-adv-x="1100" d="M88 1303v74q0 45 45 45h834q45 0 45 -45v-69q0 -32 -36 -72q-200 -227 -321 -502.5t-121 -600.5v-94q0 -45 -45 -45h-91q-45 0 -45 45v59q0 361 137 635.5t341 524.5v2q-30 -2 -60 -2h-638q-45 0 -45 45z" />
<glyph unicode="8" d="M92 410q0 140 87 238.5t172 119.5v3q-92 29 -158 108t-66 209q0 165 119 264.5t309 99.5t309 -99.5t119 -264.5q0 -130 -70 -209.5t-162 -108.5v-2q85 -21 176 -119.5t91 -238.5q0 -200 -111.5 -320t-351.5 -120t-351.5 120t-111.5 320zM287 406q0 -140 69 -213t199 -73 t198.5 73t68.5 213q0 110 -71 194t-196 84t-196.5 -84t-71.5 -194zM315 1088q0 -100 57.5 -171t182.5 -71t182.5 71t57.5 171q0 80 -55 147t-185 67t-185 -67t-55 -147z" />
<glyph unicode="9" d="M90 962q0 218 115.5 354t341.5 136q236 0 353.5 -187.5t117.5 -513.5q0 -440 -153 -610.5t-372 -170.5q-125 0 -200 32t-129 82q-42 39 -19 65l47 55q28 32 73 -6q37 -32 89 -55t148 -23q135 0 235 135t100 424h-2q-45 -65 -129.5 -110.5t-213.5 -45.5q-160 0 -281 109.5 t-121 329.5zM286 968q0 -145 68 -218.5t170 -73.5q132 0 205.5 81t73.5 218q0 124 -68.5 225.5t-189.5 101.5q-125 0 -192 -94t-67 -240z" />
<glyph unicode=":" horiz-adv-x="1102" d="M450 305v122q0 45 45 45h112q45 0 45 -45v-122q0 -45 -45 -45h-112q-45 0 -45 45zM450 1045v122q0 45 45 45h112q45 0 45 -45v-122q0 -45 -45 -45h-112q-45 0 -45 45z" />
<glyph unicode=";" horiz-adv-x="600" d="M203 883v122q0 45 45 45h112q45 0 45 -45v-122q0 -45 -45 -45h-112q-45 0 -45 45zM201 45v122q0 45 45 45h116q45 0 45 -45v-122q0 -105 -22.5 -183.5t-88.5 -137.5q-22 -19 -37 -5l-45 42q-15 14 7 34q34 30 55.5 86.5t21.5 118.5h-52q-45 0 -45 45z" />
<glyph unicode="&#x3c;" horiz-adv-x="2077" d="M500 719v32q0 20 25 34l952 550q39 23 57 -8l25 -43q18 -30 -22 -53l-859 -495v-2l859 -495q40 -23 22 -53l-25 -43q-18 -31 -57 -8l-952 550q-25 14 -25 34z" />
<glyph unicode="=" horiz-adv-x="2200" d="M500 468v70q0 35 50 35h750q50 0 50 -35v-70q0 -35 -50 -35h-750q-50 0 -50 35zM500 808v70q0 35 50 35h750q50 0 50 -35v-70q0 -35 -50 -35h-750q-50 0 -50 35z" />
<glyph unicode="&#x3e;" horiz-adv-x="2077" d="M518 186q-18 30 22 53l859 495v2l-859 495q-40 23 -22 53l25 43q18 31 57 8l952 -550q25 -14 25 -34v-32q0 -20 -25 -34l-952 -550q-39 -23 -57 8z" />
<glyph unicode="?" horiz-adv-x="1016" d="M164 1250q27 67 118.5 140.5t266.5 73.5q215 0 316 -102.5t101 -273.5q0 -143 -166.5 -327.5t-166.5 -322.5v-23q0 -45 -45 -45h-86q-45 0 -45 45v37q0 169 156.5 347.5t156.5 294.5q0 122 -57 171t-157 49q-110 0 -165.5 -40t-84.5 -109q-23 -54 -65 -35l-74 34 q-31 14 -3 86zM443 45v122q0 45 45 45h112q45 0 45 -45v-122q0 -45 -45 -45h-112q-45 0 -45 45z" />
<glyph unicode="@" horiz-adv-x="1992" d="M120 551q0 381 260 651.5t680 270.5q306 0 559 -178.5t253 -578.5q0 -294 -141 -449.5t-371 -155.5q-130 0 -166 57t-36 164h-2q-38 -89 -130 -155t-183 -66q-134 0 -215.5 96t-81.5 260q0 206 131.5 390.5t328.5 184.5q191 0 235 -176h4l23 106q7 34 42 34h110 q35 0 27 -35l-131 -591q-22 -98 4 -123.5t71 -25.5q146 0 252.5 111.5t106.5 373.5q0 304 -194 470.5t-494 166.5q-342 0 -581 -218.5t-239 -598.5q0 -332 228.5 -540t549.5 -208q150 0 302.5 54.5t283.5 160.5q27 22 43 0l39 -54q17 -24 -10 -42q-163 -115 -322.5 -177 t-344.5 -62q-359 0 -625 238t-266 645zM717 447q0 -123 44.5 -169.5t123.5 -46.5q101 0 188.5 142.5t103.5 208.5q15 64 15 145q0 69 -41 133t-121 64q-134 0 -223.5 -144t-89.5 -333z" />
<glyph unicode="A" horiz-adv-x="1404" d="M60 30q0 15 8 36l498 1307q23 61 66 61h140q43 0 66 -61l498 -1307q8 -21 8 -36q0 -30 -35 -30h-102q-53 0 -72 49l-125 331h-616l-125 -331q-19 -49 -72 -49h-102q-35 0 -35 30zM457 544h490l-153 400q-21 56 -41.5 124t-48.5 193h-4q-28 -125 -48.5 -193t-41.5 -124z " />
<glyph unicode="B" horiz-adv-x="1358" d="M170 55v1324q0 55 50 55h390q340 0 458 -110t118 -265q0 -123 -98 -208.5t-190 -100.5v-3q101 -9 225.5 -100.5t124.5 -248.5q0 -170 -125.5 -284t-462.5 -114h-440q-50 0 -50 55zM362 164h266q215 0 315 53t100 187q0 124 -101.5 192t-313.5 68h-266v-500zM362 808h251 q167 0 272.5 71.5t105.5 179.5q0 103 -79 157t-299 54h-251v-462z" />
<glyph unicode="C" horiz-adv-x="1402" d="M92 717q0 350 173.5 548.5t498.5 198.5q190 0 314 -64.5t178 -176.5q12 -25 12 -43q0 -24 -21 -37l-79 -46q-11 -6 -21 -6q-27 0 -50 44q-33 63 -108 118t-215 55q-250 0 -363.5 -155.5t-113.5 -435.5t113.5 -435.5t363.5 -155.5q144 0 230.5 66t125.5 138q22 42 50 42 q11 0 22 -7l83 -47q20 -11 20 -34q0 -19 -14 -46q-59 -115 -192 -191.5t-335 -76.5q-325 0 -498.5 198.5t-173.5 548.5z" />
<glyph unicode="D" horiz-adv-x="1436" d="M170 55v1324q0 55 50 55h369q424 0 589.5 -187.5t165.5 -527.5t-165.5 -529.5t-589.5 -189.5h-369q-50 0 -50 55zM362 164h218q330 0 444.5 140t114.5 415t-114.5 414t-444.5 139h-218v-1108z" />
<glyph unicode="E" horiz-adv-x="1270" d="M170 55v1324q0 55 50 55h875q55 0 55 -45v-74q0 -45 -55 -45h-733v-444h673q55 0 55 -45v-74q0 -45 -55 -45h-673v-498h763q55 0 55 -45v-74q0 -45 -55 -45h-905q-50 0 -50 55z" />
<glyph unicode="F" horiz-adv-x="1166" d="M170 55v1324q0 55 50 55h815q55 0 55 -45v-74q0 -45 -55 -45h-673v-474h587q55 0 55 -45v-74q0 -45 -55 -45h-587v-577q0 -55 -50 -55h-92q-50 0 -50 55z" />
<glyph unicode="G" horiz-adv-x="1470" d="M92 717q0 350 181 548.5t503 198.5q193 0 315 -66.5t179 -156.5q17 -28 17 -48t-18 -33l-75 -52q-12 -8 -23 -8l-51 39q-30 45 -113 107t-221 62q-245 0 -367 -155.5t-122 -435.5t119 -435.5t380 -155.5q130 0 226.5 31.5t135.5 87.5v265h-297q-55 0 -55 45v74 q0 45 55 45h434q55 0 55 -45v-472q-122 -89 -244 -138t-320 -49q-330 0 -512 198.5t-182 548.5z" />
<glyph unicode="H" horiz-adv-x="1422" d="M170 55v1324q0 55 50 55h92q50 0 50 -55v-551h698v551q0 55 50 55h92q50 0 50 -55v-1324q0 -55 -50 -55h-92q-50 0 -50 55v609h-698v-609q0 -55 -50 -55h-92q-50 0 -50 55z" />
<glyph unicode="I" horiz-adv-x="532" d="M170 55v1324q0 55 50 55h92q50 0 50 -55v-1324q0 -55 -50 -55h-92q-50 0 -50 55z" />
<glyph unicode="J" horiz-adv-x="824" d="M52 73q0 10 5 21l33 71q13 28 36 28q16 0 37 -14q81 -53 162 -53q97 0 126 65.5t29 186.5v1001q0 55 50 55h92q50 0 50 -55v-978q0 -198 -62 -314.5t-290 -116.5q-125 0 -235 59q-33 18 -33 44z" />
<glyph unicode="K" horiz-adv-x="1328" d="M170 55v1324q0 55 50 55h92q50 0 50 -55v-588q0 -40 -2 -80h4l668 684q38 39 70 39h121q47 0 47 -21q0 -16 -29 -45l-508 -518l535 -784q18 -27 18 -43q0 -23 -36 -23h-122q-44 0 -70 39l-457 675l-239 -243v-416q0 -55 -50 -55h-92q-50 0 -50 55z" />
<glyph unicode="L" horiz-adv-x="1136" d="M170 55v1324q0 55 50 55h92q50 0 50 -55v-1215h663q55 0 55 -45v-74q0 -45 -55 -45h-805q-50 0 -50 55z" />
<glyph unicode="M" horiz-adv-x="1708" d="M170 55v1324q0 55 50 55h213q38 0 57 -60l286 -897q44 -138 52 -166.5t23 -104.5h6q15 76 23 104.5t52 166.5l286 897q19 60 57 60h213q50 0 50 -55v-1324q0 -55 -50 -55h-92q-50 0 -50 55v1049q0 40 2 80h-4l-369 -1123q-20 -61 -66 -61h-110q-46 0 -66 61l-369 1123h-4 q2 -40 2 -80v-1049q0 -55 -50 -55h-92q-50 0 -50 55z" />
<glyph unicode="N" horiz-adv-x="1438" d="M170 55v1324q0 55 50 55h128q70 0 100 -50l626 -1049h4q-2 40 -2 80v964q0 55 50 55h92q50 0 50 -55v-1324q0 -55 -50 -55h-88q-70 0 -100 50l-666 1113h-4q2 -40 2 -80v-1028q0 -55 -50 -55h-92q-50 0 -50 55z" />
<glyph unicode="O" horiz-adv-x="1524" d="M92 717q0 350 172.5 548.5t497.5 198.5t497.5 -198.5t172.5 -548.5t-172.5 -548.5t-497.5 -198.5t-497.5 198.5t-172.5 548.5zM297 717q0 -280 115 -435.5t350 -155.5t350 155.5t115 435.5t-115 435.5t-350 155.5t-350 -155.5t-115 -435.5z" />
<glyph unicode="P" horiz-adv-x="1308" d="M170 55v1324q0 55 50 55h420q340 0 459 -114.5t119 -314.5t-119 -314.5t-459 -114.5h-278v-521q0 -55 -50 -55h-92q-50 0 -50 55zM362 740h281q220 0 300 62.5t80 202.5t-80 202.5t-300 62.5h-281v-530z" />
<glyph unicode="Q" horiz-adv-x="1524" d="M92 719q0 350 172.5 547.5t497.5 197.5t497.5 -198.5t172.5 -548.5t-172 -549q-144 -165 -393 -192q10 -97 72 -155t177 -58q62 0 101 10t44 -11l20 -88q5 -24 -25 -31q-89 -20 -172 -20q-215 0 -307.5 107.5t-101.5 243.5q-262 24 -411 196q-172 199 -172 549zM297 717 q0 -280 115 -435.5t350 -155.5t350 155.5t115 435.5t-115 435.5t-350 155.5t-350 -155.5t-115 -435.5z" />
<glyph unicode="R" horiz-adv-x="1394" d="M170 55v1324q0 55 50 55h483q289 0 418.5 -108t129.5 -285q0 -156 -104.5 -262t-297.5 -122v-2q102 -76 135 -115.5t74 -106.5l226 -367q17 -27 17 -43q0 -23 -35 -23h-114q-47 0 -70 39l-208 357q-45 77 -129 151t-209 74h-174v-566q0 -55 -50 -55h-92q-50 0 -50 55z M362 785h289q195 0 300 51.5t105 216.5q0 126 -96 171.5t-261 45.5h-337v-485z" />
<glyph unicode="S" horiz-adv-x="1224" d="M130 168q0 12 8 24l52 75q13 18 32 18q23 0 55 -24q79 -59 164.5 -97t207.5 -38q90 0 152 27t99.5 77.5t37.5 122.5q0 52 -15.5 96.5t-49.5 74.5t-71 47q-61 28 -182.5 65t-212.5 80q-90 43 -143.5 104t-71 125.5t-17.5 147.5q0 127 74 219t181.5 122t218.5 30 q127 0 221 -33t168 -86q34 -24 34 -50q0 -14 -10 -28l-51 -73q-9 -14 -26 -14q-24 0 -64 28q-51 36 -124.5 67.5t-145.5 31.5q-92 0 -153 -21.5t-96 -72.5t-35 -118q0 -42 8 -77.5t41 -72.5t80 -57q63 -27 195.5 -63.5t231.5 -89.5q92 -49 132.5 -102.5t63 -116t22.5 -140.5 q0 -142 -73 -237t-173 -132t-251 -37q-181 0 -300 42t-178 96q-36 33 -36 60z" />
<glyph unicode="T" horiz-adv-x="1240" d="M36 1307v82q0 45 55 45h1058q55 0 55 -45v-82q0 -45 -55 -45h-433v-1207q0 -55 -50 -55h-92q-50 0 -50 55v1207h-433q-55 0 -55 45z" />
<glyph unicode="U" horiz-adv-x="1402" d="M170 547v832q0 55 50 55h92q50 0 50 -55v-802q0 -280 79.5 -365.5t259.5 -85.5t259.5 85.5t79.5 365.5v802q0 55 50 55h92q50 0 50 -55v-832q0 -317 -145.5 -447t-385.5 -130t-385.5 130t-145.5 447z" />
<glyph unicode="V" horiz-adv-x="1338" d="M63 1404q0 30 35 30h102q54 0 72 -49l325 -895q21 -59 52.5 -158.5t42.5 -158.5h4q11 59 42.5 158.5t52.5 158.5l325 895q18 49 72 49h102q35 0 35 -30q0 -14 -8 -36l-487 -1307q-23 -61 -66 -61h-140q-43 0 -66 61l-487 1307q-8 21 -8 36z" />
<glyph unicode="W" horiz-adv-x="1888" d="M60 1403q0 31 30 31h122q32 0 43 -46l223 -961q14 -58 31.5 -126t30.5 -128h5q10 59 23.5 117t30.5 136l228 954q13 54 64 54h138q51 0 64 -54l228 -954q17 -78 30.5 -136t23.5 -117h5q13 60 30.5 128t31.5 126l223 961q11 46 43 46h122q30 0 30 -31q0 -12 -4 -29 l-344 -1297q-20 -77 -74 -77h-125q-50 0 -71 84l-241 959q-18 73 -26 119.5t-14 96.5h-2q-6 -50 -14 -96.5t-26 -119.5l-241 -959q-21 -84 -71 -84h-125q-54 0 -74 77l-344 1297q-4 17 -4 29z" />
<glyph unicode="X" horiz-adv-x="1310" d="M86 22q0 16 20 44l480 674l-446 628q-20 28 -20 44q0 22 38 22h123q44 0 70 -39l351 -522l351 522q26 39 70 39h123q38 0 38 -22q0 -16 -20 -44l-446 -628l480 -674q20 -28 20 -44q0 -22 -38 -22h-124q-44 0 -70 39l-384 568l-384 -568q-26 -39 -70 -39h-124 q-38 0 -38 22z" />
<glyph unicode="Y" horiz-adv-x="1302" d="M81 1409q0 25 43 25h112q44 0 72 -49l254 -437q42 -72 72 -125.5t58 -113.5h4q28 60 58 113.5t72 125.5l254 437q28 49 72 49h112q43 0 43 -25q0 -16 -16 -41l-501 -778v-535q0 -55 -50 -55h-92q-50 0 -50 55v535l-501 778q-16 25 -16 41z" />
<glyph unicode="Z" horiz-adv-x="1216" d="M65 45v48q0 48 30 89l786 1086v4q-40 -2 -80 -2h-649q-55 0 -55 45v74q0 45 55 45h922q55 0 55 -45v-31q0 -33 -20 -61l-796 -1131v-4q27 2 80 2h703q55 0 55 -45v-74q0 -45 -55 -45h-976q-55 0 -55 45z" />
<glyph unicode="[" horiz-adv-x="658" d="M170 -163v1814q0 45 45 45h328q45 0 45 -35v-60q0 -35 -45 -35h-197v-1644h197q45 0 45 -35v-60q0 -35 -45 -35h-328q-45 0 -45 45z" />
<glyph unicode="\" horiz-adv-x="840" d="M41 1391q-17 42 15 55l45 18q34 14 51 -28l715 -1771q17 -42 -17 -56l-45 -18q-32 -13 -49 29z" />
<glyph unicode="]" horiz-adv-x="658" d="M70 -113q0 35 45 35h197v1644h-197q-45 0 -45 35v60q0 35 45 35h328q45 0 45 -45v-1814q0 -45 -45 -45h-328q-45 0 -45 35v60z" />
<glyph unicode="^" horiz-adv-x="866" d="M130 979l263 421q21 34 65 34h42q44 0 65 -34l263 -421q23 -37 -6 -56l-49 -32q-29 -19 -54 20l-239 379h-2l-239 -379q-25 -39 -54 -20l-49 32q-29 19 -6 56z" />
<glyph unicode="_" horiz-adv-x="1100" d="M-24 35v60q0 35 45 35h1058q45 0 45 -35v-60q0 -35 -45 -35h-1058q-45 0 -45 35z" />
<glyph unicode="`" horiz-adv-x="614" d="M269 1383q-45 52 14 52h111q55 0 81 -37l139 -195q38 -53 -12 -53h-74q-56 0 -81 29z" />
<glyph unicode="a" horiz-adv-x="1067" d="M85 280q0 178 166.5 261t497.5 97v68q0 94 -42.5 162.5t-168.5 68.5q-97 0 -164.5 -28t-126.5 -94q-27 -30 -51 -3l-52 60q-8 9 -8 20q0 18 23 40q82 78 192 106.5t187 28.5q209 0 298 -107.5t89 -294.5v-620q0 -45 -45 -45h-90q-39 0 -39 45v49h-2q-79 -62 -154.5 -86.5 t-168.5 -24.5q-164 0 -252.5 78.5t-88.5 218.5zM267 286q0 -98 46.5 -133t147.5 -35q77 0 146 15t142 79v295q-341 -26 -411.5 -89.5t-70.5 -131.5z" />
<glyph unicode="b" horiz-adv-x="1119" d="M142 45v1386q0 45 45 45h86q45 0 45 -45v-445q0 -31 -2 -61h2q55 66 124 104t184 38q200 0 304 -163.5t104 -378.5t-104 -378.5t-304 -163.5q-115 0 -184 38t-124 104h-2l-6 -80q-3 -45 -39 -45h-84q-45 0 -45 45zM318 410q0 -150 71.5 -223.5t179.5 -73.5 q152 0 215.5 114t63.5 298t-63.5 298t-215.5 114q-108 0 -179.5 -73.5t-71.5 -223.5v-230z" />
<glyph unicode="c" horiz-adv-x="1026" d="M85 525q0 235 116.5 388.5t356.5 153.5q162 0 247.5 -57.5t123.5 -117.5q21 -33 -9 -53l-63 -41q-9 -6 -18 -6l-42 33q-29 46 -81.5 79t-157.5 33q-137 0 -212 -101t-75 -311t75 -311t212 -101q111 0 170 42.5t86 92.5q18 33 40 33q9 0 19 -6l67 -40q18 -11 18 -27 q0 -12 -9 -27q-25 -43 -113.5 -120.5t-277.5 -77.5q-240 0 -356.5 153.5t-116.5 388.5z" />
<glyph unicode="d" horiz-adv-x="1119" d="M85 525q0 215 104 378.5t304 163.5q115 0 184 -38t124 -104h2q-2 30 -2 61v445q0 45 45 45h86q45 0 45 -45v-1386q0 -45 -45 -45h-84q-36 0 -39 45l-6 80h-2q-55 -66 -124 -104t-184 -38q-200 0 -304 163.5t-104 378.5zM271 525q0 -184 63.5 -298t215.5 -114 q108 0 179.5 73.5t71.5 223.5v230q0 150 -71.5 223.5t-179.5 73.5q-152 0 -215.5 -114t-63.5 -298z" />
<glyph unicode="e" horiz-adv-x="1098" d="M85 525q0 248 124 395t355 147q192 0 318.5 -134.5t126.5 -429.5q0 -45 -41 -45h-697q17 -193 104 -268.5t197 -75.5q116 0 178 39t91 77q20 26 39 26q12 0 23 -10l59 -51q23 -20 0 -55q-19 -29 -108.5 -93t-281.5 -64q-250 0 -368.5 147t-118.5 395zM267 588h565 q-4 140 -72 245.5t-200 105.5q-116 0 -197 -77.5t-96 -273.5z" />
<glyph unicode="f" horiz-adv-x="652" d="M45 953v62q0 35 45 35h107v149q0 167 90 230.5t206 63.5q69 0 111.5 -7t100.5 -31q16 -6 16 -20q0 -5 -3 -12l-31 -79q-8 -20 -35 -8q-22 10 -54 18.5t-69 8.5q-83 0 -119.5 -40t-36.5 -153v-120h183q45 0 45 -35v-62q0 -35 -45 -35h-183v-873q0 -45 -45 -45h-86 q-45 0 -45 45v873h-107q-45 0 -45 35z" />
<glyph unicode="g" horiz-adv-x="1119" d="M85 525q0 215 104 378.5t304 163.5q115 0 184 -38t124 -104h2l6 80q3 45 39 45h84q45 0 45 -45v-1013q0 -192 -88.5 -300.5t-349.5 -108.5q-175 0 -262 39.5t-124 83.5q-27 33 -3 56l55 54q9 8 20 8q19 0 44 -22q53 -48 102 -68.5t169 -20.5q136 0 198.5 58t62.5 240v60 q0 31 2 61h-2q-52 -69 -122.5 -109t-185.5 -40q-200 0 -304 163.5t-104 378.5zM271 525q0 -184 63.5 -298t215.5 -114q108 0 179.5 73.5t71.5 223.5v230q0 150 -71.5 223.5t-179.5 73.5q-152 0 -215.5 -114t-63.5 -298z" />
<glyph unicode="h" horiz-adv-x="1128" d="M142 45v1386q0 45 45 45h86q45 0 45 -45v-446q0 -30 -2 -60h4q65 72 140 107t187 35q182 0 261.5 -102.5t79.5 -280.5v-639q0 -45 -45 -45h-86q-45 0 -45 45v591q0 196 -65 248.5t-165 52.5q-130 0 -197 -77.5t-67 -265.5v-549q0 -45 -45 -45h-86q-45 0 -45 45z" />
<glyph unicode="i" horiz-adv-x="460" d="M142 45v960q0 45 45 45h86q45 0 45 -45v-960q0 -45 -45 -45h-86q-45 0 -45 45zM142 1285v86q0 45 45 45h86q45 0 45 -45v-86q0 -45 -45 -45h-86q-45 0 -45 45z" />
<glyph unicode="j" horiz-adv-x="466" d="M-94 -365l17 81q5 24 25 15q39 -18 96 -18q59 0 85.5 58t26.5 235v999q0 45 45 45h86q45 0 45 -45v-1098q0 -194 -73.5 -259t-182.5 -65q-106 0 -152 20q-22 10 -18 32zM156 1285v86q0 45 45 45h86q45 0 45 -45v-86q0 -45 -45 -45h-86q-45 0 -45 45z" />
<glyph unicode="k" horiz-adv-x="1003" d="M142 45v1386q0 45 45 45h86q45 0 45 -45v-832q0 -30 -2 -60h2l405 485q22 26 53 26h91q46 0 46 -21q0 -14 -20 -38l-314 -374l359 -558q14 -22 14 -36q0 -23 -40 -23h-98q-33 0 -57 37l-288 449l-151 -180v-261q0 -45 -45 -45h-86q-45 0 -45 45z" />
<glyph unicode="l" horiz-adv-x="460" d="M142 45v1248q0 20 10 38l70 127q19 35 31 35h35q30 0 30 -35v-1413q0 -45 -45 -45h-86q-45 0 -45 45z" />
<glyph unicode="m" horiz-adv-x="1678" d="M142 45v960q0 45 45 45h84q45 0 45 -45v-80h4q65 72 141 107t146 35q129 0 198.5 -64.5t89.5 -129.5h4q55 82 139 138t179 56q159 0 240 -102.5t81 -280.5v-639q0 -45 -45 -45h-86q-45 0 -45 45v581q0 196 -49 253.5t-151 57.5q-100 0 -167 -85.5t-67 -257.5v-549 q0 -45 -45 -45h-86q-45 0 -45 45v581q0 196 -49 253.5t-151 57.5q-100 0 -167 -77.5t-67 -265.5v-549q0 -45 -45 -45h-86q-45 0 -45 45z" />
<glyph unicode="n" horiz-adv-x="1128" d="M142 45v960q0 45 45 45h84q45 0 45 -45v-80h4q65 72 140 107t187 35q182 0 261.5 -102.5t79.5 -280.5v-639q0 -45 -45 -45h-86q-45 0 -45 45v591q0 196 -65 248.5t-165 52.5q-130 0 -197 -77.5t-67 -265.5v-549q0 -45 -45 -45h-86q-45 0 -45 45z" />
<glyph unicode="o" horiz-adv-x="1148" d="M85 525q0 235 124.5 388.5t364.5 153.5t364.5 -153.5t124.5 -388.5t-124.5 -388.5t-364.5 -153.5t-364.5 153.5t-124.5 388.5zM271 525q0 -210 83 -311t220 -101t220 101t83 311t-83 311t-220 101t-220 -101t-83 -311z" />
<glyph unicode="p" horiz-adv-x="1119" d="M142 -355v1360q0 45 45 45h84q36 0 39 -45l6 -80h2q55 66 124 104t184 38q200 0 304 -163.5t104 -378.5t-104 -378.5t-304 -163.5q-115 0 -184 38t-124 104h-2q2 -30 2 -61v-419q0 -45 -45 -45h-86q-45 0 -45 45zM318 410q0 -150 71.5 -223.5t179.5 -73.5 q152 0 215.5 114t63.5 298t-63.5 298t-215.5 114q-108 0 -179.5 -73.5t-71.5 -223.5v-230z" />
<glyph unicode="q" horiz-adv-x="1119" d="M85 525q0 215 104 378.5t304 163.5q115 0 184 -38t124 -104h2l6 80q3 45 39 45h84q45 0 45 -45v-1360q0 -45 -45 -45h-86q-45 0 -45 45v419q0 31 2 61h-2q-55 -66 -124 -104t-184 -38q-200 0 -304 163.5t-104 378.5zM271 525q0 -184 63.5 -298t215.5 -114 q108 0 179.5 73.5t71.5 223.5v230q0 150 -71.5 223.5t-179.5 73.5q-152 0 -215.5 -114t-63.5 -298z" />
<glyph unicode="r" horiz-adv-x="722" d="M142 45v960q0 45 45 45h84q45 0 45 -45v-120h4q48 90 113 136t162 46q64 0 90 -11q18 -7 18 -22q0 -4 -1 -8l-23 -82q-5 -18 -26 -14q-35 7 -66 7q-117 0 -193 -105.5t-76 -287.5v-499q0 -45 -45 -45h-86q-45 0 -45 45z" />
<glyph unicode="s" horiz-adv-x="944" d="M81 133q0 10 7 19l45 63q10 14 26 14q17 0 39 -17q59 -45 131.5 -72t165.5 -27q55 0 98 13.5t75.5 50.5t32.5 99q0 36 -15.5 68t-48 51.5t-63.5 30.5q-51 19 -101.5 31.5t-132.5 38.5q-55 17 -104 48.5t-85.5 85.5t-36.5 149q0 97 59 167t148 95.5t173 25.5 q124 0 199.5 -28.5t130.5 -67.5q32 -23 9 -53l-45 -60q-10 -14 -26 -14q-17 0 -39 16q-37 26 -105 49t-119 23q-63 0 -108 -14t-73 -48t-28 -80q0 -35 11 -62.5t41 -50.5t84 -37q84 -22 153.5 -40t125.5 -44q73 -34 112.5 -75t54.5 -88.5t15 -105.5q0 -107 -63.5 -181 t-141.5 -98.5t-188 -24.5q-149 0 -255.5 42.5t-137.5 72.5q-20 18 -20 35z" />
<glyph unicode="t" horiz-adv-x="757" d="M46 953v62q0 35 45 35h118v90q0 20 10 38l70 127q19 35 31 35h35q30 0 30 -35v-255h213q45 0 45 -35v-62q0 -35 -45 -35h-213v-637q0 -105 31.5 -136.5t75.5 -31.5q34 0 81.5 20t65.5 34t28 -9l33 -77q2 -6 2 -11q0 -13 -14 -21q-39 -23 -114 -44.5t-150 -21.5 q-104 0 -159.5 75t-55.5 212v648h-118q-45 0 -45 35z" />
<glyph unicode="u" horiz-adv-x="1120" d="M140 366v639q0 45 45 45h86q45 0 45 -45v-591q0 -196 65 -248.5t161 -52.5q126 0 193 77.5t67 265.5v549q0 45 45 45h86q45 0 45 -45v-960q0 -45 -45 -45h-84q-45 0 -45 45v80h-4q-65 -72 -140 -107t-183 -35q-175 0 -256 102.5t-81 280.5z" />
<glyph unicode="v" horiz-adv-x="986" d="M57 1025q0 25 32 25h109q32 0 45 -39l212 -660q26 -81 35.5 -111.5t17.5 -75.5h4q8 45 17.5 75.5t35.5 111.5l212 660q13 39 45 39h109q32 0 32 -25q0 -10 -5 -24l-328 -940q-21 -61 -54 -61h-132q-33 0 -54 61l-328 940q-5 14 -5 24z" />
<glyph unicode="w" horiz-adv-x="1499" d="M56 1022q0 28 30 28h105q36 0 45 -39l147 -660q7 -29 21.5 -91t20.5 -91h4q5 28 17.5 84t23.5 98l176 660q10 39 45 39h90q35 0 45 -39l176 -660q11 -42 23.5 -98t17.5 -84h4q6 29 20.5 91t21.5 91l147 660q9 39 45 39h105q30 0 30 -28q0 -9 -3 -21l-248 -940 q-16 -61 -54 -61h-120q-38 0 -54 61l-170 661q-18 70 -22.5 98t-7.5 53h-2q-3 -25 -7.5 -53t-22.5 -98l-170 -661q-16 -61 -54 -61h-120q-38 0 -54 61l-248 940q-3 12 -3 21z" />
<glyph unicode="x" horiz-adv-x="974" d="M75 23q0 14 16 36l341 494l-303 438q-16 22 -16 36q0 23 42 23h98q36 0 53 -26l221 -348l220 348q16 26 53 26h99q42 0 42 -23q0 -14 -16 -36l-303 -438l341 -494q16 -22 16 -36q0 -23 -42 -23h-98q-36 0 -53 26l-259 405l-259 -405q-17 -26 -53 -26h-98q-42 0 -42 23z " />
<glyph unicode="y" horiz-adv-x="990" d="M64 1025q0 25 32 25h109q33 0 45 -39l210 -660q9 -27 27.5 -84.5t26.5 -102.5h2q8 45 19.5 81.5t34.5 105.5l212 660q13 39 45 39h109q32 0 32 -25q0 -10 -5 -24l-337 -940q-95 -265 -170 -371.5t-224 -106.5q-78 0 -124 23q-21 10 -14 31l26 81q7 21 27 12 q41 -17 79 -17q70 0 114 75.5t70 151.5l20 59l-361 1002q-5 14 -5 24z" />
<glyph unicode="z" horiz-adv-x="950" d="M55 35v51q0 34 35 80l578 752v2q-30 -2 -60 -2h-484q-45 0 -45 35v62q0 35 45 35h702q45 0 45 -35v-47q0 -30 -37 -78l-582 -758v-2q30 2 60 2h538q45 0 45 -35v-62q0 -35 -45 -35h-750q-45 0 -45 35z" />
<glyph unicode="{" horiz-adv-x="776" d="M90 524v40q0 45 35 45q72 0 148.5 74.5t76.5 247.5v235q0 169 63 249.5t248 80.5q45 0 45 -35v-60q0 -35 -45 -35q-98 0 -116.5 -41t-18.5 -136v-286q0 -205 -91.5 -277t-155.5 -81v-2q64 -9 155.5 -81t91.5 -277v-286q0 -95 18.5 -136t116.5 -41q45 0 45 -35v-60 q0 -35 -45 -35q-185 0 -248 80.5t-63 249.5v235q0 173 -76.5 247.5t-148.5 74.5q-35 0 -35 45z" />
<glyph unicode="|" horiz-adv-x="590" d="M230 -395v1846q0 45 35 45h60q35 0 35 -45v-1846q0 -45 -35 -45h-60q-35 0 -35 45z" />
<glyph unicode="}" horiz-adv-x="776" d="M70 -313q0 35 45 35q98 0 116.5 41t18.5 136v286q0 205 91.5 277t155.5 81v2q-64 9 -155.5 81t-91.5 277v286q0 95 -18.5 136t-116.5 41q-45 0 -45 35v60q0 35 45 35q185 0 248 -80.5t63 -249.5v-235q0 -173 76.5 -247.5t148.5 -74.5q35 0 35 -45v-40q0 -45 -35 -45 q-72 0 -148.5 -74.5t-76.5 -247.5v-235q0 -169 -63 -249.5t-248 -80.5q-45 0 -45 35v60z" />
<glyph unicode="~" horiz-adv-x="1280" d="M110 671q35 110 116 174.5t196 64.5t278.5 -120t238.5 -120q69 0 113 45t69 101q13 30 37 21l43 -15q24 -8 13 -43q-35 -110 -116 -174.5t-196 -64.5t-278.5 120t-238.5 120q-69 0 -113 -45t-69 -101q-13 -30 -37 -21l-43 15q-24 8 -13 43z" />
<glyph unicode="&#xa1;" horiz-adv-x="600" d="M198 -329l21 944q0 45 45 45h72q45 0 45 -45l21 -944q0 -55 -50 -55h-104q-50 0 -50 55zM199 883v122q0 45 45 45h112q45 0 45 -45v-122q0 -45 -45 -45h-112q-45 0 -45 45z" />
<glyph unicode="&#xa2;" d="M125 525q0 235 116.5 388.5t356.5 153.5q162 0 247.5 -57.5t123.5 -117.5q21 -33 -9 -53l-63 -41q-30 -21 -60 27q-29 46 -81.5 79t-157.5 33q-137 0 -212 -101t-75 -311t75 -311t212 -101q111 0 170 42.5t86 92.5q26 47 59 27l67 -40q30 -18 9 -54 q-25 -43 -113.5 -120.5t-277.5 -77.5q-240 0 -356.5 153.5t-116.5 388.5zM217 -165l573 1421q17 42 51 28l45 -18q32 -13 15 -55l-573 -1421q-17 -42 -49 -29l-45 18q-34 14 -17 56z" />
<glyph unicode="&#xa3;" d="M79 45v57q0 36 35 73q30 32 98.5 104t68.5 196v153h-158q-44 0 -44 45v74q0 45 45 45h157v221q0 237 107 338t302 101q108 0 186 -33t125 -80q35 -35 13 -61l-45 -52q-30 -35 -67 2q-32 32 -87.5 53t-133.5 21q-96 0 -160 -52.5t-64 -214.5v-243h285q45 0 45 -45v-74 q0 -45 -44 -45h-286v-133q0 -141 -46.5 -221t-91.5 -108v-4q27 2 80 2h572q55 0 55 -45v-74q0 -45 -55 -45h-837q-55 0 -55 45z" />
<glyph unicode="&#xa4;" horiz-adv-x="868" d="M150 678v70q0 35 45 35h478q45 0 45 -35v-70q0 -35 -45 -35h-478q-45 0 -45 35z" />
<glyph unicode="&#xa5;" horiz-adv-x="1761" d="M450 682v74q0 45 44 44h577v-164h-576q-45 1 -45 46zM690 636v164h576q45 0 45 -45v-74q0 -45 -44 -45h-577zM785 314q0 51 36 87t87 36t87 -36t36 -87t-36 -87t-87 -36t-87 36t-36 87zM785 1146q0 51 36 87.5t87 36.5t87 -36.5t36 -87.5q0 -50 -36 -86.5t-87 -36.5 t-87 36.5t-36 86.5z" />
<glyph unicode="&#xa6;" horiz-adv-x="1800" d="M123 0v1434h1331v-1434h-1331zM287 266l102 -102l399 444l400 -444l102 102l-405 451l405 450l-102 103l-400 -445l-399 445l-102 -103l403 -450z" />
<glyph unicode="&#xa7;" horiz-adv-x="1248" d="M150 705v160h391v393h164v-393h393v-160h-393v-391h-164v391h-391z" />
<glyph unicode="&#xa8;" horiz-adv-x="2497" d="M523 0v1434h1331v-1434h-1331zM687 266l102 -102l399 444l400 -444l102 102l-405 451l405 450l-102 103l-400 -445l-399 445l-102 -103l403 -450z" />
<glyph unicode="&#xa9;" horiz-adv-x="1685" d="M450 980l117 116l278 -277l278 277l112 -111l-279 -278l278 -276l-118 -117l-276 276l-277 -276l-112 111l278 276z" />
<glyph unicode="&#xaa;" horiz-adv-x="2201" d="M548 509v123h1171v-123h-1171zM548 879v123h1171v-123h-1171zM628 283l981 981l87 -87l-981 -981z" />
<glyph unicode="&#xab;" horiz-adv-x="1932" d="M450 199v123h1032v-123h-1032zM450 549v123h1032v-123h-1032zM462 992q36 100 100.5 157t158.5 57q24 0 61 -9.5t80.5 -23.5t90.5 -30t91.5 -30t83.5 -23.5t66 -9.5q44 0 91.5 31.5t81.5 100.5l64 -78q-18 -67 -47.5 -108.5t-64 -65t-71.5 -31.5t-69 -8q-39 0 -84 9.5 t-91.5 23t-92.5 30t-86 30t-72 23t-52 9.5q-42 0 -91 -34t-84 -100z" />
<glyph unicode="&#xac;" horiz-adv-x="1869" d="M450 434q36 100 100.5 157t158.5 57q24 0 61 -9.5t80.5 -23.5t90.5 -30t91.5 -30t83.5 -23.5t66 -9.5q44 0 91.5 31.5t81.5 100.5l64 -78q-18 -67 -47.5 -108.5t-64 -65t-71.5 -31.5t-69 -8q-39 0 -84 9.5t-91.5 23t-92.5 30t-86 30t-72 23t-52 9.5q-42 0 -91 -34 t-84 -100zM450 784q36 100 100.5 157t158.5 57q24 0 61 -9.5t80.5 -23.5t90.5 -30t91.5 -30t83.5 -23.5t66 -9.5q44 0 91.5 31.5t81.5 100.5l64 -78q-18 -67 -47.5 -108.5t-64 -65t-71.5 -31.5t-69 -8q-39 0 -84 9.5t-91.5 23t-92.5 30t-86 30t-72 23t-52 9.5q-42 0 -91 -34 t-84 -100z" />
<glyph unicode="&#xad;" horiz-adv-x="680" d="M56 518v70q0 35 45 35h478q45 0 45 -35v-70q0 -35 -45 -35h-478q-45 0 -45 35z" />
<glyph unicode="&#xae;" horiz-adv-x="1539" d="M145 1287q-17 -98 32 -135q25 -19 75 -41q393 -106 682 -141q309 -130 420 -318q51 245 59 277q-363 99 -601 127q-180 22 -322 8q-174 -18 -235 -74q-37 -31 -57 -144q-21 -115 5 -157q15 -26 88 -61q98 -46 365 -124q32 -10 156 -45q96 -29 156 -46q68 -21 108 -36 q19 -8 32 -14q5 -3 11 -7q-9 8 -5 4q-4 4 -6 34q5 68 7 102v-1q24 85 28 99q12 30 16 32q3 0 -3 -5t-14 -9q-7 -4 -28 -6q-32 -4 -88 7q-59 10 -212 60q-170 55 -191 60q-122 26 -191 -17q-29 -18 -58 -77q-43 -88 -47 -221q-5 -113 85 -180q42 -31 183 -97 q119 -54 170 -111q18 -18 28 -43q-3 10 -1 -1q-1 14 -1 29q2 64 25 123q6 12 -1 -1q-42 -73 -46 -192q-1 -28 6 -56q11 -38 31 -3q46 83 65 179q19 108 -10 188q-21 61 -128 123q-36 22 -97 51q-78 38 -99 49q-106 56 -129 111q1 -4 1 -12q8 -71 -23 -146q-3 -5 1 0 q-1 -2 5 4q23 19 67 23q65 5 197 -33q39 -11 112 -35q76 -25 110 -35q121 -36 186 -31q37 4 64 23q15 11 27 40q42 101 35 202q-2 31 -17 48q-11 12 -44 25q-53 20 -330 101q-275 79 -394 125q-84 31 -122 59q1 -1 -10 12q-7 7 -2 -6q4 -13 -11 -110q-16 -107 -36 -127 q2 1 6 6q17 11 65 29q111 42 272 34q71 -4 703 -113q41 -9 92 -24q25 -8 51 98q33 135 7 179q-110 188 -423 325q-301 132 -692 165q-47 4 -86 -15q-61 -30 -74 -111z" />
<glyph unicode="&#xaf;" horiz-adv-x="1665" d="M124 -2v1408h1408v-1408h-1408z" />
<glyph unicode="&#xb0;" horiz-adv-x="1407" d="M126 713l577 719l582 -714l-578 -719z" />
<glyph unicode="&#xb1;" horiz-adv-x="1665" d="M120 706q0 292 206 498.5t498 206.5t498 -206.5t206 -498.5q0 -291 -206 -497.5t-498 -206.5t-498 206.5t-206 497.5z" />
<glyph unicode="&#xb2;" horiz-adv-x="1922" d="M127 -1h1628l-814 1410z" />
<glyph unicode="&#xb3;" horiz-adv-x="1290" d="M145 703q0 291 148 497t357 206t357 -206t148 -497t-148 -497t-357 -206t-357 206t-148 497z" />
<glyph unicode="&#xb4;" horiz-adv-x="1076" d="M174 1250q27 67 118.5 140.5t266.5 73.5q215 0 316 -102.5t101 -273.5q0 -143 -166.5 -327.5t-166.5 -322.5v-23q0 -45 -45 -45h-86q-45 0 -45 45v37q0 169 156.5 347.5t156.5 294.5q0 122 -57 171t-157 49q-110 0 -165.5 -40t-84.5 -109q-23 -54 -65 -35l-74 34 q-31 14 -3 86zM453 45v122q0 45 45 45h112q45 0 45 -45v-122q0 -45 -45 -45h-112q-45 0 -45 45z" />
<glyph unicode="&#xb5;" horiz-adv-x="1801" d="M125 0v180h1533v-180h-1533z" />
<glyph unicode="&#xb6;" horiz-adv-x="1664" d="M126 -10v152l967 1269l158 -117l-837 -1132h1119v-172h-1407z" />
<glyph unicode="&#xb7;" horiz-adv-x="1923" d="M129 -7h1636l-818 1417zM415 158l535 925l534 -925h-1069z" />
<glyph unicode="&#xb8;" horiz-adv-x="2244" d="M201 1187v119h1557v-119h-1557zM1759 1079l290 168l-290 167v-93h1v-138h-1v-104z" />
<glyph unicode="&#xb9;" horiz-adv-x="2182" d="M201 1187v119h1802v-119h-1802z" />
<glyph unicode="&#xba;" horiz-adv-x="2305" d="M175 1247l290 167v-93h-1v-138h1v-104zM284 1187v119h1557v-119h-1557zM1842 1079l290 168l-290 167v-93h1v-138h-1v-104z" />
<glyph unicode="&#xbb;" horiz-adv-x="1925" d="M646 0v1406h180v-1406h-180zM1110 0v1406h180v-1406h-180z" />
<glyph unicode="&#xbc;" horiz-adv-x="2431" d="M513 0v160h1422v-160h-1422zM1143 82l1 1332h160v-1332h-161z" />
<glyph unicode="&#xbd;" horiz-adv-x="1487" d="M104 1212q50 27 129.5 46.5t204.5 19.5h894l-19 -179h-171v-767q0 -116 9.5 -198.5t21.5 -133.5h-191q-18 36 -29.5 114t-11.5 206v779h-369q-3 -71 -10.5 -155t-18 -234.5t-25 -242.5t-31 -177t-35 -159.5t-39.5 -130.5h-199q21 63 39.5 140.5t35 162.5t31 174.5t25 238 t18 230.5t10.5 153q-88 -2 -143.5 -9t-94.5 -18z" />
<glyph unicode="&#xbe;" horiz-adv-x="898" d="M134 1101q0 64 24 120t66 98t97.5 66t118.5 24t118.5 -24t97.5 -66t66 -98t24 -120q0 -63 -24 -119t-65.5 -97.5t-97.5 -66t-119 -24.5t-118.5 24t-97.5 66t-66 98t-24 119zM270 1101q0 -35 13.5 -65t36.5 -53t54 -36t66 -13q36 0 67 13.5t54 36t36 53t13 64.5 q0 35 -13.5 65.5t-36.5 53.5t-54 36.5t-66 13.5t-66 -13t-54 -36t-36.5 -53.5t-13.5 -66.5z" />
<glyph unicode="&#xbf;" horiz-adv-x="1799" d="M450 102v121h899v-121h-899zM461 722v122l881 439v-139l-757 -360l759 -360v-140z" />
<glyph unicode="&#xc0;" horiz-adv-x="1799" d="M450 102v121h899v-121h-899zM455 284v140l759 360l-757 360v139l881 -439v-122z" />
<glyph unicode="&#xc1;" horiz-adv-x="1536" d="M260 0v1416h478q233 0 360 -95q127 -96 127 -319q0 -273 -252 -402l329 -600h-235l-301 548h-283v-548h-223zM483 748h266q116 0 185 62q68 61 68 186q0 242 -284 242h-235v-490z" />
<glyph unicode="&#xc2;" horiz-adv-x="2110" d="M120 1101q0 64 24 120t66 98t97.5 66t118.5 24t118.5 -24t97.5 -66t66 -98t24 -120q0 -63 -24 -119t-65.5 -97.5t-97.5 -66t-119 -24.5t-118.5 24t-97.5 66t-66 98t-24 119zM256 1101q0 -35 13.5 -65t36.5 -53t54 -36t66 -13q36 0 67 13.5t54 36t36 53t13 64.5 q0 35 -13.5 65.5t-36.5 53.5t-54 36.5t-66 13.5t-66 -13t-54 -36t-36.5 -53.5t-13.5 -66.5zM799 686q0 318 193.5 512.5t497.5 194.5q213 0 383 -80l-20 -171q-10 4 -53.5 18.5t-59 20.5t-54 17t-64 15.5t-62.5 8.5t-70 4q-231 0 -358 -152.5t-127 -387.5t128 -387.5 t360 -152.5q30 0 57.5 2t57.5 8l50 9q20 4 53 16l45 14q15 4 52 17.5t45 15.5l20 -171q-176 -78 -382 -78q-303 0 -497.5 194.5t-194.5 512.5z" />
<glyph unicode="&#xc3;" horiz-adv-x="1794" d="M127 1101q0 64 24 120t66 98t97.5 66t118.5 24t118.5 -24t97.5 -66t66 -98t24 -120q0 -63 -24 -119t-65.5 -97.5t-97.5 -66t-119 -24.5t-118.5 24t-97.5 66t-66 98t-24 119zM263 1101q0 -35 13.5 -65t36.5 -53t54 -36t66 -13q36 0 67 13.5t54 36t36 53t13 64.5 q0 35 -13.5 65.5t-36.5 53.5t-54 36.5t-66 13.5t-66 -13t-54 -36t-36.5 -53.5t-13.5 -66.5zM864 0v1412h795v-175h-595v-448h559v-175h-559v-614h-200z" />
<glyph unicode="&#xc4;" horiz-adv-x="1511" d="M0 2v1432q0 2 2 2h147q2 -1 2 -2v-1432q0 -2 -2 -2h-147q-2 0 -2 2zM378 229v978q0 2 2 2h751q2 0 2 -2v-978q0 -2 -2 -2h-751q-2 0 -2 2zM529 378h453v680h-453v-680zM1360 2v1432q0 2 2 2h147q2 -1 2 -2v-1432q0 -2 -2 -2h-147q-2 0 -2 2z" />
<glyph unicode="&#xc5;" horiz-adv-x="130" d="M0 -195v1846q0 45 35 45h60q35 0 35 -45v-1846q0 -45 -35 -45h-60q-35 0 -35 45z" />
<glyph unicode="&#xc6;" horiz-adv-x="1748" d="M132 1008q0 90 19 163t58 125t98 80.5t139 28.5q79 0 135.5 -29.5t93 -81.5t53.5 -123.5t17 -155.5q0 -98 -21.5 -172.5t-61.5 -124.5t-97 -76t-128 -26q-68 0 -124 24.5t-96 74t-62.5 122.5t-22.5 171zM288 1009q0 -44 5 -90t21 -84t46 -62.5t79 -24.5q48 0 77.5 25 t45 63.5t21 85t5.5 88.5q0 54 -7 101.5t-24 83t-45.5 56.5t-72.5 21q-49 0 -79 -24.5t-46 -63t-21 -85t-5 -90.5zM380 -40l826 1458h149q-104 -185 -207 -366.5t-206 -363.5l-204 -362q-103 -182 -208 -366h-150zM1000 372q0 96 21.5 170t61.5 124.5t96.5 76t125.5 25.5 q31 0 66 -7.5t69 -24.5t65 -46.5t55 -72.5t38 -102.5t14 -137.5q0 -92 -18.5 -165.5t-56.5 -125.5t-95.5 -80t-136.5 -28q-84 0 -142 31.5t-94.5 85t-52.5 125t-16 152.5zM1156 362q0 -48 6 -93.5t22.5 -80t45 -55.5t74.5 -21q48 0 78 23t47 60.5t23 84.5t6 95q0 47 -6.5 94 t-23 84.5t-46.5 61t-76 23.5q-49 0 -78.5 -25.5t-45.5 -66t-21 -89.5t-5 -95z" />
<glyph unicode="&#xc7;" horiz-adv-x="1262" d="M450 677q0 38 14 71t39 58t58 39t70 14t70 -14t58 -39t39 -58t14 -71q0 -37 -14 -70.5t-38.5 -58t-58 -39t-70.5 -14.5t-70 14.5t-58 39t-39 58t-14 70.5z" />
<glyph unicode="&#xc8;" horiz-adv-x="1270" d="M480 656v130h782v-130h-782zM650 4v521h456l1 -521h-457zM651 917v521h455l1 -521h-456zM781 134h195v261h-195v-261zM781 1047h195v261h-195v-261zM170 55v1324q0 55 50 55h875q55 0 55 -45v-74q0 -45 -55 -45h-733v-444h673q55 0 55 -45v-74q0 -45 -55 -45h-673v-498 h763q55 0 55 -45v-74q0 -45 -55 -45h-905q-50 0 -50 55z" />
<glyph unicode="&#xc9;" horiz-adv-x="1270" d="M523 1593l133 155q32 37 81 37h157q77 0 14 -52l-198 -164q-35 -29 -81 -29h-94q-57 0 -12 53zM170 55v1324q0 55 50 55h875q55 0 55 -45v-74q0 -45 -55 -45h-733v-444h673q55 0 55 -45v-74q0 -45 -55 -45h-673v-498h763q55 0 55 -45v-74q0 -45 -55 -45h-905 q-50 0 -50 55z" />
<glyph unicode="&#xca;" horiz-adv-x="1270" d="M307 1580q-15 32 26 51l243 113q39 18 64 18h70q25 0 64 -18l243 -113q41 -19 26 -51l-23 -50q-15 -32 -56 -13l-288 132h-2l-288 -132q-41 -19 -56 13zM170 55v1324q0 55 50 55h875q55 0 55 -45v-74q0 -45 -55 -45h-733v-444h673q55 0 55 -45v-74q0 -45 -55 -45h-673 v-498h763q55 0 55 -45v-74q0 -45 -55 -45h-905q-50 0 -50 55z" />
<glyph unicode="&#xcb;" horiz-adv-x="1270" d="M595 0v956h559l-1 -957zM1313 637v798l558 -1l-1 -797h-557zM1472 797h239v478h-239v-478zM170 55v1324q0 55 50 55h875q55 0 55 -45v-74q0 -45 -55 -45h-733v-444h673q55 0 55 -45v-74q0 -45 -55 -45h-673v-498h763q55 0 55 -45v-74q0 -45 -55 -45h-905q-50 0 -50 55z " />
<glyph unicode="&#xcc;" horiz-adv-x="532" d="M96 656v130h782v-130h-782zM266 4v521h456l1 -521h-457zM267 917v521h455l1 -521h-456zM397 134h195v261h-195v-261zM397 1047h195v261h-195v-261zM195 55v1324q0 55 50 55h92q50 0 50 -55v-1324q0 -55 -50 -55h-92q-50 0 -50 55z" />
<glyph unicode="&#xcd;" horiz-adv-x="532" d="M204 1593l133 155q32 37 81 37h157q77 0 14 -52l-198 -164q-35 -29 -81 -29h-94q-57 0 -12 53zM260 55v1324q0 55 50 55h92q50 0 50 -55v-1324q0 -55 -50 -55h-92q-50 0 -50 55z" />
<glyph unicode="&#xce;" horiz-adv-x="532" d="M-72 1580q-15 32 26 51l243 113q39 18 64 18h70q25 0 64 -18l243 -113q41 -19 26 -51l-23 -50q-15 -32 -56 -13l-288 132h-2l-288 -132q-41 -19 -56 13zM200 55v1324q0 55 50 55h92q50 0 50 -55v-1324q0 -55 -50 -55h-92q-50 0 -50 55z" />
<glyph unicode="&#xcf;" horiz-adv-x="532" d="M170 55v1324q0 55 50 55h92q50 0 50 -55v-1324q0 -55 -50 -55h-92q-50 0 -50 55zM-22 1595v92q0 45 45 45h92q45 0 45 -45v-92q0 -45 -45 -45h-92q-45 0 -45 45zM372 1595v92q0 45 45 45h92q45 0 45 -45v-92q0 -45 -45 -45h-92q-45 0 -45 45z" />
<glyph unicode="&#xd0;" horiz-adv-x="1486" d="M40 699v74q0 45 55 45h125v561q0 55 50 55h369q424 0 589.5 -187.5t165.5 -527.5t-165.5 -529.5t-589.5 -189.5h-369q-50 0 -50 55v599h-125q-55 0 -55 45zM412 164h218q330 0 444.5 140t114.5 415t-114.5 414t-444.5 139h-218v-454h311q55 0 55 -45v-74q0 -45 -55 -45 h-311v-490z" />
<glyph unicode="&#xd1;" horiz-adv-x="1438" d="M350 1620q28 65 85.5 108t146.5 43q75 0 159 -49t128 -49q48 0 81 27t49 52q19 29 38 18l42 -25q23 -13 9 -45q-28 -65 -85.5 -108t-146.5 -43q-75 0 -159 49t-128 49q-48 0 -81 -27t-49 -52q-19 -29 -38 -18l-42 25q-23 13 -9 45zM170 55v1324q0 55 50 55h128 q70 0 100 -50l626 -1049h4q-2 40 -2 80v964q0 55 50 55h92q50 0 50 -55v-1324q0 -55 -50 -55h-88q-70 0 -100 50l-666 1113h-4q2 -40 2 -80v-1028q0 -55 -50 -55h-92q-50 0 -50 55z" />
<glyph unicode="&#xd2;" horiz-adv-x="1524" d="M567 656v130h782v-130h-782zM737 4v521h456l1 -521h-457zM738 917v521h455l1 -521h-456zM868 134h195v261h-195v-261zM868 1047h195v261h-195v-261zM92 717q0 350 172.5 548.5t497.5 198.5t497.5 -198.5t172.5 -548.5t-172.5 -548.5t-497.5 -198.5t-497.5 198.5 t-172.5 548.5zM297 717q0 -280 115 -435.5t350 -155.5t350 155.5t115 435.5t-115 435.5t-350 155.5t-350 -155.5t-115 -435.5z" />
<glyph unicode="&#xd3;" horiz-adv-x="1524" d="M92 717q0 350 172.5 548.5t497.5 198.5t497.5 -198.5t172.5 -548.5t-172.5 -548.5t-497.5 -198.5t-497.5 198.5t-172.5 548.5zM297 717q0 -280 115 -435.5t350 -155.5t350 155.5t115 435.5t-115 435.5t-350 155.5t-350 -155.5t-115 -435.5zM610 1593l133 155q32 37 81 37 h157q77 0 14 -52l-198 -164q-35 -29 -81 -29h-94q-57 0 -12 53z" />
<glyph unicode="&#xd4;" horiz-adv-x="1524" d="M394 1580q-15 32 26 51l243 113q39 18 64 18h70q25 0 64 -18l243 -113q41 -19 26 -51l-23 -50q-15 -32 -56 -13l-288 132h-2l-288 -132q-41 -19 -56 13zM92 717q0 350 172.5 548.5t497.5 198.5t497.5 -198.5t172.5 -548.5t-172.5 -548.5t-497.5 -198.5t-497.5 198.5 t-172.5 548.5zM297 717q0 -280 115 -435.5t350 -155.5t350 155.5t115 435.5t-115 435.5t-350 155.5t-350 -155.5t-115 -435.5z" />
<glyph unicode="&#xd5;" horiz-adv-x="1524" d="M393 1620q28 65 85.5 108t146.5 43q75 0 159 -49t128 -49q48 0 81 27t49 52q19 29 38 18l42 -25q23 -13 9 -45q-28 -65 -85.5 -108t-146.5 -43q-75 0 -159 49t-128 49q-48 0 -81 -27t-49 -52q-19 -29 -38 -18l-42 25q-23 13 -9 45zM92 717q0 350 172.5 548.5t497.5 198.5 t497.5 -198.5t172.5 -548.5t-172.5 -548.5t-497.5 -198.5t-497.5 198.5t-172.5 548.5zM297 717q0 -280 115 -435.5t350 -155.5t350 155.5t115 435.5t-115 435.5t-350 155.5t-350 -155.5t-115 -435.5z" />
<glyph unicode="&#xd6;" horiz-adv-x="1524" d="M92 717q0 350 172.5 548.5t497.5 198.5t497.5 -198.5t172.5 -548.5t-172.5 -548.5t-497.5 -198.5t-497.5 198.5t-172.5 548.5zM297 717q0 -280 115 -435.5t350 -155.5t350 155.5t115 435.5t-115 435.5t-350 155.5t-350 -155.5t-115 -435.5zM682 0v956h559l-1 -957z M1400 637v798l558 -1l-1 -797h-557zM1559 797h239v478h-239v-478z" />
<glyph unicode="&#xd7;" horiz-adv-x="2200" d="M685 367q-25 25 7 56l321 321l-321 322q-32 32 -7 56l36 35q25 25 56 -7l321 -321l323 323q32 32 56 7l36 -35q25 -25 -8 -57l-322 -323l322 -322q32 -32 8 -57l-36 -35q-25 -25 -56 7l-323 323l-321 -321q-32 -32 -56 -7z" />
<glyph unicode="&#xd8;" horiz-adv-x="1524" d="M150 9q-33 30 3 71l133 147q-128 189 -128 490q0 350 172.5 548.5t497.5 198.5q276 0 442 -143l121 134q37 41 70 10l45 -40q33 -30 -3 -71l-133 -147q128 -189 128 -490q0 -350 -172.5 -548.5t-497.5 -198.5q-276 0 -442 143l-121 -134q-37 -41 -70 -10zM363 717 q0 -201 59 -338l727 808q-114 121 -321 121q-235 0 -350 -155.5t-115 -435.5zM507 247q114 -121 321 -121q235 0 350 155.5t115 435.5q0 201 -59 338z" />
<glyph unicode="&#xd9;" horiz-adv-x="1402" d="M506 656v130h782v-130h-782zM676 4v521h456l1 -521h-457zM677 917v521h455l1 -521h-456zM807 134h195v261h-195v-261zM807 1047h195v261h-195v-261zM170 547v832q0 55 50 55h92q50 0 50 -55v-802q0 -280 79.5 -365.5t259.5 -85.5t259.5 85.5t79.5 365.5v802q0 55 50 55 h92q50 0 50 -55v-832q0 -317 -145.5 -447t-385.5 -130t-385.5 130t-145.5 447z" />
<glyph unicode="&#xda;" horiz-adv-x="1402" d="M549 1593l133 155q32 37 81 37h157q77 0 14 -52l-198 -164q-35 -29 -81 -29h-94q-57 0 -12 53zM170 547v832q0 55 50 55h92q50 0 50 -55v-802q0 -280 79.5 -365.5t259.5 -85.5t259.5 85.5t79.5 365.5v802q0 55 50 55h92q50 0 50 -55v-832q0 -317 -145.5 -447t-385.5 -130 t-385.5 130t-145.5 447z" />
<glyph unicode="&#xdb;" horiz-adv-x="1402" d="M333 1580q-15 32 26 51l243 113q39 18 64 18h70q25 0 64 -18l243 -113q41 -19 26 -51l-23 -50q-15 -32 -56 -13l-288 132h-2l-288 -132q-41 -19 -56 13zM170 547v832q0 55 50 55h92q50 0 50 -55v-802q0 -280 79.5 -365.5t259.5 -85.5t259.5 85.5t79.5 365.5v802 q0 55 50 55h92q50 0 50 -55v-832q0 -317 -145.5 -447t-385.5 -130t-385.5 130t-145.5 447z" />
<glyph unicode="&#xdc;" horiz-adv-x="1402" d="M621 0v956h559l-1 -957zM1339 637v798l558 -1l-1 -797h-557zM1498 797h239v478h-239v-478zM170 547v832q0 55 50 55h92q50 0 50 -55v-802q0 -280 79.5 -365.5t259.5 -85.5t259.5 85.5t79.5 365.5v802q0 55 50 55h92q50 0 50 -55v-832q0 -317 -145.5 -447t-385.5 -130 t-385.5 130t-145.5 447z" />
<glyph unicode="&#xdd;" horiz-adv-x="1302" d="M541 1593l133 155q32 37 81 37h157q77 0 14 -52l-198 -164q-35 -29 -81 -29h-94q-57 0 -12 53zM81 1409q0 25 43 25h112q44 0 72 -49l254 -437q42 -72 72 -125.5t58 -113.5h4q28 60 58 113.5t72 125.5l254 437q28 49 72 49h112q43 0 43 -25q0 -16 -16 -41l-501 -778v-535 q0 -55 -50 -55h-92q-50 0 -50 55v535l-501 778q-16 25 -16 41z" />
<glyph unicode="&#xdf;" horiz-adv-x="1216" d="M142 45v1094q0 202 130 278t314 76q197 0 303.5 -94t106.5 -219q0 -124 -59 -209t-196 -170v-3q174 -25 274.5 -143t100.5 -279q0 -178 -93 -285.5t-283 -107.5q-96 0 -156 13.5t-112 51.5q-33 24 -12 54l41 58q21 29 65 -2q20 -14 66 -29.5t99 -15.5q91 0 145 69.5 t54 199.5q0 155 -89 223t-254 68q-12 0 -20 25l-35 108q-6 19 14 33l80 55q80 55 137 117.5t57 161.5q0 91 -56 140.5t-168 49.5q-113 0 -195.5 -54.5t-82.5 -198.5v-1065q0 -45 -45 -45h-86q-45 0 -45 45z" />
<glyph unicode="&#xe0;" horiz-adv-x="1067" d="M333 1383q-45 52 14 52h111q55 0 81 -37l139 -195q38 -53 -12 -53h-74q-56 0 -81 29zM85 280q0 178 166.5 261t497.5 97v68q0 94 -42.5 162.5t-168.5 68.5q-97 0 -164.5 -28t-126.5 -94q-27 -30 -51 -3l-52 60q-8 9 -8 20q0 18 23 40q82 78 192 106.5t187 28.5 q209 0 298 -107.5t89 -294.5v-620q0 -45 -45 -45h-90q-39 0 -39 45v49h-2q-79 -62 -154.5 -86.5t-168.5 -24.5q-164 0 -252.5 78.5t-88.5 218.5zM267 286q0 -98 46.5 -133t147.5 -35q77 0 146 15t142 79v295q-341 -26 -411.5 -89.5t-70.5 -131.5z" />
<glyph unicode="&#xe1;" horiz-adv-x="1067" d="M327 1250q27 67 118.5 140.5t266.5 73.5q215 0 316 -102.5t101 -273.5q0 -143 -166.5 -327.5t-166.5 -322.5v-23q0 -45 -45 -45h-86q-45 0 -45 45v37q0 169 156.5 347.5t156.5 294.5q0 122 -57 171t-157 49q-110 0 -165.5 -40t-84.5 -109q-23 -54 -65 -35l-74 34 q-31 14 -3 86zM606 45v122q0 45 45 45h112q45 0 45 -45v-122q0 -45 -45 -45h-112q-45 0 -45 45zM85 280q0 178 166.5 261t497.5 97v68q0 94 -42.5 162.5t-168.5 68.5q-97 0 -164.5 -28t-126.5 -94q-27 -30 -51 -3l-52 60q-8 9 -8 20q0 18 23 40q82 78 192 106.5t187 28.5 q209 0 298 -107.5t89 -294.5v-620q0 -45 -45 -45h-90q-39 0 -39 45v49h-2q-79 -62 -154.5 -86.5t-168.5 -24.5q-164 0 -252.5 78.5t-88.5 218.5zM267 286q0 -98 46.5 -133t147.5 -35q77 0 146 15t142 79v295q-341 -26 -411.5 -89.5t-70.5 -131.5z" />
<glyph unicode="&#xe2;" horiz-adv-x="1067" d="M239 1182q-23 26 12 55l206 171q31 26 56 26h50q25 0 56 -26l206 -171q35 -29 12 -55l-27 -31q-23 -26 -57 2l-214 179h-2l-214 -179q-34 -28 -57 -2zM85 280q0 178 166.5 261t497.5 97v68q0 94 -42.5 162.5t-168.5 68.5q-97 0 -164.5 -28t-126.5 -94q-27 -30 -51 -3 l-52 60q-8 9 -8 20q0 18 23 40q82 78 192 106.5t187 28.5q209 0 298 -107.5t89 -294.5v-620q0 -45 -45 -45h-90q-39 0 -39 45v49h-2q-79 -62 -154.5 -86.5t-168.5 -24.5q-164 0 -252.5 78.5t-88.5 218.5zM267 286q0 -98 46.5 -133t147.5 -35q77 0 146 15t142 79v295 q-341 -26 -411.5 -89.5t-70.5 -131.5z" />
<glyph unicode="&#xe3;" horiz-adv-x="1067" d="M219 1219q21 71 71.5 116t130.5 45q68 0 138 -55t109 -55q43 0 64 22t37 60q13 30 37 20l39 -17q22 -10 12 -44q-21 -71 -71.5 -116t-130.5 -45q-68 0 -138 55t-109 55q-43 0 -64 -22t-37 -60q-13 -30 -37 -20l-39 17q-22 10 -12 44zM85 280q0 178 166.5 261t497.5 97v68 q0 94 -42.5 162.5t-168.5 68.5q-97 0 -164.5 -28t-126.5 -94q-27 -30 -51 -3l-52 60q-8 9 -8 20q0 18 23 40q82 78 192 106.5t187 28.5q209 0 298 -107.5t89 -294.5v-620q0 -45 -45 -45h-90q-39 0 -39 45v49h-2q-79 -62 -154.5 -86.5t-168.5 -24.5q-164 0 -252.5 78.5 t-88.5 218.5zM267 286q0 -98 46.5 -133t147.5 -35q77 0 146 15t142 79v295q-341 -26 -411.5 -89.5t-70.5 -131.5z" />
<glyph unicode="&#xe4;" horiz-adv-x="1067" d="M85 280q0 178 166.5 261t497.5 97v68q0 94 -42.5 162.5t-168.5 68.5q-97 0 -164.5 -28t-126.5 -94q-27 -30 -51 -3l-52 60q-8 9 -8 20q0 18 23 40q82 78 192 106.5t187 28.5q209 0 298 -107.5t89 -294.5v-620q0 -45 -45 -45h-90q-39 0 -39 45v49h-2q-79 -62 -154.5 -86.5 t-168.5 -24.5q-164 0 -252.5 78.5t-88.5 218.5zM267 286q0 -98 46.5 -133t147.5 -35q77 0 146 15t142 79v295q-341 -26 -411.5 -89.5t-70.5 -131.5zM721 0v1434h1331v-1434h-1331zM885 266l102 -102l399 444l400 -444l102 102l-405 451l405 450l-102 103l-400 -445l-399 445 l-102 -103l403 -450z" />
<glyph unicode="&#xe5;" horiz-adv-x="1067" d="M358 1313q0 75 52.5 127.5t127.5 52.5t127.5 -52.5t52.5 -127.5t-52.5 -127.5t-127.5 -52.5t-127.5 52.5t-52.5 127.5zM434 1313q0 -44 30 -74t74 -30t74 30t30 74t-30 74t-74 30t-74 -30t-30 -74zM85 280q0 178 166.5 261t497.5 97v68q0 94 -42.5 162.5t-168.5 68.5 q-97 0 -164.5 -28t-126.5 -94q-27 -30 -51 -3l-52 60q-8 9 -8 20q0 18 23 40q82 78 192 106.5t187 28.5q209 0 298 -107.5t89 -294.5v-620q0 -45 -45 -45h-90q-39 0 -39 45v49h-2q-79 -62 -154.5 -86.5t-168.5 -24.5q-164 0 -252.5 78.5t-88.5 218.5zM267 286 q0 -98 46.5 -133t147.5 -35q77 0 146 15t142 79v295q-341 -26 -411.5 -89.5t-70.5 -131.5z" />
<glyph unicode="&#xe6;" horiz-adv-x="1729" d="M85 280q0 178 164 261t490 97v68q0 94 -42.5 162.5t-163.5 68.5q-92 0 -159.5 -28t-126.5 -94q-27 -30 -51 -3l-52 60q-22 25 15 60q82 78 192 106.5t182 28.5q101 0 185.5 -30t135.5 -124h3q79 95 167.5 124.5t178.5 29.5q186 0 311.5 -134.5t125.5 -429.5 q0 -45 -41 -45h-680q16 -193 100.5 -268.5t191.5 -75.5q112 0 172.5 39t88.5 77q32 42 62 16l59 -51q23 -20 0 -55q-19 -29 -107.5 -93t-274.5 -64q-126 0 -216 38t-162 135h-2q-113 -96 -211 -134.5t-199 -38.5q-159 0 -247.5 78.5t-88.5 218.5zM267 286q0 -98 46.5 -133 t142.5 -35t163 24t140 91q-20 132 -20 274q-341 -26 -406.5 -89.5t-65.5 -131.5zM915 588h548q-4 140 -70 245.5t-194 105.5q-112 0 -190.5 -77.5t-93.5 -273.5z" />
<glyph unicode="&#xe7;" horiz-adv-x="1026" d="M85 525q0 235 116.5 388.5t356.5 153.5q162 0 247.5 -57.5t123.5 -117.5q21 -33 -9 -53l-63 -41q-9 -6 -18 -6l-42 33q-29 46 -81.5 79t-157.5 33q-137 0 -212 -101t-75 -311t75 -311t212 -101q111 0 170 42.5t86 92.5q18 33 40 33q9 0 19 -6l67 -40q18 -11 18 -27 q0 -12 -9 -27q-25 -43 -113.5 -120.5t-277.5 -77.5q-240 0 -356.5 153.5t-116.5 388.5zM442 1187v119h1557v-119h-1557zM2000 1079l290 168l-290 167v-93h1v-138h-1v-104z" />
<glyph unicode="&#xe8;" horiz-adv-x="1098" d="M359 1383q-45 52 14 52h111q55 0 81 -37l139 -195q38 -53 -12 -53h-74q-56 0 -81 29zM85 525q0 248 124 395t355 147q192 0 318.5 -134.5t126.5 -429.5q0 -45 -41 -45h-697q17 -193 104 -268.5t197 -75.5q116 0 178 39t91 77q20 26 39 26q12 0 23 -10l59 -51 q23 -20 0 -55q-19 -29 -108.5 -93t-281.5 -64q-250 0 -368.5 147t-118.5 395zM267 588h565q-4 140 -72 245.5t-200 105.5q-116 0 -197 -77.5t-96 -273.5z" />
<glyph unicode="&#xe9;" horiz-adv-x="1098" d="M353 1250q27 67 118.5 140.5t266.5 73.5q215 0 316 -102.5t101 -273.5q0 -143 -166.5 -327.5t-166.5 -322.5v-23q0 -45 -45 -45h-86q-45 0 -45 45v37q0 169 156.5 347.5t156.5 294.5q0 122 -57 171t-157 49q-110 0 -165.5 -40t-84.5 -109q-23 -54 -65 -35l-74 34 q-31 14 -3 86zM632 45v122q0 45 45 45h112q45 0 45 -45v-122q0 -45 -45 -45h-112q-45 0 -45 45zM85 525q0 248 124 395t355 147q192 0 318.5 -134.5t126.5 -429.5q0 -45 -41 -45h-697q17 -193 104 -268.5t197 -75.5q116 0 178 39t91 77q20 26 39 26q12 0 23 -10l59 -51 q23 -20 0 -55q-19 -29 -108.5 -93t-281.5 -64q-250 0 -368.5 147t-118.5 395zM267 588h565q-4 140 -72 245.5t-200 105.5q-116 0 -197 -77.5t-96 -273.5z" />
<glyph unicode="&#xea;" horiz-adv-x="1098" d="M265 1182q-23 26 12 55l206 171q31 26 56 26h50q25 0 56 -26l206 -171q35 -29 12 -55l-27 -31q-23 -26 -57 2l-214 179h-2l-214 -179q-34 -28 -57 -2zM85 525q0 248 124 395t355 147q192 0 318.5 -134.5t126.5 -429.5q0 -45 -41 -45h-697q17 -193 104 -268.5t197 -75.5 q116 0 178 39t91 77q20 26 39 26q12 0 23 -10l59 -51q23 -20 0 -55q-19 -29 -108.5 -93t-281.5 -64q-250 0 -368.5 147t-118.5 395zM267 588h565q-4 140 -72 245.5t-200 105.5q-116 0 -197 -77.5t-96 -273.5z" />
<glyph unicode="&#xeb;" horiz-adv-x="1098" d="M765 0v1434h1331v-1434h-1331zM929 266l102 -102l399 444l400 -444l102 102l-405 451l405 450l-102 103l-400 -445l-399 445l-102 -103l403 -450zM85 525q0 248 124 395t355 147q192 0 318.5 -134.5t126.5 -429.5q0 -45 -41 -45h-697q17 -193 104 -268.5t197 -75.5 q116 0 178 39t91 77q20 26 39 26q12 0 23 -10l59 -51q23 -20 0 -55q-19 -29 -108.5 -93t-281.5 -64q-250 0 -368.5 147t-118.5 395zM267 588h565q-4 140 -72 245.5t-200 105.5q-116 0 -197 -77.5t-96 -273.5z" />
<glyph unicode="&#xec;" horiz-adv-x="460" d="M115 1383q-45 52 14 52h111q55 0 81 -37l139 -195q38 -53 -12 -53h-74q-56 0 -81 29zM232 45v960q0 45 45 45h86q45 0 45 -45v-960q0 -45 -45 -45h-86q-45 0 -45 45z" />
<glyph unicode="&#xed;" horiz-adv-x="460" d="M146 1250q27 67 118.5 140.5t266.5 73.5q215 0 316 -102.5t101 -273.5q0 -143 -166.5 -327.5t-166.5 -322.5v-23q0 -45 -45 -45h-86q-45 0 -45 45v37q0 169 156.5 347.5t156.5 294.5q0 122 -57 171t-157 49q-110 0 -165.5 -40t-84.5 -109q-23 -54 -65 -35l-74 34 q-31 14 -3 86zM425 45v122q0 45 45 45h112q45 0 45 -45v-122q0 -45 -45 -45h-112q-45 0 -45 45zM269 45v960q0 45 45 45h86q45 0 45 -45v-960q0 -45 -45 -45h-86q-45 0 -45 45z" />
<glyph unicode="&#xee;" horiz-adv-x="460" d="M-23 1182q-23 26 12 55l206 171q31 26 56 26h50q25 0 56 -26l206 -171q35 -29 12 -55l-27 -31q-23 -26 -57 2l-214 179h-2l-214 -179q-34 -28 -57 -2zM188 45v960q0 45 45 45h86q45 0 45 -45v-960q0 -45 -45 -45h-86q-45 0 -45 45z" />
<glyph unicode="&#xef;" horiz-adv-x="460" d="M142 45v960q0 45 45 45h86q45 0 45 -45v-960q0 -45 -45 -45h-86q-45 0 -45 45zM-25 1285v86q0 45 45 45h86q45 0 45 -45v-86q0 -45 -45 -45h-86q-45 0 -45 45zM309 1285v86q0 45 45 45h86q45 0 45 -45v-86q0 -45 -45 -45h-86q-45 0 -45 45z" />
<glyph unicode="&#xf0;" horiz-adv-x="1153" d="M85 517q0 221 119.5 377t326.5 156q106 0 184 -32t124 -80h9q-38 102 -115.5 189t-117.5 121l-183 -93q-43 -22 -56 11l-18 46q-13 33 24 52l130 66q-33 20 -87 44q-44 21 -24 52l30 48q18 29 68 10q97 -36 155 -81l135 69q43 22 56 -11l18 -46q13 -33 -24 -52l-83 -43 q104 -88 206 -290t102 -444q0 -256 -118 -429.5t-372 -173.5q-240 0 -364.5 157t-124.5 377zM271 517q0 -205 83 -304.5t220 -99.5t220 102.5t83 301.5q0 180 -83 291.5t-220 111.5t-220 -101.5t-83 -301.5z" />
<glyph unicode="&#xf1;" horiz-adv-x="1128" d="M246 1219q21 71 71.5 116t130.5 45q68 0 138 -55t109 -55q43 0 64 22t37 60q13 30 37 20l39 -17q22 -10 12 -44q-21 -71 -71.5 -116t-130.5 -45q-68 0 -138 55t-109 55q-43 0 -64 -22t-37 -60q-13 -30 -37 -20l-39 17q-22 10 -12 44zM142 45v960q0 45 45 45h84 q45 0 45 -45v-80h4q65 72 140 107t187 35q182 0 261.5 -102.5t79.5 -280.5v-639q0 -45 -45 -45h-86q-45 0 -45 45v591q0 196 -65 248.5t-165 52.5q-130 0 -197 -77.5t-67 -265.5v-549q0 -45 -45 -45h-86q-45 0 -45 45z" />
<glyph unicode="&#xf2;" horiz-adv-x="1148" d="M369 1383q-45 52 14 52h111q55 0 81 -37l139 -195q38 -53 -12 -53h-74q-56 0 -81 29zM85 525q0 235 124.5 388.5t364.5 153.5t364.5 -153.5t124.5 -388.5t-124.5 -388.5t-364.5 -153.5t-364.5 153.5t-124.5 388.5zM271 525q0 -210 83 -311t220 -101t220 101t83 311 t-83 311t-220 101t-220 -101t-83 -311z" />
<glyph unicode="&#xf3;" horiz-adv-x="1148" d="M85 525q0 235 124.5 388.5t364.5 153.5t364.5 -153.5t124.5 -388.5t-124.5 -388.5t-364.5 -153.5t-364.5 153.5t-124.5 388.5zM271 525q0 -210 83 -311t220 -101t220 101t83 311t-83 311t-220 101t-220 -101t-83 -311zM363 1250q27 67 118.5 140.5t266.5 73.5 q215 0 316 -102.5t101 -273.5q0 -143 -166.5 -327.5t-166.5 -322.5v-23q0 -45 -45 -45h-86q-45 0 -45 45v37q0 169 156.5 347.5t156.5 294.5q0 122 -57 171t-157 49q-110 0 -165.5 -40t-84.5 -109q-23 -54 -65 -35l-74 34q-31 14 -3 86zM642 45v122q0 45 45 45h112 q45 0 45 -45v-122q0 -45 -45 -45h-112q-45 0 -45 45z" />
<glyph unicode="&#xf4;" horiz-adv-x="1148" d="M275 1182q-23 26 12 55l206 171q31 26 56 26h50q25 0 56 -26l206 -171q35 -29 12 -55l-27 -31q-23 -26 -57 2l-214 179h-2l-214 -179q-34 -28 -57 -2zM85 525q0 235 124.5 388.5t364.5 153.5t364.5 -153.5t124.5 -388.5t-124.5 -388.5t-364.5 -153.5t-364.5 153.5 t-124.5 388.5zM271 525q0 -210 83 -311t220 -101t220 101t83 311t-83 311t-220 101t-220 -101t-83 -311z" />
<glyph unicode="&#xf5;" horiz-adv-x="1148" d="M255 1219q21 71 71.5 116t130.5 45q68 0 138 -55t109 -55q43 0 64 22t37 60q13 30 37 20l39 -17q22 -10 12 -44q-21 -71 -71.5 -116t-130.5 -45q-68 0 -138 55t-109 55q-43 0 -64 -22t-37 -60q-13 -30 -37 -20l-39 17q-22 10 -12 44zM85 525q0 235 124.5 388.5 t364.5 153.5t364.5 -153.5t124.5 -388.5t-124.5 -388.5t-364.5 -153.5t-364.5 153.5t-124.5 388.5zM271 525q0 -210 83 -311t220 -101t220 101t83 311t-83 311t-220 101t-220 -101t-83 -311z" />
<glyph unicode="&#xf6;" horiz-adv-x="1148" d="M85 525q0 235 124.5 388.5t364.5 153.5t364.5 -153.5t124.5 -388.5t-124.5 -388.5t-364.5 -153.5t-364.5 153.5t-124.5 388.5zM271 525q0 -210 83 -311t220 -101t220 101t83 311t-83 311t-220 101t-220 -101t-83 -311zM790 0v1434h1331v-1434h-1331zM954 266l102 -102 l399 444l400 -444l102 102l-405 451l405 450l-102 103l-400 -445l-399 445l-102 -103l403 -450z" />
<glyph unicode="&#xf7;" horiz-adv-x="2001" d="M440 280v122q0 45 45 45h112q45 0 45 -45v-122q0 -45 -45 -45h-112q-45 0 -45 45zM440 1068v122q0 45 45 45h112q45 0 45 -45v-122q0 -45 -45 -45h-112q-45 0 -45 45zM722 638v70q0 35 50 35h750q50 0 50 -35v-70q0 -35 -50 -35h-750q-50 0 -50 35z" />
<glyph unicode="&#xf8;" horiz-adv-x="1148" d="M129 36q-26 24 5 57l90 96q-87 140 -87 336q0 235 124.5 388.5t364.5 153.5q199 0 318 -105l78 83q31 33 57 9l44 -40q26 -24 -5 -57l-90 -96q87 -139 87 -336q0 -235 -124.5 -388.5t-364.5 -153.5q-199 0 -318 105l-78 -83q-31 -33 -57 -9zM323 525q0 -118 26 -201 l488 523q-81 90 -211 90q-137 0 -220 -101t-83 -311zM415 203q81 -90 211 -90q137 0 220 101t83 311q0 117 -26 201z" />
<glyph unicode="&#xf9;" horiz-adv-x="1120" d="M354 1383q-45 52 14 52h111q55 0 81 -37l139 -195q38 -53 -12 -53h-74q-56 0 -81 29zM140 366v639q0 45 45 45h86q45 0 45 -45v-591q0 -196 65 -248.5t161 -52.5q126 0 193 77.5t67 265.5v549q0 45 45 45h86q45 0 45 -45v-960q0 -45 -45 -45h-84q-45 0 -45 45v80h-4 q-65 -72 -140 -107t-183 -35q-175 0 -256 102.5t-81 280.5z" />
<glyph unicode="&#xfa;" horiz-adv-x="1120" d="M348 1250q27 67 118.5 140.5t266.5 73.5q215 0 316 -102.5t101 -273.5q0 -143 -166.5 -327.5t-166.5 -322.5v-23q0 -45 -45 -45h-86q-45 0 -45 45v37q0 169 156.5 347.5t156.5 294.5q0 122 -57 171t-157 49q-110 0 -165.5 -40t-84.5 -109q-23 -54 -65 -35l-74 34 q-31 14 -3 86zM627 45v122q0 45 45 45h112q45 0 45 -45v-122q0 -45 -45 -45h-112q-45 0 -45 45zM140 366v639q0 45 45 45h86q45 0 45 -45v-591q0 -196 65 -248.5t161 -52.5q126 0 193 77.5t67 265.5v549q0 45 45 45h86q45 0 45 -45v-960q0 -45 -45 -45h-84q-45 0 -45 45v80 h-4q-65 -72 -140 -107t-183 -35q-175 0 -256 102.5t-81 280.5z" />
<glyph unicode="&#xfb;" horiz-adv-x="1120" d="M260 1182q-23 26 12 55l206 171q31 26 56 26h50q25 0 56 -26l206 -171q35 -29 12 -55l-27 -31q-23 -26 -57 2l-214 179h-2l-214 -179q-34 -28 -57 -2zM140 366v639q0 45 45 45h86q45 0 45 -45v-591q0 -196 65 -248.5t161 -52.5q126 0 193 77.5t67 265.5v549q0 45 45 45 h86q45 0 45 -45v-960q0 -45 -45 -45h-84q-45 0 -45 45v80h-4q-65 -72 -140 -107t-183 -35q-175 0 -256 102.5t-81 280.5z" />
<glyph unicode="&#xfc;" horiz-adv-x="1120" d="M775 0v1434h1331v-1434h-1331zM939 266l102 -102l399 444l400 -444l102 102l-405 451l405 450l-102 103l-400 -445l-399 445l-102 -103l403 -450zM140 366v639q0 45 45 45h86q45 0 45 -45v-591q0 -196 65 -248.5t161 -52.5q126 0 193 77.5t67 265.5v549q0 45 45 45h86 q45 0 45 -45v-960q0 -45 -45 -45h-84q-45 0 -45 45v80h-4q-65 -72 -140 -107t-183 -35q-175 0 -256 102.5t-81 280.5z" />
<glyph unicode="&#xfd;" horiz-adv-x="990" d="M305 1250q27 67 118.5 140.5t266.5 73.5q215 0 316 -102.5t101 -273.5q0 -143 -166.5 -327.5t-166.5 -322.5v-23q0 -45 -45 -45h-86q-45 0 -45 45v37q0 169 156.5 347.5t156.5 294.5q0 122 -57 171t-157 49q-110 0 -165.5 -40t-84.5 -109q-23 -54 -65 -35l-74 34 q-31 14 -3 86zM584 45v122q0 45 45 45h112q45 0 45 -45v-122q0 -45 -45 -45h-112q-45 0 -45 45zM64 1025q0 25 32 25h109q33 0 45 -39l210 -660q9 -27 27.5 -84.5t26.5 -102.5h2q8 45 19.5 81.5t34.5 105.5l212 660q13 39 45 39h109q32 0 32 -25q0 -10 -5 -24l-337 -940 q-95 -265 -170 -371.5t-224 -106.5q-78 0 -124 23q-21 10 -14 31l26 81q7 21 27 12q41 -17 79 -17q70 0 114 75.5t70 151.5l20 59l-361 1002q-5 14 -5 24z" />
<glyph unicode="&#xfe;" horiz-adv-x="1119" d="M142 -355v1786q0 45 45 45h86q45 0 45 -45v-445q0 -31 -2 -61h2q55 66 124 104t184 38q200 0 304 -163.5t104 -378.5t-104 -378.5t-304 -163.5q-115 0 -184 38t-124 104h-2q2 -30 2 -61v-419q0 -45 -45 -45h-86q-45 0 -45 45zM318 410q0 -150 71.5 -223.5t179.5 -73.5 q152 0 215.5 114t63.5 298t-63.5 298t-215.5 114q-108 0 -179.5 -73.5t-71.5 -223.5v-230z" />
<glyph unicode="&#xff;" horiz-adv-x="990" d="M732 0v1434h1331v-1434h-1331zM896 266l102 -102l399 444l400 -444l102 102l-405 451l405 450l-102 103l-400 -445l-399 445l-102 -103l403 -450zM64 1025q0 25 32 25h109q33 0 45 -39l210 -660q9 -27 27.5 -84.5t26.5 -102.5h2q8 45 19.5 81.5t34.5 105.5l212 660 q13 39 45 39h109q32 0 32 -25q0 -10 -5 -24l-337 -940q-95 -265 -170 -371.5t-224 -106.5q-78 0 -124 23q-21 10 -14 31l26 81q7 21 27 12q41 -17 79 -17q70 0 114 75.5t70 151.5l20 59l-361 1002q-5 14 -5 24z" />
<glyph unicode="&#x131;" horiz-adv-x="460" d="M142 45v960q0 45 45 45h86q45 0 45 -45v-960q0 -45 -45 -45h-86q-45 0 -45 45z" />
<glyph unicode="&#x152;" horiz-adv-x="2013" d="M92 719q0 350 167.5 547.5t460.5 197.5q85 0 171.5 -15t171.5 -15h775q55 0 55 -45v-74q0 -45 -55 -45h-693v-444h633q55 0 55 -45v-74q0 -45 -55 -45h-633v-498h723q55 0 55 -45v-74q0 -45 -55 -45h-805q-85 0 -171.5 -15t-171.5 -15q-293 0 -460.5 199.5t-167.5 549.5z M297 717q0 -280 105.5 -435.5t317.5 -155.5q120 0 233 38v1106q-113 38 -233 38q-212 0 -317.5 -155.5t-105.5 -435.5z" />
<glyph unicode="&#x153;" horiz-adv-x="1890" d="M85 525q0 235 124.5 388.5t364.5 153.5q146 0 243.5 -54t149.5 -139h1q50 84 145 138.5t243 54.5q192 0 318.5 -134.5t126.5 -429.5q0 -45 -41 -45h-697q17 -193 104 -268.5t197 -75.5q116 0 178 39t91 77q32 42 62 16l59 -51q23 -20 0 -55q-19 -29 -108.5 -93 t-281.5 -64q-148 0 -248 50.5t-150 139.5h-2q-52 -85 -148 -137.5t-242 -52.5q-240 0 -364.5 153.5t-124.5 388.5zM271 525q0 -210 83 -311t220 -101t220 101t83 311t-83 311t-220 101t-220 -101t-83 -311zM1059 588h565q-4 140 -72 245.5t-200 105.5q-116 0 -197 -77.5 t-96 -273.5z" />
<glyph unicode="&#x178;" horiz-adv-x="1302" d="M613 0v956h559l-1 -957zM1331 637v798l558 -1l-1 -797h-557zM1490 797h239v478h-239v-478zM81 1409q0 25 43 25h112q44 0 72 -49l254 -437q42 -72 72 -125.5t58 -113.5h4q28 60 58 113.5t72 125.5l254 437q28 49 72 49h112q43 0 43 -25q0 -16 -16 -41l-501 -778v-535 q0 -55 -50 -55h-92q-50 0 -50 55v535l-501 778q-16 25 -16 41z" />
<glyph unicode="&#x237;" horiz-adv-x="466" d="M-94 -365l17 81q5 24 25 15q39 -18 96 -18q59 0 85.5 58t26.5 235v999q0 45 45 45h86q45 0 45 -45v-1098q0 -194 -73.5 -259t-182.5 -65q-106 0 -152 20q-22 10 -18 32z" />
<glyph unicode="&#x2c6;" horiz-adv-x="614" d="M54 1182q-23 26 12 55l206 171q31 26 56 26h50q25 0 56 -26l206 -171q35 -29 12 -55l-27 -31q-23 -26 -57 2l-214 179h-2l-214 -179q-34 -28 -57 -2z" />
<glyph unicode="&#x2d9;" horiz-adv-x="614" d="M219 1285v86q0 45 45 45h86q45 0 45 -45v-86q0 -45 -45 -45h-86q-45 0 -45 45z" />
<glyph unicode="&#x2da;" horiz-adv-x="614" d="M127 1313q0 75 52.5 127.5t127.5 52.5t127.5 -52.5t52.5 -127.5t-52.5 -127.5t-127.5 -52.5t-127.5 52.5t-52.5 127.5zM203 1313q0 -44 30 -74t74 -30t74 30t30 74t-30 74t-74 30t-74 -30t-30 -74z" />
<glyph unicode="&#x2dc;" horiz-adv-x="614" d="M8 1219q21 71 71.5 116t130.5 45q68 0 138 -55t109 -55q43 0 64 22t37 60q13 30 37 20l39 -17q22 -10 12 -44q-21 -71 -71.5 -116t-130.5 -45q-68 0 -138 55t-109 55q-43 0 -64 -22t-37 -60q-13 -30 -37 -20l-39 17q-22 10 -12 44z" />
<glyph unicode="&#x300;" horiz-adv-x="0" d="M-345 1383q-45 52 14 52h111q55 0 81 -37l139 -195q38 -53 -12 -53h-74q-56 0 -81 29z" />
<glyph unicode="&#x301;" horiz-adv-x="0" d="M-379 1250q27 67 118.5 140.5t266.5 73.5q215 0 316 -102.5t101 -273.5q0 -143 -166.5 -327.5t-166.5 -322.5v-23q0 -45 -45 -45h-86q-45 0 -45 45v37q0 169 156.5 347.5t156.5 294.5q0 122 -57 171t-157 49q-110 0 -165.5 -40t-84.5 -109q-23 -54 -65 -35l-74 34 q-31 14 -3 86zM-100 45v122q0 45 45 45h112q45 0 45 -45v-122q0 -45 -45 -45h-112q-45 0 -45 45z" />
<glyph unicode="&#x302;" horiz-adv-x="0" d="M-560 1182q-23 26 12 55l206 171q31 26 56 26h50q25 0 56 -26l206 -171q35 -29 12 -55l-27 -31q-23 -26 -57 2l-214 179h-2l-214 -179q-34 -28 -57 -2z" />
<glyph unicode="&#x303;" horiz-adv-x="0" d="M-606 1219q21 71 71.5 116t130.5 45q68 0 138 -55t109 -55q43 0 64 22t37 60q13 30 37 20l39 -17q22 -10 12 -44q-21 -71 -71.5 -116t-130.5 -45q-68 0 -138 55t-109 55q-43 0 -64 -22t-37 -60q-13 -30 -37 -20l-39 17q-22 10 -12 44z" />
<glyph unicode="&#x308;" horiz-adv-x="0" d="M-598 0v1434h1331v-1434h-1331zM-434 266l102 -102l399 444l400 -444l102 102l-405 451l405 450l-102 103l-400 -445l-399 445l-102 -103l403 -450z" />
<glyph unicode="&#x30a;" horiz-adv-x="0" d="M-487 1313q0 75 52.5 127.5t127.5 52.5t127.5 -52.5t52.5 -127.5t-52.5 -127.5t-127.5 -52.5t-127.5 52.5t-52.5 127.5zM-411 1313q0 -44 30 -74t74 -30t74 30t30 74t-30 74t-74 30t-74 -30t-30 -74z" />
<glyph unicode="&#x2000;" horiz-adv-x="892" />
<glyph unicode="&#x2001;" horiz-adv-x="1785" />
<glyph unicode="&#x2002;" horiz-adv-x="892" />
<glyph unicode="&#x2003;" horiz-adv-x="1785" />
<glyph unicode="&#x2004;" horiz-adv-x="595" />
<glyph unicode="&#x2005;" horiz-adv-x="446" />
<glyph unicode="&#x2006;" horiz-adv-x="297" />
<glyph unicode="&#x2007;" horiz-adv-x="297" />
<glyph unicode="&#x2008;" horiz-adv-x="223" />
<glyph unicode="&#x2009;" horiz-adv-x="357" />
<glyph unicode="&#x200a;" horiz-adv-x="99" />
<glyph unicode="&#x2010;" horiz-adv-x="1750" d="M450 638v70q0 35 50 35h750q50 0 50 -35v-70q0 -35 -50 -35h-750q-50 0 -50 35z" />
<glyph unicode="&#x2011;" horiz-adv-x="1750" d="M450 638v70q0 35 50 35h750q50 0 50 -35v-70q0 -35 -50 -35h-750q-50 0 -50 35z" />
<glyph unicode="&#x2012;" horiz-adv-x="1750" d="M450 638v70q0 35 50 35h750q50 0 50 -35v-70q0 -35 -50 -35h-750q-50 0 -50 35z" />
<glyph unicode="&#x2013;" horiz-adv-x="1024" d="M36 523v60q0 35 45 35h862q45 0 45 -35v-60q0 -35 -45 -35h-862q-45 0 -45 35z" />
<glyph unicode="&#x2014;" horiz-adv-x="2048" d="M36 523v60q0 35 45 35h1886q45 0 45 -35v-60q0 -35 -45 -35h-1886q-45 0 -45 35z" />
<glyph unicode="&#x2018;" horiz-adv-x="498" d="M352 1137v-122q0 -45 -45 -45h-116q-45 0 -45 45v122q0 105 22.5 183.5t88.5 137.5q22 19 37 5l45 -42q15 -14 -7 -34q-34 -30 -55.5 -86.5t-21.5 -118.5h52q45 0 45 -45z" />
<glyph unicode="&#x2019;" horiz-adv-x="498" d="M150 1302v122q0 45 45 45h116q45 0 45 -45v-122q0 -105 -22.5 -183.5t-88.5 -137.5q-22 -19 -37 -5l-45 42q-15 14 7 34q34 30 55.5 86.5t21.5 118.5h-52q-45 0 -45 45z" />
<glyph unicode="&#x201a;" horiz-adv-x="498" d="M150 45v122q0 45 45 45h116q45 0 45 -45v-122q0 -105 -22.5 -183.5t-88.5 -137.5q-22 -19 -37 -5l-45 42q-15 14 7 34q34 30 55.5 86.5t21.5 118.5h-52q-45 0 -45 45z" />
<glyph unicode="&#x201c;" horiz-adv-x="760" d="M648 1137v-122q0 -45 -45 -45h-116q-45 0 -45 45v122q0 105 22.5 183.5t88.5 137.5q22 19 37 5l45 -42q15 -14 -7 -34q-34 -30 -55.5 -86.5t-21.5 -118.5h52q45 0 45 -45zM318 1137v-122q0 -45 -45 -45h-116q-45 0 -45 45v122q0 105 22.5 183.5t88.5 137.5q22 19 37 5 l45 -42q15 -14 -7 -34q-34 -30 -55.5 -86.5t-21.5 -118.5h52q45 0 45 -45z" />
<glyph unicode="&#x201d;" horiz-adv-x="760" d="M446 1302v122q0 45 45 45h116q45 0 45 -45v-122q0 -105 -22.5 -183.5t-88.5 -137.5q-22 -19 -37 -5l-45 42q-15 14 7 34q34 30 55.5 86.5t21.5 118.5h-52q-45 0 -45 45zM116 1302v122q0 45 45 45h116q45 0 45 -45v-122q0 -105 -22.5 -183.5t-88.5 -137.5q-22 -19 -37 -5 l-45 42q-15 14 7 34q34 30 55.5 86.5t21.5 118.5h-52q-45 0 -45 45z" />
<glyph unicode="&#x201e;" horiz-adv-x="760" d="M446 45v122q0 45 45 45h116q45 0 45 -45v-122q0 -105 -22.5 -183.5t-88.5 -137.5q-22 -19 -37 -5l-45 42q-15 14 7 34q34 30 55.5 86.5t21.5 118.5h-52q-45 0 -45 45zM116 45v122q0 45 45 45h116q45 0 45 -45v-122q0 -105 -22.5 -183.5t-88.5 -137.5q-22 -19 -37 -5 l-45 42q-15 14 7 34q34 30 55.5 86.5t21.5 118.5h-52q-45 0 -45 45z" />
<glyph unicode="&#x2022;" horiz-adv-x="1024" d="M302 694q0 87 61.5 148.5t148.5 61.5t148.5 -61.5t61.5 -148.5t-61.5 -148.5t-148.5 -61.5t-148.5 61.5t-61.5 148.5z" />
<glyph unicode="&#x2026;" horiz-adv-x="2048" d="M250 45v122q0 45 45 45h112q45 0 45 -45v-122q0 -45 -45 -45h-112q-45 0 -45 45zM923 45v122q0 45 45 45h112q45 0 45 -45v-122q0 -45 -45 -45h-112q-45 0 -45 45zM1596 45v122q0 45 45 45h112q45 0 45 -45v-122q0 -45 -45 -45h-112q-45 0 -45 45z" />
<glyph unicode="&#x202f;" horiz-adv-x="357" />
<glyph unicode="&#x2039;" horiz-adv-x="682" d="M159 517q-19 23 0 46l332 390q22 26 43 8l48 -43q19 -17 -3 -44l-282 -334l282 -334q22 -27 3 -44l-48 -43q-21 -18 -43 8z" />
<glyph unicode="&#x203a;" horiz-adv-x="682" d="M176 162q-19 17 3 44l282 334l-282 334q-22 27 -3 44l48 43q21 18 43 -8l332 -390q19 -23 0 -46l-332 -390q-22 -26 -43 -8z" />
<glyph unicode="&#x205f;" horiz-adv-x="446" />
<glyph unicode="&#x20ac;" d="M29 549l11 60q6 35 51 35h47q0 92 5 154h-75q-45 0 -39 35l11 60q6 35 51 35h68q37 207 156.5 365.5t368.5 158.5q93 0 170 -24t156 -120q44 -54 11 -80l-53 -42q-46 -36 -78 20q-29 51 -80 73.5t-140 22.5q-148 0 -219.5 -129t-94.5 -245h404q45 0 39 -35l-11 -60 q-6 -35 -51 -35h-398q-5 -62 -5 -154h426q45 0 39 -35l-11 -60q-6 -35 -51 -35h-396q16 -160 80.5 -277t231.5 -117q103 0 154 37t104 90q46 46 78 17l46 -41q30 -27 -14 -79q-64 -75 -145 -124.5t-230 -49.5q-262 0 -370.5 153.5t-130.5 390.5h-77q-45 0 -39 35z" />
<glyph unicode="&#x2122;" horiz-adv-x="1598" d="M70 1360v52q0 22 29 22h516q29 0 29 -22v-52q0 -22 -29 -22h-198v-547q0 -29 -28 -29h-64q-28 0 -28 29v547h-198q-29 0 -29 22zM717 791v614q0 29 29 29h132q20 0 29 -25l147 -422q10 -28 18 -55t16 -59h2q8 32 16 59t18 55l147 422q9 25 29 25h132q29 0 29 -29v-614 q0 -29 -29 -29h-63q-28 0 -28 29v483q0 19 1 38h-1l-185 -511q-14 -39 -35 -39h-64q-21 0 -35 39l-185 511h-1q1 -19 1 -38v-483q0 -29 -28 -29h-63q-29 0 -29 29z" />
<glyph unicode="&#x2212;" horiz-adv-x="990" d="M70 638v70q0 35 50 35h750q50 0 50 -35v-70q0 -35 -50 -35h-750q-50 0 -50 35z" />
<glyph unicode="&#x2215;" horiz-adv-x="802" d="M-71 6l938 1501q24 38 54 20l42 -27q30 -18 6 -56l-938 -1501q-24 -38 -54 -20l-42 27q-30 18 -6 56z" />
<glyph unicode="&#xe000;" horiz-adv-x="1050" d="M0 1050h1050v-1050h-1050v1050z" />
<glyph unicode="&#xeff5;" horiz-adv-x="820" d="M69 1620q28 65 85.5 108t146.5 43q75 0 159 -49t128 -49q48 0 81 27t49 52q19 29 38 18l42 -25q23 -13 9 -45q-28 -65 -85.5 -108t-146.5 -43q-75 0 -159 49t-128 49q-48 0 -81 -27t-49 -52q-19 -29 -38 -18l-42 25q-23 13 -9 45z" />
<glyph unicode="&#xeff7;" horiz-adv-x="820" d="M72 1580q-15 32 26 51l243 113q39 18 64 18h70q25 0 64 -18l243 -113q41 -19 26 -51l-23 -50q-15 -32 -56 -13l-288 132h-2l-288 -132q-41 -19 -56 13z" />
<glyph unicode="&#xf102;" horiz-adv-x="698" d="M40 328q0 160 84.5 272.5t224.5 112.5t224.5 -112.5t84.5 -272.5t-84.5 -272.5t-224.5 -112.5t-224.5 112.5t-84.5 272.5zM200 328q0 -140 34.5 -205t114.5 -65t114.5 65t34.5 205t-34.5 205t-114.5 65t-114.5 -65t-34.5 -205z" />
<glyph unicode="&#xf6c9;" horiz-adv-x="820" d="M359 1593l133 155q32 37 81 37h157q77 0 14 -52l-198 -164q-35 -29 -81 -29h-94q-57 0 -12 53z" />
<glyph unicode="&#xf6cb;" horiz-adv-x="1676" d="M200 0v956h559l-1 -957zM918 637v798l558 -1l-1 -797h-557zM1077 797h239v478h-239v-478z" />
<glyph unicode="&#xf6ce;" horiz-adv-x="1182" d="M200 656v130h782v-130h-782zM370 4v521h456l1 -521h-457zM371 917v521h455l1 -521h-456zM501 134h195v261h-195v-261zM501 1047h195v261h-195v-261z" />
<glyph unicode="&#xfb01;" horiz-adv-x="2000" d="M200 1044v112h274v275h115v-275h275v-112h-275v-274h-115v274h-274zM580 -40l826 1458h149q-104 -185 -207 -366.5t-206 -363.5l-204 -362q-103 -182 -208 -366h-150zM1205 225v49q0 24 35 24h525q35 0 35 -24v-49q0 -25 -35 -25h-525q-35 0 -35 25z" />
<glyph unicode="&#xfb02;" horiz-adv-x="1731" d="M200 1041v148h1331v-148h-1331zM274 0v760l1180 -3v-754zM422 153h887v459h-887v-459z" />
<glyph unicode="&#xfb03;" horiz-adv-x="1731" d="M200 1055v164h989v-164h-989zM224 0l3 760h1174l3 -760h-1180zM369 153h885v457h-885v-457zM1191 974v347h3q337 -176 337 -174q0 -4 -337 -173h-3z" />
<glyph unicode="&#xfb04;" horiz-adv-x="1603" d="M200 1112l212 212v-424zM212 0v760l1180 -2v-756zM361 156h885v456h-885v-456zM407 1045v135h790v-135h-790zM1191 900v424l212 -212z" />
<glyph horiz-adv-x="614" d="M52 1285v86q0 45 45 45h86q45 0 45 -45v-86q0 -45 -45 -45h-86q-45 0 -45 45zM386 1285v86q0 45 45 45h86q45 0 45 -45v-86q0 -45 -45 -45h-86q-45 0 -45 45z" />
<glyph horiz-adv-x="820" d="M122 1595v92q0 45 45 45h92q45 0 45 -45v-92q0 -45 -45 -45h-92q-45 0 -45 45zM516 1595v92q0 45 45 45h92q45 0 45 -45v-92q0 -45 -45 -45h-92q-45 0 -45 45z" />
<glyph horiz-adv-x="0" d="M-591 656v130h782v-130h-782zM-421 4v521h456l1 -521h-457zM-420 917v521h455l1 -521h-456zM-290 134h195v261h-195v-261zM-290 1047h195v261h-195v-261z" />
<glyph horiz-adv-x="0" d="M-461 1593l133 155q32 37 81 37h157q77 0 14 -52l-198 -164q-35 -29 -81 -29h-94q-57 0 -12 53z" />
</font>
</defs>
</svg>
